# Maze 3D OBJ (walls only, no floor)
# wall_height=6.0, wall_thickness=0.15, cell_size=1.0

v 2.000000 0.000000 1.925000
v 146.000000 0.000000 1.925000
v 146.000000 0.000000 2.075000
v 2.000000 0.000000 2.075000
v 2.000000 6.000000 1.925000
v 146.000000 6.000000 1.925000
v 146.000000 6.000000 2.075000
v 2.000000 6.000000 2.075000
v 162.000000 0.000000 1.925000
v 322.000000 0.000000 1.925000
v 322.000000 0.000000 2.075000
v 162.000000 0.000000 2.075000
v 162.000000 6.000000 1.925000
v 322.000000 6.000000 1.925000
v 322.000000 6.000000 2.075000
v 162.000000 6.000000 2.075000
v 18.000000 0.000000 17.925000
v 34.000000 0.000000 17.925000
v 34.000000 0.000000 18.075000
v 18.000000 0.000000 18.075000
v 18.000000 6.000000 17.925000
v 34.000000 6.000000 17.925000
v 34.000000 6.000000 18.075000
v 18.000000 6.000000 18.075000
v 50.000000 0.000000 17.925000
v 66.000000 0.000000 17.925000
v 66.000000 0.000000 18.075000
v 50.000000 0.000000 18.075000
v 50.000000 6.000000 17.925000
v 66.000000 6.000000 17.925000
v 66.000000 6.000000 18.075000
v 50.000000 6.000000 18.075000
v 98.000000 0.000000 17.925000
v 178.000000 0.000000 17.925000
v 178.000000 0.000000 18.075000
v 98.000000 0.000000 18.075000
v 98.000000 6.000000 17.925000
v 178.000000 6.000000 17.925000
v 178.000000 6.000000 18.075000
v 98.000000 6.000000 18.075000
v 194.000000 0.000000 17.925000
v 210.000000 0.000000 17.925000
v 210.000000 0.000000 18.075000
v 194.000000 0.000000 18.075000
v 194.000000 6.000000 17.925000
v 210.000000 6.000000 17.925000
v 210.000000 6.000000 18.075000
v 194.000000 6.000000 18.075000
v 242.000000 0.000000 17.925000
v 290.000000 0.000000 17.925000
v 290.000000 0.000000 18.075000
v 242.000000 0.000000 18.075000
v 242.000000 6.000000 17.925000
v 290.000000 6.000000 17.925000
v 290.000000 6.000000 18.075000
v 242.000000 6.000000 18.075000
v 2.000000 0.000000 33.925000
v 18.000000 0.000000 33.925000
v 18.000000 0.000000 34.075000
v 2.000000 0.000000 34.075000
v 2.000000 6.000000 33.925000
v 18.000000 6.000000 33.925000
v 18.000000 6.000000 34.075000
v 2.000000 6.000000 34.075000
v 34.000000 0.000000 33.925000
v 50.000000 0.000000 33.925000
v 50.000000 0.000000 34.075000
v 34.000000 0.000000 34.075000
v 34.000000 6.000000 33.925000
v 50.000000 6.000000 33.925000
v 50.000000 6.000000 34.075000
v 34.000000 6.000000 34.075000
v 82.000000 0.000000 33.925000
v 98.000000 0.000000 33.925000
v 98.000000 0.000000 34.075000
v 82.000000 0.000000 34.075000
v 82.000000 6.000000 33.925000
v 98.000000 6.000000 33.925000
v 98.000000 6.000000 34.075000
v 82.000000 6.000000 34.075000
v 114.000000 0.000000 33.925000
v 162.000000 0.000000 33.925000
v 162.000000 0.000000 34.075000
v 114.000000 0.000000 34.075000
v 114.000000 6.000000 33.925000
v 162.000000 6.000000 33.925000
v 162.000000 6.000000 34.075000
v 114.000000 6.000000 34.075000
v 178.000000 0.000000 33.925000
v 210.000000 0.000000 33.925000
v 210.000000 0.000000 34.075000
v 178.000000 0.000000 34.075000
v 178.000000 6.000000 33.925000
v 210.000000 6.000000 33.925000
v 210.000000 6.000000 34.075000
v 178.000000 6.000000 34.075000
v 226.000000 0.000000 33.925000
v 242.000000 0.000000 33.925000
v 242.000000 0.000000 34.075000
v 226.000000 0.000000 34.075000
v 226.000000 6.000000 33.925000
v 242.000000 6.000000 33.925000
v 242.000000 6.000000 34.075000
v 226.000000 6.000000 34.075000
v 258.000000 0.000000 33.925000
v 306.000000 0.000000 33.925000
v 306.000000 0.000000 34.075000
v 258.000000 0.000000 34.075000
v 258.000000 6.000000 33.925000
v 306.000000 6.000000 33.925000
v 306.000000 6.000000 34.075000
v 258.000000 6.000000 34.075000
v 18.000000 0.000000 49.925000
v 34.000000 0.000000 49.925000
v 34.000000 0.000000 50.075000
v 18.000000 0.000000 50.075000
v 18.000000 6.000000 49.925000
v 34.000000 6.000000 49.925000
v 34.000000 6.000000 50.075000
v 18.000000 6.000000 50.075000
v 66.000000 0.000000 49.925000
v 82.000000 0.000000 49.925000
v 82.000000 0.000000 50.075000
v 66.000000 0.000000 50.075000
v 66.000000 6.000000 49.925000
v 82.000000 6.000000 49.925000
v 82.000000 6.000000 50.075000
v 66.000000 6.000000 50.075000
v 98.000000 0.000000 49.925000
v 114.000000 0.000000 49.925000
v 114.000000 0.000000 50.075000
v 98.000000 0.000000 50.075000
v 98.000000 6.000000 49.925000
v 114.000000 6.000000 49.925000
v 114.000000 6.000000 50.075000
v 98.000000 6.000000 50.075000
v 130.000000 0.000000 49.925000
v 146.000000 0.000000 49.925000
v 146.000000 0.000000 50.075000
v 130.000000 0.000000 50.075000
v 130.000000 6.000000 49.925000
v 146.000000 6.000000 49.925000
v 146.000000 6.000000 50.075000
v 130.000000 6.000000 50.075000
v 162.000000 0.000000 49.925000
v 178.000000 0.000000 49.925000
v 178.000000 0.000000 50.075000
v 162.000000 0.000000 50.075000
v 162.000000 6.000000 49.925000
v 178.000000 6.000000 49.925000
v 178.000000 6.000000 50.075000
v 162.000000 6.000000 50.075000
v 210.000000 0.000000 49.925000
v 258.000000 0.000000 49.925000
v 258.000000 0.000000 50.075000
v 210.000000 0.000000 50.075000
v 210.000000 6.000000 49.925000
v 258.000000 6.000000 49.925000
v 258.000000 6.000000 50.075000
v 210.000000 6.000000 50.075000
v 274.000000 0.000000 49.925000
v 290.000000 0.000000 49.925000
v 290.000000 0.000000 50.075000
v 274.000000 0.000000 50.075000
v 274.000000 6.000000 49.925000
v 290.000000 6.000000 49.925000
v 290.000000 6.000000 50.075000
v 274.000000 6.000000 50.075000
v 306.000000 0.000000 49.925000
v 322.000000 0.000000 49.925000
v 322.000000 0.000000 50.075000
v 306.000000 0.000000 50.075000
v 306.000000 6.000000 49.925000
v 322.000000 6.000000 49.925000
v 322.000000 6.000000 50.075000
v 306.000000 6.000000 50.075000
v 2.000000 0.000000 65.925000
v 18.000000 0.000000 65.925000
v 18.000000 0.000000 66.075000
v 2.000000 0.000000 66.075000
v 2.000000 6.000000 65.925000
v 18.000000 6.000000 65.925000
v 18.000000 6.000000 66.075000
v 2.000000 6.000000 66.075000
v 66.000000 0.000000 65.925000
v 98.000000 0.000000 65.925000
v 98.000000 0.000000 66.075000
v 66.000000 0.000000 66.075000
v 66.000000 6.000000 65.925000
v 98.000000 6.000000 65.925000
v 98.000000 6.000000 66.075000
v 66.000000 6.000000 66.075000
v 114.000000 0.000000 65.925000
v 130.000000 0.000000 65.925000
v 130.000000 0.000000 66.075000
v 114.000000 0.000000 66.075000
v 114.000000 6.000000 65.925000
v 130.000000 6.000000 65.925000
v 130.000000 6.000000 66.075000
v 114.000000 6.000000 66.075000
v 146.000000 0.000000 65.925000
v 194.000000 0.000000 65.925000
v 194.000000 0.000000 66.075000
v 146.000000 0.000000 66.075000
v 146.000000 6.000000 65.925000
v 194.000000 6.000000 65.925000
v 194.000000 6.000000 66.075000
v 146.000000 6.000000 66.075000
v 226.000000 0.000000 65.925000
v 290.000000 0.000000 65.925000
v 290.000000 0.000000 66.075000
v 226.000000 0.000000 66.075000
v 226.000000 6.000000 65.925000
v 290.000000 6.000000 65.925000
v 290.000000 6.000000 66.075000
v 226.000000 6.000000 66.075000
v 18.000000 0.000000 81.925000
v 34.000000 0.000000 81.925000
v 34.000000 0.000000 82.075000
v 18.000000 0.000000 82.075000
v 18.000000 6.000000 81.925000
v 34.000000 6.000000 81.925000
v 34.000000 6.000000 82.075000
v 18.000000 6.000000 82.075000
v 50.000000 0.000000 81.925000
v 66.000000 0.000000 81.925000
v 66.000000 0.000000 82.075000
v 50.000000 0.000000 82.075000
v 50.000000 6.000000 81.925000
v 66.000000 6.000000 81.925000
v 66.000000 6.000000 82.075000
v 50.000000 6.000000 82.075000
v 98.000000 0.000000 81.925000
v 146.000000 0.000000 81.925000
v 146.000000 0.000000 82.075000
v 98.000000 0.000000 82.075000
v 98.000000 6.000000 81.925000
v 146.000000 6.000000 81.925000
v 146.000000 6.000000 82.075000
v 98.000000 6.000000 82.075000
v 194.000000 0.000000 81.925000
v 226.000000 0.000000 81.925000
v 226.000000 0.000000 82.075000
v 194.000000 0.000000 82.075000
v 194.000000 6.000000 81.925000
v 226.000000 6.000000 81.925000
v 226.000000 6.000000 82.075000
v 194.000000 6.000000 82.075000
v 290.000000 0.000000 81.925000
v 322.000000 0.000000 81.925000
v 322.000000 0.000000 82.075000
v 290.000000 0.000000 82.075000
v 290.000000 6.000000 81.925000
v 322.000000 6.000000 81.925000
v 322.000000 6.000000 82.075000
v 290.000000 6.000000 82.075000
v 2.000000 0.000000 97.925000
v 50.000000 0.000000 97.925000
v 50.000000 0.000000 98.075000
v 2.000000 0.000000 98.075000
v 2.000000 6.000000 97.925000
v 50.000000 6.000000 97.925000
v 50.000000 6.000000 98.075000
v 2.000000 6.000000 98.075000
v 66.000000 0.000000 97.925000
v 98.000000 0.000000 97.925000
v 98.000000 0.000000 98.075000
v 66.000000 0.000000 98.075000
v 66.000000 6.000000 97.925000
v 98.000000 6.000000 97.925000
v 98.000000 6.000000 98.075000
v 66.000000 6.000000 98.075000
v 130.000000 0.000000 97.925000
v 146.000000 0.000000 97.925000
v 146.000000 0.000000 98.075000
v 130.000000 0.000000 98.075000
v 130.000000 6.000000 97.925000
v 146.000000 6.000000 97.925000
v 146.000000 6.000000 98.075000
v 130.000000 6.000000 98.075000
v 178.000000 0.000000 97.925000
v 210.000000 0.000000 97.925000
v 210.000000 0.000000 98.075000
v 178.000000 0.000000 98.075000
v 178.000000 6.000000 97.925000
v 210.000000 6.000000 97.925000
v 210.000000 6.000000 98.075000
v 178.000000 6.000000 98.075000
v 242.000000 0.000000 97.925000
v 274.000000 0.000000 97.925000
v 274.000000 0.000000 98.075000
v 242.000000 0.000000 98.075000
v 242.000000 6.000000 97.925000
v 274.000000 6.000000 97.925000
v 274.000000 6.000000 98.075000
v 242.000000 6.000000 98.075000
v 2.000000 0.000000 113.925000
v 34.000000 0.000000 113.925000
v 34.000000 0.000000 114.075000
v 2.000000 0.000000 114.075000
v 2.000000 6.000000 113.925000
v 34.000000 6.000000 113.925000
v 34.000000 6.000000 114.075000
v 2.000000 6.000000 114.075000
v 50.000000 0.000000 113.925000
v 82.000000 0.000000 113.925000
v 82.000000 0.000000 114.075000
v 50.000000 0.000000 114.075000
v 50.000000 6.000000 113.925000
v 82.000000 6.000000 113.925000
v 82.000000 6.000000 114.075000
v 50.000000 6.000000 114.075000
v 98.000000 0.000000 113.925000
v 146.000000 0.000000 113.925000
v 146.000000 0.000000 114.075000
v 98.000000 0.000000 114.075000
v 98.000000 6.000000 113.925000
v 146.000000 6.000000 113.925000
v 146.000000 6.000000 114.075000
v 98.000000 6.000000 114.075000
v 178.000000 0.000000 113.925000
v 194.000000 0.000000 113.925000
v 194.000000 0.000000 114.075000
v 178.000000 0.000000 114.075000
v 178.000000 6.000000 113.925000
v 194.000000 6.000000 113.925000
v 194.000000 6.000000 114.075000
v 178.000000 6.000000 114.075000
v 210.000000 0.000000 113.925000
v 242.000000 0.000000 113.925000
v 242.000000 0.000000 114.075000
v 210.000000 0.000000 114.075000
v 210.000000 6.000000 113.925000
v 242.000000 6.000000 113.925000
v 242.000000 6.000000 114.075000
v 210.000000 6.000000 114.075000
v 274.000000 0.000000 113.925000
v 290.000000 0.000000 113.925000
v 290.000000 0.000000 114.075000
v 274.000000 0.000000 114.075000
v 274.000000 6.000000 113.925000
v 290.000000 6.000000 113.925000
v 290.000000 6.000000 114.075000
v 274.000000 6.000000 114.075000
v 50.000000 0.000000 129.925000
v 98.000000 0.000000 129.925000
v 98.000000 0.000000 130.075000
v 50.000000 0.000000 130.075000
v 50.000000 6.000000 129.925000
v 98.000000 6.000000 129.925000
v 98.000000 6.000000 130.075000
v 50.000000 6.000000 130.075000
v 130.000000 0.000000 129.925000
v 178.000000 0.000000 129.925000
v 178.000000 0.000000 130.075000
v 130.000000 0.000000 130.075000
v 130.000000 6.000000 129.925000
v 178.000000 6.000000 129.925000
v 178.000000 6.000000 130.075000
v 130.000000 6.000000 130.075000
v 194.000000 0.000000 129.925000
v 226.000000 0.000000 129.925000
v 226.000000 0.000000 130.075000
v 194.000000 0.000000 130.075000
v 194.000000 6.000000 129.925000
v 226.000000 6.000000 129.925000
v 226.000000 6.000000 130.075000
v 194.000000 6.000000 130.075000
v 258.000000 0.000000 129.925000
v 274.000000 0.000000 129.925000
v 274.000000 0.000000 130.075000
v 258.000000 0.000000 130.075000
v 258.000000 6.000000 129.925000
v 274.000000 6.000000 129.925000
v 274.000000 6.000000 130.075000
v 258.000000 6.000000 130.075000
v 290.000000 0.000000 129.925000
v 306.000000 0.000000 129.925000
v 306.000000 0.000000 130.075000
v 290.000000 0.000000 130.075000
v 290.000000 6.000000 129.925000
v 306.000000 6.000000 129.925000
v 306.000000 6.000000 130.075000
v 290.000000 6.000000 130.075000
v 2.000000 0.000000 145.925000
v 18.000000 0.000000 145.925000
v 18.000000 0.000000 146.075000
v 2.000000 0.000000 146.075000
v 2.000000 6.000000 145.925000
v 18.000000 6.000000 145.925000
v 18.000000 6.000000 146.075000
v 2.000000 6.000000 146.075000
v 34.000000 0.000000 145.925000
v 50.000000 0.000000 145.925000
v 50.000000 0.000000 146.075000
v 34.000000 0.000000 146.075000
v 34.000000 6.000000 145.925000
v 50.000000 6.000000 145.925000
v 50.000000 6.000000 146.075000
v 34.000000 6.000000 146.075000
v 66.000000 0.000000 145.925000
v 114.000000 0.000000 145.925000
v 114.000000 0.000000 146.075000
v 66.000000 0.000000 146.075000
v 66.000000 6.000000 145.925000
v 114.000000 6.000000 145.925000
v 114.000000 6.000000 146.075000
v 66.000000 6.000000 146.075000
v 178.000000 0.000000 145.925000
v 226.000000 0.000000 145.925000
v 226.000000 0.000000 146.075000
v 178.000000 0.000000 146.075000
v 178.000000 6.000000 145.925000
v 226.000000 6.000000 145.925000
v 226.000000 6.000000 146.075000
v 178.000000 6.000000 146.075000
v 290.000000 0.000000 145.925000
v 306.000000 0.000000 145.925000
v 306.000000 0.000000 146.075000
v 290.000000 0.000000 146.075000
v 290.000000 6.000000 145.925000
v 306.000000 6.000000 145.925000
v 306.000000 6.000000 146.075000
v 290.000000 6.000000 146.075000
v 18.000000 0.000000 161.925000
v 34.000000 0.000000 161.925000
v 34.000000 0.000000 162.075000
v 18.000000 0.000000 162.075000
v 18.000000 6.000000 161.925000
v 34.000000 6.000000 161.925000
v 34.000000 6.000000 162.075000
v 18.000000 6.000000 162.075000
v 66.000000 0.000000 161.925000
v 82.000000 0.000000 161.925000
v 82.000000 0.000000 162.075000
v 66.000000 0.000000 162.075000
v 66.000000 6.000000 161.925000
v 82.000000 6.000000 161.925000
v 82.000000 6.000000 162.075000
v 66.000000 6.000000 162.075000
v 98.000000 0.000000 161.925000
v 146.000000 0.000000 161.925000
v 146.000000 0.000000 162.075000
v 98.000000 0.000000 162.075000
v 98.000000 6.000000 161.925000
v 146.000000 6.000000 161.925000
v 146.000000 6.000000 162.075000
v 98.000000 6.000000 162.075000
v 162.000000 0.000000 161.925000
v 194.000000 0.000000 161.925000
v 194.000000 0.000000 162.075000
v 162.000000 0.000000 162.075000
v 162.000000 6.000000 161.925000
v 194.000000 6.000000 161.925000
v 194.000000 6.000000 162.075000
v 162.000000 6.000000 162.075000
v 242.000000 0.000000 161.925000
v 290.000000 0.000000 161.925000
v 290.000000 0.000000 162.075000
v 242.000000 0.000000 162.075000
v 242.000000 6.000000 161.925000
v 290.000000 6.000000 161.925000
v 290.000000 6.000000 162.075000
v 242.000000 6.000000 162.075000
v 306.000000 0.000000 161.925000
v 322.000000 0.000000 161.925000
v 322.000000 0.000000 162.075000
v 306.000000 0.000000 162.075000
v 306.000000 6.000000 161.925000
v 322.000000 6.000000 161.925000
v 322.000000 6.000000 162.075000
v 306.000000 6.000000 162.075000
v 18.000000 0.000000 177.925000
v 34.000000 0.000000 177.925000
v 34.000000 0.000000 178.075000
v 18.000000 0.000000 178.075000
v 18.000000 6.000000 177.925000
v 34.000000 6.000000 177.925000
v 34.000000 6.000000 178.075000
v 18.000000 6.000000 178.075000
v 82.000000 0.000000 177.925000
v 98.000000 0.000000 177.925000
v 98.000000 0.000000 178.075000
v 82.000000 0.000000 178.075000
v 82.000000 6.000000 177.925000
v 98.000000 6.000000 177.925000
v 98.000000 6.000000 178.075000
v 82.000000 6.000000 178.075000
v 162.000000 0.000000 177.925000
v 210.000000 0.000000 177.925000
v 210.000000 0.000000 178.075000
v 162.000000 0.000000 178.075000
v 162.000000 6.000000 177.925000
v 210.000000 6.000000 177.925000
v 210.000000 6.000000 178.075000
v 162.000000 6.000000 178.075000
v 226.000000 0.000000 177.925000
v 258.000000 0.000000 177.925000
v 258.000000 0.000000 178.075000
v 226.000000 0.000000 178.075000
v 226.000000 6.000000 177.925000
v 258.000000 6.000000 177.925000
v 258.000000 6.000000 178.075000
v 226.000000 6.000000 178.075000
v 290.000000 0.000000 177.925000
v 306.000000 0.000000 177.925000
v 306.000000 0.000000 178.075000
v 290.000000 0.000000 178.075000
v 290.000000 6.000000 177.925000
v 306.000000 6.000000 177.925000
v 306.000000 6.000000 178.075000
v 290.000000 6.000000 178.075000
v 34.000000 0.000000 193.925000
v 66.000000 0.000000 193.925000
v 66.000000 0.000000 194.075000
v 34.000000 0.000000 194.075000
v 34.000000 6.000000 193.925000
v 66.000000 6.000000 193.925000
v 66.000000 6.000000 194.075000
v 34.000000 6.000000 194.075000
v 98.000000 0.000000 193.925000
v 130.000000 0.000000 193.925000
v 130.000000 0.000000 194.075000
v 98.000000 0.000000 194.075000
v 98.000000 6.000000 193.925000
v 130.000000 6.000000 193.925000
v 130.000000 6.000000 194.075000
v 98.000000 6.000000 194.075000
v 146.000000 0.000000 193.925000
v 162.000000 0.000000 193.925000
v 162.000000 0.000000 194.075000
v 146.000000 0.000000 194.075000
v 146.000000 6.000000 193.925000
v 162.000000 6.000000 193.925000
v 162.000000 6.000000 194.075000
v 146.000000 6.000000 194.075000
v 178.000000 0.000000 193.925000
v 194.000000 0.000000 193.925000
v 194.000000 0.000000 194.075000
v 178.000000 0.000000 194.075000
v 178.000000 6.000000 193.925000
v 194.000000 6.000000 193.925000
v 194.000000 6.000000 194.075000
v 178.000000 6.000000 194.075000
v 210.000000 0.000000 193.925000
v 226.000000 0.000000 193.925000
v 226.000000 0.000000 194.075000
v 210.000000 0.000000 194.075000
v 210.000000 6.000000 193.925000
v 226.000000 6.000000 193.925000
v 226.000000 6.000000 194.075000
v 210.000000 6.000000 194.075000
v 274.000000 0.000000 193.925000
v 322.000000 0.000000 193.925000
v 322.000000 0.000000 194.075000
v 274.000000 0.000000 194.075000
v 274.000000 6.000000 193.925000
v 322.000000 6.000000 193.925000
v 322.000000 6.000000 194.075000
v 274.000000 6.000000 194.075000
v 2.000000 0.000000 209.925000
v 18.000000 0.000000 209.925000
v 18.000000 0.000000 210.075000
v 2.000000 0.000000 210.075000
v 2.000000 6.000000 209.925000
v 18.000000 6.000000 209.925000
v 18.000000 6.000000 210.075000
v 2.000000 6.000000 210.075000
v 34.000000 0.000000 209.925000
v 50.000000 0.000000 209.925000
v 50.000000 0.000000 210.075000
v 34.000000 0.000000 210.075000
v 34.000000 6.000000 209.925000
v 50.000000 6.000000 209.925000
v 50.000000 6.000000 210.075000
v 34.000000 6.000000 210.075000
v 66.000000 0.000000 209.925000
v 114.000000 0.000000 209.925000
v 114.000000 0.000000 210.075000
v 66.000000 0.000000 210.075000
v 66.000000 6.000000 209.925000
v 114.000000 6.000000 209.925000
v 114.000000 6.000000 210.075000
v 66.000000 6.000000 210.075000
v 162.000000 0.000000 209.925000
v 178.000000 0.000000 209.925000
v 178.000000 0.000000 210.075000
v 162.000000 0.000000 210.075000
v 162.000000 6.000000 209.925000
v 178.000000 6.000000 209.925000
v 178.000000 6.000000 210.075000
v 162.000000 6.000000 210.075000
v 258.000000 0.000000 209.925000
v 306.000000 0.000000 209.925000
v 306.000000 0.000000 210.075000
v 258.000000 0.000000 210.075000
v 258.000000 6.000000 209.925000
v 306.000000 6.000000 209.925000
v 306.000000 6.000000 210.075000
v 258.000000 6.000000 210.075000
v 18.000000 0.000000 225.925000
v 34.000000 0.000000 225.925000
v 34.000000 0.000000 226.075000
v 18.000000 0.000000 226.075000
v 18.000000 6.000000 225.925000
v 34.000000 6.000000 225.925000
v 34.000000 6.000000 226.075000
v 18.000000 6.000000 226.075000
v 50.000000 0.000000 225.925000
v 114.000000 0.000000 225.925000
v 114.000000 0.000000 226.075000
v 50.000000 0.000000 226.075000
v 50.000000 6.000000 225.925000
v 114.000000 6.000000 225.925000
v 114.000000 6.000000 226.075000
v 50.000000 6.000000 226.075000
v 130.000000 0.000000 225.925000
v 162.000000 0.000000 225.925000
v 162.000000 0.000000 226.075000
v 130.000000 0.000000 226.075000
v 130.000000 6.000000 225.925000
v 162.000000 6.000000 225.925000
v 162.000000 6.000000 226.075000
v 130.000000 6.000000 226.075000
v 210.000000 0.000000 225.925000
v 258.000000 0.000000 225.925000
v 258.000000 0.000000 226.075000
v 210.000000 0.000000 226.075000
v 210.000000 6.000000 225.925000
v 258.000000 6.000000 225.925000
v 258.000000 6.000000 226.075000
v 210.000000 6.000000 226.075000
v 290.000000 0.000000 225.925000
v 322.000000 0.000000 225.925000
v 322.000000 0.000000 226.075000
v 290.000000 0.000000 226.075000
v 290.000000 6.000000 225.925000
v 322.000000 6.000000 225.925000
v 322.000000 6.000000 226.075000
v 290.000000 6.000000 226.075000
v 34.000000 0.000000 241.925000
v 98.000000 0.000000 241.925000
v 98.000000 0.000000 242.075000
v 34.000000 0.000000 242.075000
v 34.000000 6.000000 241.925000
v 98.000000 6.000000 241.925000
v 98.000000 6.000000 242.075000
v 34.000000 6.000000 242.075000
v 114.000000 0.000000 241.925000
v 146.000000 0.000000 241.925000
v 146.000000 0.000000 242.075000
v 114.000000 0.000000 242.075000
v 114.000000 6.000000 241.925000
v 146.000000 6.000000 241.925000
v 146.000000 6.000000 242.075000
v 114.000000 6.000000 242.075000
v 194.000000 0.000000 241.925000
v 210.000000 0.000000 241.925000
v 210.000000 0.000000 242.075000
v 194.000000 0.000000 242.075000
v 194.000000 6.000000 241.925000
v 210.000000 6.000000 241.925000
v 210.000000 6.000000 242.075000
v 194.000000 6.000000 242.075000
v 242.000000 0.000000 241.925000
v 274.000000 0.000000 241.925000
v 274.000000 0.000000 242.075000
v 242.000000 0.000000 242.075000
v 242.000000 6.000000 241.925000
v 274.000000 6.000000 241.925000
v 274.000000 6.000000 242.075000
v 242.000000 6.000000 242.075000
v 50.000000 0.000000 257.925000
v 82.000000 0.000000 257.925000
v 82.000000 0.000000 258.075000
v 50.000000 0.000000 258.075000
v 50.000000 6.000000 257.925000
v 82.000000 6.000000 257.925000
v 82.000000 6.000000 258.075000
v 50.000000 6.000000 258.075000
v 98.000000 0.000000 257.925000
v 130.000000 0.000000 257.925000
v 130.000000 0.000000 258.075000
v 98.000000 0.000000 258.075000
v 98.000000 6.000000 257.925000
v 130.000000 6.000000 257.925000
v 130.000000 6.000000 258.075000
v 98.000000 6.000000 258.075000
v 146.000000 0.000000 257.925000
v 194.000000 0.000000 257.925000
v 194.000000 0.000000 258.075000
v 146.000000 0.000000 258.075000
v 146.000000 6.000000 257.925000
v 194.000000 6.000000 257.925000
v 194.000000 6.000000 258.075000
v 146.000000 6.000000 258.075000
v 258.000000 0.000000 257.925000
v 274.000000 0.000000 257.925000
v 274.000000 0.000000 258.075000
v 258.000000 0.000000 258.075000
v 258.000000 6.000000 257.925000
v 274.000000 6.000000 257.925000
v 274.000000 6.000000 258.075000
v 258.000000 6.000000 258.075000
v 306.000000 0.000000 257.925000
v 322.000000 0.000000 257.925000
v 322.000000 0.000000 258.075000
v 306.000000 0.000000 258.075000
v 306.000000 6.000000 257.925000
v 322.000000 6.000000 257.925000
v 322.000000 6.000000 258.075000
v 306.000000 6.000000 258.075000
v 2.000000 0.000000 273.925000
v 34.000000 0.000000 273.925000
v 34.000000 0.000000 274.075000
v 2.000000 0.000000 274.075000
v 2.000000 6.000000 273.925000
v 34.000000 6.000000 273.925000
v 34.000000 6.000000 274.075000
v 2.000000 6.000000 274.075000
v 66.000000 0.000000 273.925000
v 98.000000 0.000000 273.925000
v 98.000000 0.000000 274.075000
v 66.000000 0.000000 274.075000
v 66.000000 6.000000 273.925000
v 98.000000 6.000000 273.925000
v 98.000000 6.000000 274.075000
v 66.000000 6.000000 274.075000
v 130.000000 0.000000 273.925000
v 146.000000 0.000000 273.925000
v 146.000000 0.000000 274.075000
v 130.000000 0.000000 274.075000
v 130.000000 6.000000 273.925000
v 146.000000 6.000000 273.925000
v 146.000000 6.000000 274.075000
v 130.000000 6.000000 274.075000
v 194.000000 0.000000 273.925000
v 210.000000 0.000000 273.925000
v 210.000000 0.000000 274.075000
v 194.000000 0.000000 274.075000
v 194.000000 6.000000 273.925000
v 210.000000 6.000000 273.925000
v 210.000000 6.000000 274.075000
v 194.000000 6.000000 274.075000
v 290.000000 0.000000 273.925000
v 306.000000 0.000000 273.925000
v 306.000000 0.000000 274.075000
v 290.000000 0.000000 274.075000
v 290.000000 6.000000 273.925000
v 306.000000 6.000000 273.925000
v 306.000000 6.000000 274.075000
v 290.000000 6.000000 274.075000
v 34.000000 0.000000 289.925000
v 50.000000 0.000000 289.925000
v 50.000000 0.000000 290.075000
v 34.000000 0.000000 290.075000
v 34.000000 6.000000 289.925000
v 50.000000 6.000000 289.925000
v 50.000000 6.000000 290.075000
v 34.000000 6.000000 290.075000
v 66.000000 0.000000 289.925000
v 130.000000 0.000000 289.925000
v 130.000000 0.000000 290.075000
v 66.000000 0.000000 290.075000
v 66.000000 6.000000 289.925000
v 130.000000 6.000000 289.925000
v 130.000000 6.000000 290.075000
v 66.000000 6.000000 290.075000
v 210.000000 0.000000 289.925000
v 226.000000 0.000000 289.925000
v 226.000000 0.000000 290.075000
v 210.000000 0.000000 290.075000
v 210.000000 6.000000 289.925000
v 226.000000 6.000000 289.925000
v 226.000000 6.000000 290.075000
v 210.000000 6.000000 290.075000
v 306.000000 0.000000 289.925000
v 322.000000 0.000000 289.925000
v 322.000000 0.000000 290.075000
v 306.000000 0.000000 290.075000
v 306.000000 6.000000 289.925000
v 322.000000 6.000000 289.925000
v 322.000000 6.000000 290.075000
v 306.000000 6.000000 290.075000
v 50.000000 0.000000 305.925000
v 162.000000 0.000000 305.925000
v 162.000000 0.000000 306.075000
v 50.000000 0.000000 306.075000
v 50.000000 6.000000 305.925000
v 162.000000 6.000000 305.925000
v 162.000000 6.000000 306.075000
v 50.000000 6.000000 306.075000
v 178.000000 0.000000 305.925000
v 242.000000 0.000000 305.925000
v 242.000000 0.000000 306.075000
v 178.000000 0.000000 306.075000
v 178.000000 6.000000 305.925000
v 242.000000 6.000000 305.925000
v 242.000000 6.000000 306.075000
v 178.000000 6.000000 306.075000
v 274.000000 0.000000 305.925000
v 306.000000 0.000000 305.925000
v 306.000000 0.000000 306.075000
v 274.000000 0.000000 306.075000
v 274.000000 6.000000 305.925000
v 306.000000 6.000000 305.925000
v 306.000000 6.000000 306.075000
v 274.000000 6.000000 306.075000
v 2.000000 0.000000 321.925000
v 162.000000 0.000000 321.925000
v 162.000000 0.000000 322.075000
v 2.000000 0.000000 322.075000
v 2.000000 6.000000 321.925000
v 162.000000 6.000000 321.925000
v 162.000000 6.000000 322.075000
v 2.000000 6.000000 322.075000
v 178.000000 0.000000 321.925000
v 322.000000 0.000000 321.925000
v 322.000000 0.000000 322.075000
v 178.000000 0.000000 322.075000
v 178.000000 6.000000 321.925000
v 322.000000 6.000000 321.925000
v 322.000000 6.000000 322.075000
v 178.000000 6.000000 322.075000
v 2.075000 0.000000 2.000000
v 2.075000 0.000000 322.000000
v 1.925000 0.000000 322.000000
v 1.925000 0.000000 2.000000
v 2.075000 6.000000 2.000000
v 2.075000 6.000000 322.000000
v 1.925000 6.000000 322.000000
v 1.925000 6.000000 2.000000
v 18.075000 0.000000 18.000000
v 18.075000 0.000000 34.000000
v 17.925000 0.000000 34.000000
v 17.925000 0.000000 18.000000
v 18.075000 6.000000 18.000000
v 18.075000 6.000000 34.000000
v 17.925000 6.000000 34.000000
v 17.925000 6.000000 18.000000
v 18.075000 0.000000 130.000000
v 18.075000 0.000000 146.000000
v 17.925000 0.000000 146.000000
v 17.925000 0.000000 130.000000
v 18.075000 6.000000 130.000000
v 18.075000 6.000000 146.000000
v 17.925000 6.000000 146.000000
v 17.925000 6.000000 130.000000
v 18.075000 0.000000 162.000000
v 18.075000 0.000000 178.000000
v 17.925000 0.000000 178.000000
v 17.925000 0.000000 162.000000
v 18.075000 6.000000 162.000000
v 18.075000 6.000000 178.000000
v 17.925000 6.000000 178.000000
v 17.925000 6.000000 162.000000
v 18.075000 0.000000 194.000000
v 18.075000 0.000000 210.000000
v 17.925000 0.000000 210.000000
v 17.925000 0.000000 194.000000
v 18.075000 6.000000 194.000000
v 18.075000 6.000000 210.000000
v 17.925000 6.000000 210.000000
v 17.925000 6.000000 194.000000
v 18.075000 0.000000 226.000000
v 18.075000 0.000000 258.000000
v 17.925000 0.000000 258.000000
v 17.925000 0.000000 226.000000
v 18.075000 6.000000 226.000000
v 18.075000 6.000000 258.000000
v 17.925000 6.000000 258.000000
v 17.925000 6.000000 226.000000
v 18.075000 0.000000 274.000000
v 18.075000 0.000000 306.000000
v 17.925000 0.000000 306.000000
v 17.925000 0.000000 274.000000
v 18.075000 6.000000 274.000000
v 18.075000 6.000000 306.000000
v 17.925000 6.000000 306.000000
v 17.925000 6.000000 274.000000
v 34.075000 0.000000 34.000000
v 34.075000 0.000000 82.000000
v 33.925000 0.000000 82.000000
v 33.925000 0.000000 34.000000
v 34.075000 6.000000 34.000000
v 34.075000 6.000000 82.000000
v 33.925000 6.000000 82.000000
v 33.925000 6.000000 34.000000
v 34.075000 0.000000 114.000000
v 34.075000 0.000000 130.000000
v 33.925000 0.000000 130.000000
v 33.925000 0.000000 114.000000
v 34.075000 6.000000 114.000000
v 34.075000 6.000000 130.000000
v 33.925000 6.000000 130.000000
v 33.925000 6.000000 114.000000
v 34.075000 0.000000 178.000000
v 34.075000 0.000000 226.000000
v 33.925000 0.000000 226.000000
v 33.925000 0.000000 178.000000
v 34.075000 6.000000 178.000000
v 34.075000 6.000000 226.000000
v 33.925000 6.000000 226.000000
v 33.925000 6.000000 178.000000
v 34.075000 0.000000 242.000000
v 34.075000 0.000000 274.000000
v 33.925000 0.000000 274.000000
v 33.925000 0.000000 242.000000
v 34.075000 6.000000 242.000000
v 34.075000 6.000000 274.000000
v 33.925000 6.000000 274.000000
v 33.925000 6.000000 242.000000
v 34.075000 0.000000 290.000000
v 34.075000 0.000000 322.000000
v 33.925000 0.000000 322.000000
v 33.925000 0.000000 290.000000
v 34.075000 6.000000 290.000000
v 34.075000 6.000000 322.000000
v 33.925000 6.000000 322.000000
v 33.925000 6.000000 290.000000
v 50.075000 0.000000 18.000000
v 50.075000 0.000000 114.000000
v 49.925000 0.000000 114.000000
v 49.925000 0.000000 18.000000
v 50.075000 6.000000 18.000000
v 50.075000 6.000000 114.000000
v 49.925000 6.000000 114.000000
v 49.925000 6.000000 18.000000
v 50.075000 0.000000 130.000000
v 50.075000 0.000000 178.000000
v 49.925000 0.000000 178.000000
v 49.925000 0.000000 130.000000
v 50.075000 6.000000 130.000000
v 50.075000 6.000000 178.000000
v 49.925000 6.000000 178.000000
v 49.925000 6.000000 130.000000
v 50.075000 0.000000 226.000000
v 50.075000 0.000000 242.000000
v 49.925000 0.000000 242.000000
v 49.925000 0.000000 226.000000
v 50.075000 6.000000 226.000000
v 50.075000 6.000000 242.000000
v 49.925000 6.000000 242.000000
v 49.925000 6.000000 226.000000
v 50.075000 0.000000 258.000000
v 50.075000 0.000000 290.000000
v 49.925000 0.000000 290.000000
v 49.925000 0.000000 258.000000
v 50.075000 6.000000 258.000000
v 50.075000 6.000000 290.000000
v 49.925000 6.000000 290.000000
v 49.925000 6.000000 258.000000
v 66.075000 0.000000 34.000000
v 66.075000 0.000000 50.000000
v 65.925000 0.000000 50.000000
v 65.925000 0.000000 34.000000
v 66.075000 6.000000 34.000000
v 66.075000 6.000000 50.000000
v 65.925000 6.000000 50.000000
v 65.925000 6.000000 34.000000
v 66.075000 0.000000 162.000000
v 66.075000 0.000000 210.000000
v 65.925000 0.000000 210.000000
v 65.925000 0.000000 162.000000
v 66.075000 6.000000 162.000000
v 66.075000 6.000000 210.000000
v 65.925000 6.000000 210.000000
v 65.925000 6.000000 162.000000
v 82.075000 0.000000 18.000000
v 82.075000 0.000000 34.000000
v 81.925000 0.000000 34.000000
v 81.925000 0.000000 18.000000
v 82.075000 6.000000 18.000000
v 82.075000 6.000000 34.000000
v 81.925000 6.000000 34.000000
v 81.925000 6.000000 18.000000
v 82.075000 0.000000 50.000000
v 82.075000 0.000000 66.000000
v 81.925000 0.000000 66.000000
v 81.925000 0.000000 50.000000
v 82.075000 6.000000 50.000000
v 82.075000 6.000000 66.000000
v 81.925000 6.000000 66.000000
v 81.925000 6.000000 50.000000
v 82.075000 0.000000 82.000000
v 82.075000 0.000000 98.000000
v 81.925000 0.000000 98.000000
v 81.925000 0.000000 82.000000
v 82.075000 6.000000 82.000000
v 82.075000 6.000000 98.000000
v 81.925000 6.000000 98.000000
v 81.925000 6.000000 82.000000
v 82.075000 0.000000 114.000000
v 82.075000 0.000000 130.000000
v 81.925000 0.000000 130.000000
v 81.925000 0.000000 114.000000
v 82.075000 6.000000 114.000000
v 82.075000 6.000000 130.000000
v 81.925000 6.000000 130.000000
v 81.925000 6.000000 114.000000
v 82.075000 0.000000 146.000000
v 82.075000 0.000000 162.000000
v 81.925000 0.000000 162.000000
v 81.925000 0.000000 146.000000
v 82.075000 6.000000 146.000000
v 82.075000 6.000000 162.000000
v 81.925000 6.000000 162.000000
v 81.925000 6.000000 146.000000
v 82.075000 0.000000 178.000000
v 82.075000 0.000000 194.000000
v 81.925000 0.000000 194.000000
v 81.925000 0.000000 178.000000
v 82.075000 6.000000 178.000000
v 82.075000 6.000000 194.000000
v 81.925000 6.000000 194.000000
v 81.925000 6.000000 178.000000
v 98.075000 0.000000 18.000000
v 98.075000 0.000000 50.000000
v 97.925000 0.000000 50.000000
v 97.925000 0.000000 18.000000
v 98.075000 6.000000 18.000000
v 98.075000 6.000000 50.000000
v 97.925000 6.000000 50.000000
v 97.925000 6.000000 18.000000
v 98.075000 0.000000 66.000000
v 98.075000 0.000000 82.000000
v 97.925000 0.000000 82.000000
v 97.925000 0.000000 66.000000
v 98.075000 6.000000 66.000000
v 98.075000 6.000000 82.000000
v 97.925000 6.000000 82.000000
v 97.925000 6.000000 66.000000
v 98.075000 0.000000 98.000000
v 98.075000 0.000000 114.000000
v 97.925000 0.000000 114.000000
v 97.925000 0.000000 98.000000
v 98.075000 6.000000 98.000000
v 98.075000 6.000000 114.000000
v 97.925000 6.000000 114.000000
v 97.925000 6.000000 98.000000
v 98.075000 0.000000 162.000000
v 98.075000 0.000000 178.000000
v 97.925000 0.000000 178.000000
v 97.925000 0.000000 162.000000
v 98.075000 6.000000 162.000000
v 98.075000 6.000000 178.000000
v 97.925000 6.000000 178.000000
v 97.925000 6.000000 162.000000
v 98.075000 0.000000 194.000000
v 98.075000 0.000000 210.000000
v 97.925000 0.000000 210.000000
v 97.925000 0.000000 194.000000
v 98.075000 6.000000 194.000000
v 98.075000 6.000000 210.000000
v 97.925000 6.000000 210.000000
v 97.925000 6.000000 194.000000
v 98.075000 0.000000 242.000000
v 98.075000 0.000000 258.000000
v 97.925000 0.000000 258.000000
v 97.925000 0.000000 242.000000
v 98.075000 6.000000 242.000000
v 98.075000 6.000000 258.000000
v 97.925000 6.000000 258.000000
v 97.925000 6.000000 242.000000
v 98.075000 0.000000 274.000000
v 98.075000 0.000000 290.000000
v 97.925000 0.000000 290.000000
v 97.925000 0.000000 274.000000
v 98.075000 6.000000 274.000000
v 98.075000 6.000000 290.000000
v 97.925000 6.000000 290.000000
v 97.925000 6.000000 274.000000
v 114.075000 0.000000 50.000000
v 114.075000 0.000000 66.000000
v 113.925000 0.000000 66.000000
v 113.925000 0.000000 50.000000
v 114.075000 6.000000 50.000000
v 114.075000 6.000000 66.000000
v 113.925000 6.000000 66.000000
v 113.925000 6.000000 50.000000
v 114.075000 0.000000 82.000000
v 114.075000 0.000000 146.000000
v 113.925000 0.000000 146.000000
v 113.925000 0.000000 82.000000
v 114.075000 6.000000 82.000000
v 114.075000 6.000000 146.000000
v 113.925000 6.000000 146.000000
v 113.925000 6.000000 82.000000
v 114.075000 0.000000 162.000000
v 114.075000 0.000000 178.000000
v 113.925000 0.000000 178.000000
v 113.925000 0.000000 162.000000
v 114.075000 6.000000 162.000000
v 114.075000 6.000000 178.000000
v 113.925000 6.000000 178.000000
v 113.925000 6.000000 162.000000
v 114.075000 0.000000 258.000000
v 114.075000 0.000000 274.000000
v 113.925000 0.000000 274.000000
v 113.925000 0.000000 258.000000
v 114.075000 6.000000 258.000000
v 114.075000 6.000000 274.000000
v 113.925000 6.000000 274.000000
v 113.925000 6.000000 258.000000
v 130.075000 0.000000 66.000000
v 130.075000 0.000000 82.000000
v 129.925000 0.000000 82.000000
v 129.925000 0.000000 66.000000
v 130.075000 6.000000 66.000000
v 130.075000 6.000000 82.000000
v 129.925000 6.000000 82.000000
v 129.925000 6.000000 66.000000
v 130.075000 0.000000 130.000000
v 130.075000 0.000000 162.000000
v 129.925000 0.000000 162.000000
v 129.925000 0.000000 130.000000
v 130.075000 6.000000 130.000000
v 130.075000 6.000000 162.000000
v 129.925000 6.000000 162.000000
v 129.925000 6.000000 130.000000
v 130.075000 0.000000 178.000000
v 130.075000 0.000000 226.000000
v 129.925000 0.000000 226.000000
v 129.925000 0.000000 178.000000
v 130.075000 6.000000 178.000000
v 130.075000 6.000000 226.000000
v 129.925000 6.000000 226.000000
v 129.925000 6.000000 178.000000
v 130.075000 0.000000 258.000000
v 130.075000 0.000000 290.000000
v 129.925000 0.000000 290.000000
v 129.925000 0.000000 258.000000
v 130.075000 6.000000 258.000000
v 130.075000 6.000000 290.000000
v 129.925000 6.000000 290.000000
v 129.925000 6.000000 258.000000
v 146.075000 0.000000 34.000000
v 146.075000 0.000000 66.000000
v 145.925000 0.000000 66.000000
v 145.925000 0.000000 34.000000
v 146.075000 6.000000 34.000000
v 146.075000 6.000000 66.000000
v 145.925000 6.000000 66.000000
v 145.925000 6.000000 34.000000
v 146.075000 0.000000 82.000000
v 146.075000 0.000000 98.000000
v 145.925000 0.000000 98.000000
v 145.925000 0.000000 82.000000
v 146.075000 6.000000 82.000000
v 146.075000 6.000000 98.000000
v 145.925000 6.000000 98.000000
v 145.925000 6.000000 82.000000
v 146.075000 0.000000 146.000000
v 146.075000 0.000000 210.000000
v 145.925000 0.000000 210.000000
v 145.925000 0.000000 146.000000
v 146.075000 6.000000 146.000000
v 146.075000 6.000000 210.000000
v 145.925000 6.000000 210.000000
v 145.925000 6.000000 146.000000
v 146.075000 0.000000 242.000000
v 146.075000 0.000000 258.000000
v 145.925000 0.000000 258.000000
v 145.925000 0.000000 242.000000
v 146.075000 6.000000 242.000000
v 146.075000 6.000000 258.000000
v 145.925000 6.000000 258.000000
v 145.925000 6.000000 242.000000
v 146.075000 0.000000 274.000000
v 146.075000 0.000000 290.000000
v 145.925000 0.000000 290.000000
v 145.925000 0.000000 274.000000
v 146.075000 6.000000 274.000000
v 146.075000 6.000000 290.000000
v 145.925000 6.000000 290.000000
v 145.925000 6.000000 274.000000
v 162.075000 0.000000 66.000000
v 162.075000 0.000000 130.000000
v 161.925000 0.000000 130.000000
v 161.925000 0.000000 66.000000
v 162.075000 6.000000 66.000000
v 162.075000 6.000000 130.000000
v 161.925000 6.000000 130.000000
v 161.925000 6.000000 66.000000
v 162.075000 0.000000 146.000000
v 162.075000 0.000000 178.000000
v 161.925000 0.000000 178.000000
v 161.925000 0.000000 146.000000
v 162.075000 6.000000 146.000000
v 162.075000 6.000000 178.000000
v 161.925000 6.000000 178.000000
v 161.925000 6.000000 146.000000
v 162.075000 0.000000 226.000000
v 162.075000 0.000000 322.000000
v 161.925000 0.000000 322.000000
v 161.925000 0.000000 226.000000
v 162.075000 6.000000 226.000000
v 162.075000 6.000000 322.000000
v 161.925000 6.000000 322.000000
v 161.925000 6.000000 226.000000
v 178.075000 0.000000 34.000000
v 178.075000 0.000000 50.000000
v 177.925000 0.000000 50.000000
v 177.925000 0.000000 34.000000
v 178.075000 6.000000 34.000000
v 178.075000 6.000000 50.000000
v 177.925000 6.000000 50.000000
v 177.925000 6.000000 34.000000
v 178.075000 0.000000 82.000000
v 178.075000 0.000000 98.000000
v 177.925000 0.000000 98.000000
v 177.925000 0.000000 82.000000
v 178.075000 6.000000 82.000000
v 178.075000 6.000000 98.000000
v 177.925000 6.000000 98.000000
v 177.925000 6.000000 82.000000
v 178.075000 0.000000 114.000000
v 178.075000 0.000000 130.000000
v 177.925000 0.000000 130.000000
v 177.925000 0.000000 114.000000
v 178.075000 6.000000 114.000000
v 178.075000 6.000000 130.000000
v 177.925000 6.000000 130.000000
v 177.925000 6.000000 114.000000
v 178.075000 0.000000 178.000000
v 178.075000 0.000000 242.000000
v 177.925000 0.000000 242.000000
v 177.925000 0.000000 178.000000
v 178.075000 6.000000 178.000000
v 178.075000 6.000000 242.000000
v 177.925000 6.000000 242.000000
v 177.925000 6.000000 178.000000
v 178.075000 0.000000 274.000000
v 178.075000 0.000000 322.000000
v 177.925000 0.000000 322.000000
v 177.925000 0.000000 274.000000
v 178.075000 6.000000 274.000000
v 178.075000 6.000000 322.000000
v 177.925000 6.000000 322.000000
v 177.925000 6.000000 274.000000
v 194.075000 0.000000 18.000000
v 194.075000 0.000000 34.000000
v 193.925000 0.000000 34.000000
v 193.925000 0.000000 18.000000
v 194.075000 6.000000 18.000000
v 194.075000 6.000000 34.000000
v 193.925000 6.000000 34.000000
v 193.925000 6.000000 18.000000
v 194.075000 0.000000 50.000000
v 194.075000 0.000000 82.000000
v 193.925000 0.000000 82.000000
v 193.925000 0.000000 50.000000
v 194.075000 6.000000 50.000000
v 194.075000 6.000000 82.000000
v 193.925000 6.000000 82.000000
v 193.925000 6.000000 50.000000
v 194.075000 0.000000 98.000000
v 194.075000 0.000000 114.000000
v 193.925000 0.000000 114.000000
v 193.925000 0.000000 98.000000
v 194.075000 6.000000 98.000000
v 194.075000 6.000000 114.000000
v 193.925000 6.000000 114.000000
v 193.925000 6.000000 98.000000
v 194.075000 0.000000 130.000000
v 194.075000 0.000000 146.000000
v 193.925000 0.000000 146.000000
v 193.925000 0.000000 130.000000
v 194.075000 6.000000 130.000000
v 194.075000 6.000000 146.000000
v 193.925000 6.000000 146.000000
v 193.925000 6.000000 130.000000
v 194.075000 0.000000 210.000000
v 194.075000 0.000000 242.000000
v 193.925000 0.000000 242.000000
v 193.925000 0.000000 210.000000
v 194.075000 6.000000 210.000000
v 194.075000 6.000000 242.000000
v 193.925000 6.000000 242.000000
v 193.925000 6.000000 210.000000
v 194.075000 0.000000 258.000000
v 194.075000 0.000000 290.000000
v 193.925000 0.000000 290.000000
v 193.925000 0.000000 258.000000
v 194.075000 6.000000 258.000000
v 194.075000 6.000000 290.000000
v 193.925000 6.000000 290.000000
v 193.925000 6.000000 258.000000
v 210.075000 0.000000 34.000000
v 210.075000 0.000000 66.000000
v 209.925000 0.000000 66.000000
v 209.925000 0.000000 34.000000
v 210.075000 6.000000 34.000000
v 210.075000 6.000000 66.000000
v 209.925000 6.000000 66.000000
v 209.925000 6.000000 34.000000
v 210.075000 0.000000 162.000000
v 210.075000 0.000000 274.000000
v 209.925000 0.000000 274.000000
v 209.925000 0.000000 162.000000
v 210.075000 6.000000 162.000000
v 210.075000 6.000000 274.000000
v 209.925000 6.000000 274.000000
v 209.925000 6.000000 162.000000
v 210.075000 0.000000 290.000000
v 210.075000 0.000000 306.000000
v 209.925000 0.000000 306.000000
v 209.925000 0.000000 290.000000
v 210.075000 6.000000 290.000000
v 210.075000 6.000000 306.000000
v 209.925000 6.000000 306.000000
v 209.925000 6.000000 290.000000
v 226.075000 0.000000 2.000000
v 226.075000 0.000000 34.000000
v 225.925000 0.000000 34.000000
v 225.925000 0.000000 2.000000
v 226.075000 6.000000 2.000000
v 226.075000 6.000000 34.000000
v 225.925000 6.000000 34.000000
v 225.925000 6.000000 2.000000
v 226.075000 0.000000 82.000000
v 226.075000 0.000000 114.000000
v 225.925000 0.000000 114.000000
v 225.925000 0.000000 82.000000
v 226.075000 6.000000 82.000000
v 226.075000 6.000000 114.000000
v 225.925000 6.000000 114.000000
v 225.925000 6.000000 82.000000
v 226.075000 0.000000 146.000000
v 226.075000 0.000000 178.000000
v 225.925000 0.000000 178.000000
v 225.925000 0.000000 146.000000
v 226.075000 6.000000 146.000000
v 226.075000 6.000000 178.000000
v 225.925000 6.000000 178.000000
v 225.925000 6.000000 146.000000
v 226.075000 0.000000 194.000000
v 226.075000 0.000000 210.000000
v 225.925000 0.000000 210.000000
v 225.925000 0.000000 194.000000
v 226.075000 6.000000 194.000000
v 226.075000 6.000000 210.000000
v 225.925000 6.000000 210.000000
v 225.925000 6.000000 194.000000
v 226.075000 0.000000 242.000000
v 226.075000 0.000000 290.000000
v 225.925000 0.000000 290.000000
v 225.925000 0.000000 242.000000
v 226.075000 6.000000 242.000000
v 226.075000 6.000000 290.000000
v 225.925000 6.000000 290.000000
v 225.925000 6.000000 242.000000
v 242.075000 0.000000 18.000000
v 242.075000 0.000000 34.000000
v 241.925000 0.000000 34.000000
v 241.925000 0.000000 18.000000
v 242.075000 6.000000 18.000000
v 242.075000 6.000000 34.000000
v 241.925000 6.000000 34.000000
v 241.925000 6.000000 18.000000
v 242.075000 0.000000 66.000000
v 242.075000 0.000000 98.000000
v 241.925000 0.000000 98.000000
v 241.925000 0.000000 66.000000
v 242.075000 6.000000 66.000000
v 242.075000 6.000000 98.000000
v 241.925000 6.000000 98.000000
v 241.925000 6.000000 66.000000
v 242.075000 0.000000 114.000000
v 242.075000 0.000000 162.000000
v 241.925000 0.000000 162.000000
v 241.925000 0.000000 114.000000
v 242.075000 6.000000 114.000000
v 242.075000 6.000000 162.000000
v 241.925000 6.000000 162.000000
v 241.925000 6.000000 114.000000
v 242.075000 0.000000 194.000000
v 242.075000 0.000000 290.000000
v 241.925000 0.000000 290.000000
v 241.925000 0.000000 194.000000
v 242.075000 6.000000 194.000000
v 242.075000 6.000000 290.000000
v 241.925000 6.000000 290.000000
v 241.925000 6.000000 194.000000
v 258.075000 0.000000 34.000000
v 258.075000 0.000000 50.000000
v 257.925000 0.000000 50.000000
v 257.925000 0.000000 34.000000
v 258.075000 6.000000 34.000000
v 258.075000 6.000000 50.000000
v 257.925000 6.000000 50.000000
v 257.925000 6.000000 34.000000
v 258.075000 0.000000 66.000000
v 258.075000 0.000000 82.000000
v 257.925000 0.000000 82.000000
v 257.925000 0.000000 66.000000
v 258.075000 6.000000 66.000000
v 258.075000 6.000000 82.000000
v 257.925000 6.000000 82.000000
v 257.925000 6.000000 66.000000
v 258.075000 0.000000 98.000000
v 258.075000 0.000000 146.000000
v 257.925000 0.000000 146.000000
v 257.925000 0.000000 98.000000
v 258.075000 6.000000 98.000000
v 258.075000 6.000000 146.000000
v 257.925000 6.000000 146.000000
v 257.925000 6.000000 98.000000
v 258.075000 0.000000 162.000000
v 258.075000 0.000000 210.000000
v 257.925000 0.000000 210.000000
v 257.925000 0.000000 162.000000
v 258.075000 6.000000 162.000000
v 258.075000 6.000000 210.000000
v 257.925000 6.000000 210.000000
v 257.925000 6.000000 162.000000
v 258.075000 0.000000 258.000000
v 258.075000 0.000000 322.000000
v 257.925000 0.000000 322.000000
v 257.925000 0.000000 258.000000
v 258.075000 6.000000 258.000000
v 258.075000 6.000000 322.000000
v 257.925000 6.000000 322.000000
v 257.925000 6.000000 258.000000
v 274.075000 0.000000 50.000000
v 274.075000 0.000000 66.000000
v 273.925000 0.000000 66.000000
v 273.925000 0.000000 50.000000
v 274.075000 6.000000 50.000000
v 274.075000 6.000000 66.000000
v 273.925000 6.000000 66.000000
v 273.925000 6.000000 50.000000
v 274.075000 0.000000 82.000000
v 274.075000 0.000000 98.000000
v 273.925000 0.000000 98.000000
v 273.925000 0.000000 82.000000
v 274.075000 6.000000 82.000000
v 274.075000 6.000000 98.000000
v 273.925000 6.000000 98.000000
v 273.925000 6.000000 82.000000
v 274.075000 0.000000 114.000000
v 274.075000 0.000000 130.000000
v 273.925000 0.000000 130.000000
v 273.925000 0.000000 114.000000
v 274.075000 6.000000 114.000000
v 274.075000 6.000000 130.000000
v 273.925000 6.000000 130.000000
v 273.925000 6.000000 114.000000
v 274.075000 0.000000 146.000000
v 274.075000 0.000000 162.000000
v 273.925000 0.000000 162.000000
v 273.925000 0.000000 146.000000
v 274.075000 6.000000 146.000000
v 274.075000 6.000000 162.000000
v 273.925000 6.000000 162.000000
v 273.925000 6.000000 146.000000
v 274.075000 0.000000 178.000000
v 274.075000 0.000000 194.000000
v 273.925000 0.000000 194.000000
v 273.925000 0.000000 178.000000
v 274.075000 6.000000 178.000000
v 274.075000 6.000000 194.000000
v 273.925000 6.000000 194.000000
v 273.925000 6.000000 178.000000
v 274.075000 0.000000 210.000000
v 274.075000 0.000000 242.000000
v 273.925000 0.000000 242.000000
v 273.925000 0.000000 210.000000
v 274.075000 6.000000 210.000000
v 274.075000 6.000000 242.000000
v 273.925000 6.000000 242.000000
v 273.925000 6.000000 210.000000
v 274.075000 0.000000 258.000000
v 274.075000 0.000000 306.000000
v 273.925000 0.000000 306.000000
v 273.925000 0.000000 258.000000
v 274.075000 6.000000 258.000000
v 274.075000 6.000000 306.000000
v 273.925000 6.000000 306.000000
v 273.925000 6.000000 258.000000
v 290.075000 0.000000 82.000000
v 290.075000 0.000000 114.000000
v 289.925000 0.000000 114.000000
v 289.925000 0.000000 82.000000
v 290.075000 6.000000 82.000000
v 290.075000 6.000000 114.000000
v 289.925000 6.000000 114.000000
v 289.925000 6.000000 82.000000
v 290.075000 0.000000 130.000000
v 290.075000 0.000000 162.000000
v 289.925000 0.000000 162.000000
v 289.925000 0.000000 130.000000
v 290.075000 6.000000 130.000000
v 290.075000 6.000000 162.000000
v 289.925000 6.000000 162.000000
v 289.925000 6.000000 130.000000
v 290.075000 0.000000 226.000000
v 290.075000 0.000000 290.000000
v 289.925000 0.000000 290.000000
v 289.925000 0.000000 226.000000
v 290.075000 6.000000 226.000000
v 290.075000 6.000000 290.000000
v 289.925000 6.000000 290.000000
v 289.925000 6.000000 226.000000
v 306.075000 0.000000 2.000000
v 306.075000 0.000000 34.000000
v 305.925000 0.000000 34.000000
v 305.925000 0.000000 2.000000
v 306.075000 6.000000 2.000000
v 306.075000 6.000000 34.000000
v 305.925000 6.000000 34.000000
v 305.925000 6.000000 2.000000
v 306.075000 0.000000 66.000000
v 306.075000 0.000000 82.000000
v 305.925000 0.000000 82.000000
v 305.925000 0.000000 66.000000
v 306.075000 6.000000 66.000000
v 306.075000 6.000000 82.000000
v 305.925000 6.000000 82.000000
v 305.925000 6.000000 66.000000
v 306.075000 0.000000 98.000000
v 306.075000 0.000000 130.000000
v 305.925000 0.000000 130.000000
v 305.925000 0.000000 98.000000
v 306.075000 6.000000 98.000000
v 306.075000 6.000000 130.000000
v 305.925000 6.000000 130.000000
v 305.925000 6.000000 98.000000
v 306.075000 0.000000 162.000000
v 306.075000 0.000000 178.000000
v 305.925000 0.000000 178.000000
v 305.925000 0.000000 162.000000
v 306.075000 6.000000 162.000000
v 306.075000 6.000000 178.000000
v 305.925000 6.000000 178.000000
v 305.925000 6.000000 162.000000
v 306.075000 0.000000 242.000000
v 306.075000 0.000000 258.000000
v 305.925000 0.000000 258.000000
v 305.925000 0.000000 242.000000
v 306.075000 6.000000 242.000000
v 306.075000 6.000000 258.000000
v 305.925000 6.000000 258.000000
v 305.925000 6.000000 242.000000
v 322.075000 0.000000 2.000000
v 322.075000 0.000000 322.000000
v 321.925000 0.000000 322.000000
v 321.925000 0.000000 2.000000
v 322.075000 6.000000 2.000000
v 322.075000 6.000000 322.000000
v 321.925000 6.000000 322.000000
v 321.925000 6.000000 2.000000

f 1 5 6 2
f 2 6 7 3
f 3 7 8 4
f 4 8 5 1
f 9 13 14 10
f 10 14 15 11
f 11 15 16 12
f 12 16 13 9
f 17 21 22 18
f 18 22 23 19
f 19 23 24 20
f 20 24 21 17
f 25 29 30 26
f 26 30 31 27
f 27 31 32 28
f 28 32 29 25
f 33 37 38 34
f 34 38 39 35
f 35 39 40 36
f 36 40 37 33
f 41 45 46 42
f 42 46 47 43
f 43 47 48 44
f 44 48 45 41
f 49 53 54 50
f 50 54 55 51
f 51 55 56 52
f 52 56 53 49
f 57 61 62 58
f 58 62 63 59
f 59 63 64 60
f 60 64 61 57
f 65 69 70 66
f 66 70 71 67
f 67 71 72 68
f 68 72 69 65
f 73 77 78 74
f 74 78 79 75
f 75 79 80 76
f 76 80 77 73
f 81 85 86 82
f 82 86 87 83
f 83 87 88 84
f 84 88 85 81
f 89 93 94 90
f 90 94 95 91
f 91 95 96 92
f 92 96 93 89
f 97 101 102 98
f 98 102 103 99
f 99 103 104 100
f 100 104 101 97
f 105 109 110 106
f 106 110 111 107
f 107 111 112 108
f 108 112 109 105
f 113 117 118 114
f 114 118 119 115
f 115 119 120 116
f 116 120 117 113
f 121 125 126 122
f 122 126 127 123
f 123 127 128 124
f 124 128 125 121
f 129 133 134 130
f 130 134 135 131
f 131 135 136 132
f 132 136 133 129
f 137 141 142 138
f 138 142 143 139
f 139 143 144 140
f 140 144 141 137
f 145 149 150 146
f 146 150 151 147
f 147 151 152 148
f 148 152 149 145
f 153 157 158 154
f 154 158 159 155
f 155 159 160 156
f 156 160 157 153
f 161 165 166 162
f 162 166 167 163
f 163 167 168 164
f 164 168 165 161
f 169 173 174 170
f 170 174 175 171
f 171 175 176 172
f 172 176 173 169
f 177 181 182 178
f 178 182 183 179
f 179 183 184 180
f 180 184 181 177
f 185 189 190 186
f 186 190 191 187
f 187 191 192 188
f 188 192 189 185
f 193 197 198 194
f 194 198 199 195
f 195 199 200 196
f 196 200 197 193
f 201 205 206 202
f 202 206 207 203
f 203 207 208 204
f 204 208 205 201
f 209 213 214 210
f 210 214 215 211
f 211 215 216 212
f 212 216 213 209
f 217 221 222 218
f 218 222 223 219
f 219 223 224 220
f 220 224 221 217
f 225 229 230 226
f 226 230 231 227
f 227 231 232 228
f 228 232 229 225
f 233 237 238 234
f 234 238 239 235
f 235 239 240 236
f 236 240 237 233
f 241 245 246 242
f 242 246 247 243
f 243 247 248 244
f 244 248 245 241
f 249 253 254 250
f 250 254 255 251
f 251 255 256 252
f 252 256 253 249
f 257 261 262 258
f 258 262 263 259
f 259 263 264 260
f 260 264 261 257
f 265 269 270 266
f 266 270 271 267
f 267 271 272 268
f 268 272 269 265
f 273 277 278 274
f 274 278 279 275
f 275 279 280 276
f 276 280 277 273
f 281 285 286 282
f 282 286 287 283
f 283 287 288 284
f 284 288 285 281
f 289 293 294 290
f 290 294 295 291
f 291 295 296 292
f 292 296 293 289
f 297 301 302 298
f 298 302 303 299
f 299 303 304 300
f 300 304 301 297
f 305 309 310 306
f 306 310 311 307
f 307 311 312 308
f 308 312 309 305
f 313 317 318 314
f 314 318 319 315
f 315 319 320 316
f 316 320 317 313
f 321 325 326 322
f 322 326 327 323
f 323 327 328 324
f 324 328 325 321
f 329 333 334 330
f 330 334 335 331
f 331 335 336 332
f 332 336 333 329
f 337 341 342 338
f 338 342 343 339
f 339 343 344 340
f 340 344 341 337
f 345 349 350 346
f 346 350 351 347
f 347 351 352 348
f 348 352 349 345
f 353 357 358 354
f 354 358 359 355
f 355 359 360 356
f 356 360 357 353
f 361 365 366 362
f 362 366 367 363
f 363 367 368 364
f 364 368 365 361
f 369 373 374 370
f 370 374 375 371
f 371 375 376 372
f 372 376 373 369
f 377 381 382 378
f 378 382 383 379
f 379 383 384 380
f 380 384 381 377
f 385 389 390 386
f 386 390 391 387
f 387 391 392 388
f 388 392 389 385
f 393 397 398 394
f 394 398 399 395
f 395 399 400 396
f 396 400 397 393
f 401 405 406 402
f 402 406 407 403
f 403 407 408 404
f 404 408 405 401
f 409 413 414 410
f 410 414 415 411
f 411 415 416 412
f 412 416 413 409
f 417 421 422 418
f 418 422 423 419
f 419 423 424 420
f 420 424 421 417
f 425 429 430 426
f 426 430 431 427
f 427 431 432 428
f 428 432 429 425
f 433 437 438 434
f 434 438 439 435
f 435 439 440 436
f 436 440 437 433
f 441 445 446 442
f 442 446 447 443
f 443 447 448 444
f 444 448 445 441
f 449 453 454 450
f 450 454 455 451
f 451 455 456 452
f 452 456 453 449
f 457 461 462 458
f 458 462 463 459
f 459 463 464 460
f 460 464 461 457
f 465 469 470 466
f 466 470 471 467
f 467 471 472 468
f 468 472 469 465
f 473 477 478 474
f 474 478 479 475
f 475 479 480 476
f 476 480 477 473
f 481 485 486 482
f 482 486 487 483
f 483 487 488 484
f 484 488 485 481
f 489 493 494 490
f 490 494 495 491
f 491 495 496 492
f 492 496 493 489
f 497 501 502 498
f 498 502 503 499
f 499 503 504 500
f 500 504 501 497
f 505 509 510 506
f 506 510 511 507
f 507 511 512 508
f 508 512 509 505
f 513 517 518 514
f 514 518 519 515
f 515 519 520 516
f 516 520 517 513
f 521 525 526 522
f 522 526 527 523
f 523 527 528 524
f 524 528 525 521
f 529 533 534 530
f 530 534 535 531
f 531 535 536 532
f 532 536 533 529
f 537 541 542 538
f 538 542 543 539
f 539 543 544 540
f 540 544 541 537
f 545 549 550 546
f 546 550 551 547
f 547 551 552 548
f 548 552 549 545
f 553 557 558 554
f 554 558 559 555
f 555 559 560 556
f 556 560 557 553
f 561 565 566 562
f 562 566 567 563
f 563 567 568 564
f 564 568 565 561
f 569 573 574 570
f 570 574 575 571
f 571 575 576 572
f 572 576 573 569
f 577 581 582 578
f 578 582 583 579
f 579 583 584 580
f 580 584 581 577
f 585 589 590 586
f 586 590 591 587
f 587 591 592 588
f 588 592 589 585
f 593 597 598 594
f 594 598 599 595
f 595 599 600 596
f 596 600 597 593
f 601 605 606 602
f 602 606 607 603
f 603 607 608 604
f 604 608 605 601
f 609 613 614 610
f 610 614 615 611
f 611 615 616 612
f 612 616 613 609
f 617 621 622 618
f 618 622 623 619
f 619 623 624 620
f 620 624 621 617
f 625 629 630 626
f 626 630 631 627
f 627 631 632 628
f 628 632 629 625
f 633 637 638 634
f 634 638 639 635
f 635 639 640 636
f 636 640 637 633
f 641 645 646 642
f 642 646 647 643
f 643 647 648 644
f 644 648 645 641
f 649 653 654 650
f 650 654 655 651
f 651 655 656 652
f 652 656 653 649
f 657 661 662 658
f 658 662 663 659
f 659 663 664 660
f 660 664 661 657
f 665 669 670 666
f 666 670 671 667
f 667 671 672 668
f 668 672 669 665
f 673 677 678 674
f 674 678 679 675
f 675 679 680 676
f 676 680 677 673
f 681 685 686 682
f 682 686 687 683
f 683 687 688 684
f 684 688 685 681
f 689 693 694 690
f 690 694 695 691
f 691 695 696 692
f 692 696 693 689
f 697 701 702 698
f 698 702 703 699
f 699 703 704 700
f 700 704 701 697
f 705 709 710 706
f 706 710 711 707
f 707 711 712 708
f 708 712 709 705
f 713 717 718 714
f 714 718 719 715
f 715 719 720 716
f 716 720 717 713
f 721 725 726 722
f 722 726 727 723
f 723 727 728 724
f 724 728 725 721
f 729 733 734 730
f 730 734 735 731
f 731 735 736 732
f 732 736 733 729
f 737 741 742 738
f 738 742 743 739
f 739 743 744 740
f 740 744 741 737
f 745 749 750 746
f 746 750 751 747
f 747 751 752 748
f 748 752 749 745
f 753 757 758 754
f 754 758 759 755
f 755 759 760 756
f 756 760 757 753
f 761 765 766 762
f 762 766 767 763
f 763 767 768 764
f 764 768 765 761
f 769 773 774 770
f 770 774 775 771
f 771 775 776 772
f 772 776 773 769
f 777 781 782 778
f 778 782 783 779
f 779 783 784 780
f 780 784 781 777
f 785 789 790 786
f 786 790 791 787
f 787 791 792 788
f 788 792 789 785
f 793 797 798 794
f 794 798 799 795
f 795 799 800 796
f 796 800 797 793
f 801 805 806 802
f 802 806 807 803
f 803 807 808 804
f 804 808 805 801
f 809 813 814 810
f 810 814 815 811
f 811 815 816 812
f 812 816 813 809
f 817 821 822 818
f 818 822 823 819
f 819 823 824 820
f 820 824 821 817
f 825 829 830 826
f 826 830 831 827
f 827 831 832 828
f 828 832 829 825
f 833 837 838 834
f 834 838 839 835
f 835 839 840 836
f 836 840 837 833
f 841 845 846 842
f 842 846 847 843
f 843 847 848 844
f 844 848 845 841
f 849 853 854 850
f 850 854 855 851
f 851 855 856 852
f 852 856 853 849
f 857 861 862 858
f 858 862 863 859
f 859 863 864 860
f 860 864 861 857
f 865 869 870 866
f 866 870 871 867
f 867 871 872 868
f 868 872 869 865
f 873 877 878 874
f 874 878 879 875
f 875 879 880 876
f 876 880 877 873
f 881 885 886 882
f 882 886 887 883
f 883 887 888 884
f 884 888 885 881
f 889 893 894 890
f 890 894 895 891
f 891 895 896 892
f 892 896 893 889
f 897 901 902 898
f 898 902 903 899
f 899 903 904 900
f 900 904 901 897
f 905 909 910 906
f 906 910 911 907
f 907 911 912 908
f 908 912 909 905
f 913 917 918 914
f 914 918 919 915
f 915 919 920 916
f 916 920 917 913
f 921 925 926 922
f 922 926 927 923
f 923 927 928 924
f 924 928 925 921
f 929 933 934 930
f 930 934 935 931
f 931 935 936 932
f 932 936 933 929
f 937 941 942 938
f 938 942 943 939
f 939 943 944 940
f 940 944 941 937
f 945 949 950 946
f 946 950 951 947
f 947 951 952 948
f 948 952 949 945
f 953 957 958 954
f 954 958 959 955
f 955 959 960 956
f 956 960 957 953
f 961 965 966 962
f 962 966 967 963
f 963 967 968 964
f 964 968 965 961
f 969 973 974 970
f 970 974 975 971
f 971 975 976 972
f 972 976 973 969
f 977 981 982 978
f 978 982 983 979
f 979 983 984 980
f 980 984 981 977
f 985 989 990 986
f 986 990 991 987
f 987 991 992 988
f 988 992 989 985
f 993 997 998 994
f 994 998 999 995
f 995 999 1000 996
f 996 1000 997 993
f 1001 1005 1006 1002
f 1002 1006 1007 1003
f 1003 1007 1008 1004
f 1004 1008 1005 1001
f 1009 1013 1014 1010
f 1010 1014 1015 1011
f 1011 1015 1016 1012
f 1012 1016 1013 1009
f 1017 1021 1022 1018
f 1018 1022 1023 1019
f 1019 1023 1024 1020
f 1020 1024 1021 1017
f 1025 1029 1030 1026
f 1026 1030 1031 1027
f 1027 1031 1032 1028
f 1028 1032 1029 1025
f 1033 1037 1038 1034
f 1034 1038 1039 1035
f 1035 1039 1040 1036
f 1036 1040 1037 1033
f 1041 1045 1046 1042
f 1042 1046 1047 1043
f 1043 1047 1048 1044
f 1044 1048 1045 1041
f 1049 1053 1054 1050
f 1050 1054 1055 1051
f 1051 1055 1056 1052
f 1052 1056 1053 1049
f 1057 1061 1062 1058
f 1058 1062 1063 1059
f 1059 1063 1064 1060
f 1060 1064 1061 1057
f 1065 1069 1070 1066
f 1066 1070 1071 1067
f 1067 1071 1072 1068
f 1068 1072 1069 1065
f 1073 1077 1078 1074
f 1074 1078 1079 1075
f 1075 1079 1080 1076
f 1076 1080 1077 1073
f 1081 1085 1086 1082
f 1082 1086 1087 1083
f 1083 1087 1088 1084
f 1084 1088 1085 1081
f 1089 1093 1094 1090
f 1090 1094 1095 1091
f 1091 1095 1096 1092
f 1092 1096 1093 1089
f 1097 1101 1102 1098
f 1098 1102 1103 1099
f 1099 1103 1104 1100
f 1100 1104 1101 1097
f 1105 1109 1110 1106
f 1106 1110 1111 1107
f 1107 1111 1112 1108
f 1108 1112 1109 1105
f 1113 1117 1118 1114
f 1114 1118 1119 1115
f 1115 1119 1120 1116
f 1116 1120 1117 1113
f 1121 1125 1126 1122
f 1122 1126 1127 1123
f 1123 1127 1128 1124
f 1124 1128 1125 1121
f 1129 1133 1134 1130
f 1130 1134 1135 1131
f 1131 1135 1136 1132
f 1132 1136 1133 1129
f 1137 1141 1142 1138
f 1138 1142 1143 1139
f 1139 1143 1144 1140
f 1140 1144 1141 1137
f 1145 1149 1150 1146
f 1146 1150 1151 1147
f 1147 1151 1152 1148
f 1148 1152 1149 1145
f 1153 1157 1158 1154
f 1154 1158 1159 1155
f 1155 1159 1160 1156
f 1156 1160 1157 1153
f 1161 1165 1166 1162
f 1162 1166 1167 1163
f 1163 1167 1168 1164
f 1164 1168 1165 1161
f 1169 1173 1174 1170
f 1170 1174 1175 1171
f 1171 1175 1176 1172
f 1172 1176 1173 1169
f 1177 1181 1182 1178
f 1178 1182 1183 1179
f 1179 1183 1184 1180
f 1180 1184 1181 1177
f 1185 1189 1190 1186
f 1186 1190 1191 1187
f 1187 1191 1192 1188
f 1188 1192 1189 1185
f 1193 1197 1198 1194
f 1194 1198 1199 1195
f 1195 1199 1200 1196
f 1196 1200 1197 1193
f 1201 1205 1206 1202
f 1202 1206 1207 1203
f 1203 1207 1208 1204
f 1204 1208 1205 1201
f 1209 1213 1214 1210
f 1210 1214 1215 1211
f 1211 1215 1216 1212
f 1212 1216 1213 1209
f 1217 1221 1222 1218
f 1218 1222 1223 1219
f 1219 1223 1224 1220
f 1220 1224 1221 1217
f 1225 1229 1230 1226
f 1226 1230 1231 1227
f 1227 1231 1232 1228
f 1228 1232 1229 1225
f 1233 1237 1238 1234
f 1234 1238 1239 1235
f 1235 1239 1240 1236
f 1236 1240 1237 1233
f 1241 1245 1246 1242
f 1242 1246 1247 1243
f 1243 1247 1248 1244
f 1244 1248 1245 1241
f 1249 1253 1254 1250
f 1250 1254 1255 1251
f 1251 1255 1256 1252
f 1252 1256 1253 1249
f 1257 1261 1262 1258
f 1258 1262 1263 1259
f 1259 1263 1264 1260
f 1260 1264 1261 1257
f 1265 1269 1270 1266
f 1266 1270 1271 1267
f 1267 1271 1272 1268
f 1268 1272 1269 1265
f 1273 1277 1278 1274
f 1274 1278 1279 1275
f 1275 1279 1280 1276
f 1276 1280 1277 1273
f 1281 1285 1286 1282
f 1282 1286 1287 1283
f 1283 1287 1288 1284
f 1284 1288 1285 1281
f 1289 1293 1294 1290
f 1290 1294 1295 1291
f 1291 1295 1296 1292
f 1292 1296 1293 1289
f 1297 1301 1302 1298
f 1298 1302 1303 1299
f 1299 1303 1304 1300
f 1300 1304 1301 1297
f 1305 1309 1310 1306
f 1306 1310 1311 1307
f 1307 1311 1312 1308
f 1308 1312 1309 1305
f 1313 1317 1318 1314
f 1314 1318 1319 1315
f 1315 1319 1320 1316
f 1316 1320 1317 1313
f 1321 1325 1326 1322
f 1322 1326 1327 1323
f 1323 1327 1328 1324
f 1324 1328 1325 1321
f 1329 1333 1334 1330
f 1330 1334 1335 1331
f 1331 1335 1336 1332
f 1332 1336 1333 1329
f 1337 1341 1342 1338
f 1338 1342 1343 1339
f 1339 1343 1344 1340
f 1340 1344 1341 1337
f 1345 1349 1350 1346
f 1346 1350 1351 1347
f 1347 1351 1352 1348
f 1348 1352 1349 1345
f 1353 1357 1358 1354
f 1354 1358 1359 1355
f 1355 1359 1360 1356
f 1356 1360 1357 1353
f 1361 1365 1366 1362
f 1362 1366 1367 1363
f 1363 1367 1368 1364
f 1364 1368 1365 1361
f 1369 1373 1374 1370
f 1370 1374 1375 1371
f 1371 1375 1376 1372
f 1372 1376 1373 1369
f 1377 1381 1382 1378
f 1378 1382 1383 1379
f 1379 1383 1384 1380
f 1380 1384 1381 1377
f 1385 1389 1390 1386
f 1386 1390 1391 1387
f 1387 1391 1392 1388
f 1388 1392 1389 1385
f 1393 1397 1398 1394
f 1394 1398 1399 1395
f 1395 1399 1400 1396
f 1396 1400 1397 1393
f 1401 1405 1406 1402
f 1402 1406 1407 1403
f 1403 1407 1408 1404
f 1404 1408 1405 1401
f 1409 1413 1414 1410
f 1410 1414 1415 1411
f 1411 1415 1416 1412
f 1412 1416 1413 1409
f 1417 1421 1422 1418
f 1418 1422 1423 1419
f 1419 1423 1424 1420
f 1420 1424 1421 1417
f 1425 1429 1430 1426
f 1426 1430 1431 1427
f 1427 1431 1432 1428
f 1428 1432 1429 1425
f 1433 1437 1438 1434
f 1434 1438 1439 1435
f 1435 1439 1440 1436
f 1436 1440 1437 1433
f 1441 1445 1446 1442
f 1442 1446 1447 1443
f 1443 1447 1448 1444
f 1444 1448 1445 1441
f 1449 1453 1454 1450
f 1450 1454 1455 1451
f 1451 1455 1456 1452
f 1452 1456 1453 1449
f 1457 1461 1462 1458
f 1458 1462 1463 1459
f 1459 1463 1464 1460
f 1460 1464 1461 1457
f 1465 1469 1470 1466
f 1466 1470 1471 1467
f 1467 1471 1472 1468
f 1468 1472 1469 1465
f 1473 1477 1478 1474
f 1474 1478 1479 1475
f 1475 1479 1480 1476
f 1476 1480 1477 1473
f 1481 1485 1486 1482
f 1482 1486 1487 1483
f 1483 1487 1488 1484
f 1484 1488 1485 1481
f 1489 1493 1494 1490
f 1490 1494 1495 1491
f 1491 1495 1496 1492
f 1492 1496 1493 1489
f 1497 1501 1502 1498
f 1498 1502 1503 1499
f 1499 1503 1504 1500
f 1500 1504 1501 1497
f 1505 1509 1510 1506
f 1506 1510 1511 1507
f 1507 1511 1512 1508
f 1508 1512 1509 1505
f 1513 1517 1518 1514
f 1514 1518 1519 1515
f 1515 1519 1520 1516
f 1516 1520 1517 1513
f 1521 1525 1526 1522
f 1522 1526 1527 1523
f 1523 1527 1528 1524
f 1524 1528 1525 1521
f 1529 1533 1534 1530
f 1530 1534 1535 1531
f 1531 1535 1536 1532
f 1532 1536 1533 1529
f 1537 1541 1542 1538
f 1538 1542 1543 1539
f 1539 1543 1544 1540
f 1540 1544 1541 1537
f 1545 1549 1550 1546
f 1546 1550 1551 1547
f 1547 1551 1552 1548
f 1548 1552 1549 1545
