# Maze 3D OBJ from SVG lines
# wall_height: 2.0, wall_thickness: 0.15, cell_size: 1.0

v 2.000000 0.000000 2.000000
v 322.000000 0.000000 2.000000
v 322.000000 0.000000 322.000000
v 2.000000 0.000000 322.000000
v 2.000000 0.000000 1.925000
v 146.000000 0.000000 1.925000
v 146.000000 0.000000 2.075000
v 2.000000 0.000000 2.075000
v 2.000000 2.000000 1.925000
v 146.000000 2.000000 1.925000
v 146.000000 2.000000 2.075000
v 2.000000 2.000000 2.075000
v 162.000000 0.000000 1.925000
v 322.000000 0.000000 1.925000
v 322.000000 0.000000 2.075000
v 162.000000 0.000000 2.075000
v 162.000000 2.000000 1.925000
v 322.000000 2.000000 1.925000
v 322.000000 2.000000 2.075000
v 162.000000 2.000000 2.075000
v 18.000000 0.000000 17.925000
v 34.000000 0.000000 17.925000
v 34.000000 0.000000 18.075000
v 18.000000 0.000000 18.075000
v 18.000000 2.000000 17.925000
v 34.000000 2.000000 17.925000
v 34.000000 2.000000 18.075000
v 18.000000 2.000000 18.075000
v 50.000000 0.000000 17.925000
v 66.000000 0.000000 17.925000
v 66.000000 0.000000 18.075000
v 50.000000 0.000000 18.075000
v 50.000000 2.000000 17.925000
v 66.000000 2.000000 17.925000
v 66.000000 2.000000 18.075000
v 50.000000 2.000000 18.075000
v 98.000000 0.000000 17.925000
v 178.000000 0.000000 17.925000
v 178.000000 0.000000 18.075000
v 98.000000 0.000000 18.075000
v 98.000000 2.000000 17.925000
v 178.000000 2.000000 17.925000
v 178.000000 2.000000 18.075000
v 98.000000 2.000000 18.075000
v 194.000000 0.000000 17.925000
v 210.000000 0.000000 17.925000
v 210.000000 0.000000 18.075000
v 194.000000 0.000000 18.075000
v 194.000000 2.000000 17.925000
v 210.000000 2.000000 17.925000
v 210.000000 2.000000 18.075000
v 194.000000 2.000000 18.075000
v 242.000000 0.000000 17.925000
v 290.000000 0.000000 17.925000
v 290.000000 0.000000 18.075000
v 242.000000 0.000000 18.075000
v 242.000000 2.000000 17.925000
v 290.000000 2.000000 17.925000
v 290.000000 2.000000 18.075000
v 242.000000 2.000000 18.075000
v 2.000000 0.000000 33.925000
v 18.000000 0.000000 33.925000
v 18.000000 0.000000 34.075000
v 2.000000 0.000000 34.075000
v 2.000000 2.000000 33.925000
v 18.000000 2.000000 33.925000
v 18.000000 2.000000 34.075000
v 2.000000 2.000000 34.075000
v 34.000000 0.000000 33.925000
v 50.000000 0.000000 33.925000
v 50.000000 0.000000 34.075000
v 34.000000 0.000000 34.075000
v 34.000000 2.000000 33.925000
v 50.000000 2.000000 33.925000
v 50.000000 2.000000 34.075000
v 34.000000 2.000000 34.075000
v 82.000000 0.000000 33.925000
v 98.000000 0.000000 33.925000
v 98.000000 0.000000 34.075000
v 82.000000 0.000000 34.075000
v 82.000000 2.000000 33.925000
v 98.000000 2.000000 33.925000
v 98.000000 2.000000 34.075000
v 82.000000 2.000000 34.075000
v 114.000000 0.000000 33.925000
v 162.000000 0.000000 33.925000
v 162.000000 0.000000 34.075000
v 114.000000 0.000000 34.075000
v 114.000000 2.000000 33.925000
v 162.000000 2.000000 33.925000
v 162.000000 2.000000 34.075000
v 114.000000 2.000000 34.075000
v 178.000000 0.000000 33.925000
v 210.000000 0.000000 33.925000
v 210.000000 0.000000 34.075000
v 178.000000 0.000000 34.075000
v 178.000000 2.000000 33.925000
v 210.000000 2.000000 33.925000
v 210.000000 2.000000 34.075000
v 178.000000 2.000000 34.075000
v 226.000000 0.000000 33.925000
v 242.000000 0.000000 33.925000
v 242.000000 0.000000 34.075000
v 226.000000 0.000000 34.075000
v 226.000000 2.000000 33.925000
v 242.000000 2.000000 33.925000
v 242.000000 2.000000 34.075000
v 226.000000 2.000000 34.075000
v 258.000000 0.000000 33.925000
v 306.000000 0.000000 33.925000
v 306.000000 0.000000 34.075000
v 258.000000 0.000000 34.075000
v 258.000000 2.000000 33.925000
v 306.000000 2.000000 33.925000
v 306.000000 2.000000 34.075000
v 258.000000 2.000000 34.075000
v 18.000000 0.000000 49.925000
v 34.000000 0.000000 49.925000
v 34.000000 0.000000 50.075000
v 18.000000 0.000000 50.075000
v 18.000000 2.000000 49.925000
v 34.000000 2.000000 49.925000
v 34.000000 2.000000 50.075000
v 18.000000 2.000000 50.075000
v 66.000000 0.000000 49.925000
v 82.000000 0.000000 49.925000
v 82.000000 0.000000 50.075000
v 66.000000 0.000000 50.075000
v 66.000000 2.000000 49.925000
v 82.000000 2.000000 49.925000
v 82.000000 2.000000 50.075000
v 66.000000 2.000000 50.075000
v 98.000000 0.000000 49.925000
v 114.000000 0.000000 49.925000
v 114.000000 0.000000 50.075000
v 98.000000 0.000000 50.075000
v 98.000000 2.000000 49.925000
v 114.000000 2.000000 49.925000
v 114.000000 2.000000 50.075000
v 98.000000 2.000000 50.075000
v 130.000000 0.000000 49.925000
v 146.000000 0.000000 49.925000
v 146.000000 0.000000 50.075000
v 130.000000 0.000000 50.075000
v 130.000000 2.000000 49.925000
v 146.000000 2.000000 49.925000
v 146.000000 2.000000 50.075000
v 130.000000 2.000000 50.075000
v 162.000000 0.000000 49.925000
v 178.000000 0.000000 49.925000
v 178.000000 0.000000 50.075000
v 162.000000 0.000000 50.075000
v 162.000000 2.000000 49.925000
v 178.000000 2.000000 49.925000
v 178.000000 2.000000 50.075000
v 162.000000 2.000000 50.075000
v 210.000000 0.000000 49.925000
v 258.000000 0.000000 49.925000
v 258.000000 0.000000 50.075000
v 210.000000 0.000000 50.075000
v 210.000000 2.000000 49.925000
v 258.000000 2.000000 49.925000
v 258.000000 2.000000 50.075000
v 210.000000 2.000000 50.075000
v 274.000000 0.000000 49.925000
v 290.000000 0.000000 49.925000
v 290.000000 0.000000 50.075000
v 274.000000 0.000000 50.075000
v 274.000000 2.000000 49.925000
v 290.000000 2.000000 49.925000
v 290.000000 2.000000 50.075000
v 274.000000 2.000000 50.075000
v 306.000000 0.000000 49.925000
v 322.000000 0.000000 49.925000
v 322.000000 0.000000 50.075000
v 306.000000 0.000000 50.075000
v 306.000000 2.000000 49.925000
v 322.000000 2.000000 49.925000
v 322.000000 2.000000 50.075000
v 306.000000 2.000000 50.075000
v 2.000000 0.000000 65.925000
v 18.000000 0.000000 65.925000
v 18.000000 0.000000 66.075000
v 2.000000 0.000000 66.075000
v 2.000000 2.000000 65.925000
v 18.000000 2.000000 65.925000
v 18.000000 2.000000 66.075000
v 2.000000 2.000000 66.075000
v 66.000000 0.000000 65.925000
v 98.000000 0.000000 65.925000
v 98.000000 0.000000 66.075000
v 66.000000 0.000000 66.075000
v 66.000000 2.000000 65.925000
v 98.000000 2.000000 65.925000
v 98.000000 2.000000 66.075000
v 66.000000 2.000000 66.075000
v 114.000000 0.000000 65.925000
v 130.000000 0.000000 65.925000
v 130.000000 0.000000 66.075000
v 114.000000 0.000000 66.075000
v 114.000000 2.000000 65.925000
v 130.000000 2.000000 65.925000
v 130.000000 2.000000 66.075000
v 114.000000 2.000000 66.075000
v 146.000000 0.000000 65.925000
v 194.000000 0.000000 65.925000
v 194.000000 0.000000 66.075000
v 146.000000 0.000000 66.075000
v 146.000000 2.000000 65.925000
v 194.000000 2.000000 65.925000
v 194.000000 2.000000 66.075000
v 146.000000 2.000000 66.075000
v 226.000000 0.000000 65.925000
v 290.000000 0.000000 65.925000
v 290.000000 0.000000 66.075000
v 226.000000 0.000000 66.075000
v 226.000000 2.000000 65.925000
v 290.000000 2.000000 65.925000
v 290.000000 2.000000 66.075000
v 226.000000 2.000000 66.075000
v 18.000000 0.000000 81.925000
v 34.000000 0.000000 81.925000
v 34.000000 0.000000 82.075000
v 18.000000 0.000000 82.075000
v 18.000000 2.000000 81.925000
v 34.000000 2.000000 81.925000
v 34.000000 2.000000 82.075000
v 18.000000 2.000000 82.075000
v 50.000000 0.000000 81.925000
v 66.000000 0.000000 81.925000
v 66.000000 0.000000 82.075000
v 50.000000 0.000000 82.075000
v 50.000000 2.000000 81.925000
v 66.000000 2.000000 81.925000
v 66.000000 2.000000 82.075000
v 50.000000 2.000000 82.075000
v 98.000000 0.000000 81.925000
v 146.000000 0.000000 81.925000
v 146.000000 0.000000 82.075000
v 98.000000 0.000000 82.075000
v 98.000000 2.000000 81.925000
v 146.000000 2.000000 81.925000
v 146.000000 2.000000 82.075000
v 98.000000 2.000000 82.075000
v 194.000000 0.000000 81.925000
v 226.000000 0.000000 81.925000
v 226.000000 0.000000 82.075000
v 194.000000 0.000000 82.075000
v 194.000000 2.000000 81.925000
v 226.000000 2.000000 81.925000
v 226.000000 2.000000 82.075000
v 194.000000 2.000000 82.075000
v 290.000000 0.000000 81.925000
v 322.000000 0.000000 81.925000
v 322.000000 0.000000 82.075000
v 290.000000 0.000000 82.075000
v 290.000000 2.000000 81.925000
v 322.000000 2.000000 81.925000
v 322.000000 2.000000 82.075000
v 290.000000 2.000000 82.075000
v 2.000000 0.000000 97.925000
v 50.000000 0.000000 97.925000
v 50.000000 0.000000 98.075000
v 2.000000 0.000000 98.075000
v 2.000000 2.000000 97.925000
v 50.000000 2.000000 97.925000
v 50.000000 2.000000 98.075000
v 2.000000 2.000000 98.075000
v 66.000000 0.000000 97.925000
v 98.000000 0.000000 97.925000
v 98.000000 0.000000 98.075000
v 66.000000 0.000000 98.075000
v 66.000000 2.000000 97.925000
v 98.000000 2.000000 97.925000
v 98.000000 2.000000 98.075000
v 66.000000 2.000000 98.075000
v 130.000000 0.000000 97.925000
v 146.000000 0.000000 97.925000
v 146.000000 0.000000 98.075000
v 130.000000 0.000000 98.075000
v 130.000000 2.000000 97.925000
v 146.000000 2.000000 97.925000
v 146.000000 2.000000 98.075000
v 130.000000 2.000000 98.075000
v 178.000000 0.000000 97.925000
v 210.000000 0.000000 97.925000
v 210.000000 0.000000 98.075000
v 178.000000 0.000000 98.075000
v 178.000000 2.000000 97.925000
v 210.000000 2.000000 97.925000
v 210.000000 2.000000 98.075000
v 178.000000 2.000000 98.075000
v 242.000000 0.000000 97.925000
v 274.000000 0.000000 97.925000
v 274.000000 0.000000 98.075000
v 242.000000 0.000000 98.075000
v 242.000000 2.000000 97.925000
v 274.000000 2.000000 97.925000
v 274.000000 2.000000 98.075000
v 242.000000 2.000000 98.075000
v 2.000000 0.000000 113.925000
v 34.000000 0.000000 113.925000
v 34.000000 0.000000 114.075000
v 2.000000 0.000000 114.075000
v 2.000000 2.000000 113.925000
v 34.000000 2.000000 113.925000
v 34.000000 2.000000 114.075000
v 2.000000 2.000000 114.075000
v 50.000000 0.000000 113.925000
v 82.000000 0.000000 113.925000
v 82.000000 0.000000 114.075000
v 50.000000 0.000000 114.075000
v 50.000000 2.000000 113.925000
v 82.000000 2.000000 113.925000
v 82.000000 2.000000 114.075000
v 50.000000 2.000000 114.075000
v 98.000000 0.000000 113.925000
v 146.000000 0.000000 113.925000
v 146.000000 0.000000 114.075000
v 98.000000 0.000000 114.075000
v 98.000000 2.000000 113.925000
v 146.000000 2.000000 113.925000
v 146.000000 2.000000 114.075000
v 98.000000 2.000000 114.075000
v 178.000000 0.000000 113.925000
v 194.000000 0.000000 113.925000
v 194.000000 0.000000 114.075000
v 178.000000 0.000000 114.075000
v 178.000000 2.000000 113.925000
v 194.000000 2.000000 113.925000
v 194.000000 2.000000 114.075000
v 178.000000 2.000000 114.075000
v 210.000000 0.000000 113.925000
v 242.000000 0.000000 113.925000
v 242.000000 0.000000 114.075000
v 210.000000 0.000000 114.075000
v 210.000000 2.000000 113.925000
v 242.000000 2.000000 113.925000
v 242.000000 2.000000 114.075000
v 210.000000 2.000000 114.075000
v 274.000000 0.000000 113.925000
v 290.000000 0.000000 113.925000
v 290.000000 0.000000 114.075000
v 274.000000 0.000000 114.075000
v 274.000000 2.000000 113.925000
v 290.000000 2.000000 113.925000
v 290.000000 2.000000 114.075000
v 274.000000 2.000000 114.075000
v 50.000000 0.000000 129.925000
v 98.000000 0.000000 129.925000
v 98.000000 0.000000 130.075000
v 50.000000 0.000000 130.075000
v 50.000000 2.000000 129.925000
v 98.000000 2.000000 129.925000
v 98.000000 2.000000 130.075000
v 50.000000 2.000000 130.075000
v 130.000000 0.000000 129.925000
v 178.000000 0.000000 129.925000
v 178.000000 0.000000 130.075000
v 130.000000 0.000000 130.075000
v 130.000000 2.000000 129.925000
v 178.000000 2.000000 129.925000
v 178.000000 2.000000 130.075000
v 130.000000 2.000000 130.075000
v 194.000000 0.000000 129.925000
v 226.000000 0.000000 129.925000
v 226.000000 0.000000 130.075000
v 194.000000 0.000000 130.075000
v 194.000000 2.000000 129.925000
v 226.000000 2.000000 129.925000
v 226.000000 2.000000 130.075000
v 194.000000 2.000000 130.075000
v 258.000000 0.000000 129.925000
v 274.000000 0.000000 129.925000
v 274.000000 0.000000 130.075000
v 258.000000 0.000000 130.075000
v 258.000000 2.000000 129.925000
v 274.000000 2.000000 129.925000
v 274.000000 2.000000 130.075000
v 258.000000 2.000000 130.075000
v 290.000000 0.000000 129.925000
v 306.000000 0.000000 129.925000
v 306.000000 0.000000 130.075000
v 290.000000 0.000000 130.075000
v 290.000000 2.000000 129.925000
v 306.000000 2.000000 129.925000
v 306.000000 2.000000 130.075000
v 290.000000 2.000000 130.075000
v 2.000000 0.000000 145.925000
v 18.000000 0.000000 145.925000
v 18.000000 0.000000 146.075000
v 2.000000 0.000000 146.075000
v 2.000000 2.000000 145.925000
v 18.000000 2.000000 145.925000
v 18.000000 2.000000 146.075000
v 2.000000 2.000000 146.075000
v 34.000000 0.000000 145.925000
v 50.000000 0.000000 145.925000
v 50.000000 0.000000 146.075000
v 34.000000 0.000000 146.075000
v 34.000000 2.000000 145.925000
v 50.000000 2.000000 145.925000
v 50.000000 2.000000 146.075000
v 34.000000 2.000000 146.075000
v 66.000000 0.000000 145.925000
v 114.000000 0.000000 145.925000
v 114.000000 0.000000 146.075000
v 66.000000 0.000000 146.075000
v 66.000000 2.000000 145.925000
v 114.000000 2.000000 145.925000
v 114.000000 2.000000 146.075000
v 66.000000 2.000000 146.075000
v 178.000000 0.000000 145.925000
v 226.000000 0.000000 145.925000
v 226.000000 0.000000 146.075000
v 178.000000 0.000000 146.075000
v 178.000000 2.000000 145.925000
v 226.000000 2.000000 145.925000
v 226.000000 2.000000 146.075000
v 178.000000 2.000000 146.075000
v 290.000000 0.000000 145.925000
v 306.000000 0.000000 145.925000
v 306.000000 0.000000 146.075000
v 290.000000 0.000000 146.075000
v 290.000000 2.000000 145.925000
v 306.000000 2.000000 145.925000
v 306.000000 2.000000 146.075000
v 290.000000 2.000000 146.075000
v 18.000000 0.000000 161.925000
v 34.000000 0.000000 161.925000
v 34.000000 0.000000 162.075000
v 18.000000 0.000000 162.075000
v 18.000000 2.000000 161.925000
v 34.000000 2.000000 161.925000
v 34.000000 2.000000 162.075000
v 18.000000 2.000000 162.075000
v 66.000000 0.000000 161.925000
v 82.000000 0.000000 161.925000
v 82.000000 0.000000 162.075000
v 66.000000 0.000000 162.075000
v 66.000000 2.000000 161.925000
v 82.000000 2.000000 161.925000
v 82.000000 2.000000 162.075000
v 66.000000 2.000000 162.075000
v 98.000000 0.000000 161.925000
v 146.000000 0.000000 161.925000
v 146.000000 0.000000 162.075000
v 98.000000 0.000000 162.075000
v 98.000000 2.000000 161.925000
v 146.000000 2.000000 161.925000
v 146.000000 2.000000 162.075000
v 98.000000 2.000000 162.075000
v 162.000000 0.000000 161.925000
v 194.000000 0.000000 161.925000
v 194.000000 0.000000 162.075000
v 162.000000 0.000000 162.075000
v 162.000000 2.000000 161.925000
v 194.000000 2.000000 161.925000
v 194.000000 2.000000 162.075000
v 162.000000 2.000000 162.075000
v 242.000000 0.000000 161.925000
v 290.000000 0.000000 161.925000
v 290.000000 0.000000 162.075000
v 242.000000 0.000000 162.075000
v 242.000000 2.000000 161.925000
v 290.000000 2.000000 161.925000
v 290.000000 2.000000 162.075000
v 242.000000 2.000000 162.075000
v 306.000000 0.000000 161.925000
v 322.000000 0.000000 161.925000
v 322.000000 0.000000 162.075000
v 306.000000 0.000000 162.075000
v 306.000000 2.000000 161.925000
v 322.000000 2.000000 161.925000
v 322.000000 2.000000 162.075000
v 306.000000 2.000000 162.075000
v 18.000000 0.000000 177.925000
v 34.000000 0.000000 177.925000
v 34.000000 0.000000 178.075000
v 18.000000 0.000000 178.075000
v 18.000000 2.000000 177.925000
v 34.000000 2.000000 177.925000
v 34.000000 2.000000 178.075000
v 18.000000 2.000000 178.075000
v 82.000000 0.000000 177.925000
v 98.000000 0.000000 177.925000
v 98.000000 0.000000 178.075000
v 82.000000 0.000000 178.075000
v 82.000000 2.000000 177.925000
v 98.000000 2.000000 177.925000
v 98.000000 2.000000 178.075000
v 82.000000 2.000000 178.075000
v 162.000000 0.000000 177.925000
v 210.000000 0.000000 177.925000
v 210.000000 0.000000 178.075000
v 162.000000 0.000000 178.075000
v 162.000000 2.000000 177.925000
v 210.000000 2.000000 177.925000
v 210.000000 2.000000 178.075000
v 162.000000 2.000000 178.075000
v 226.000000 0.000000 177.925000
v 258.000000 0.000000 177.925000
v 258.000000 0.000000 178.075000
v 226.000000 0.000000 178.075000
v 226.000000 2.000000 177.925000
v 258.000000 2.000000 177.925000
v 258.000000 2.000000 178.075000
v 226.000000 2.000000 178.075000
v 290.000000 0.000000 177.925000
v 306.000000 0.000000 177.925000
v 306.000000 0.000000 178.075000
v 290.000000 0.000000 178.075000
v 290.000000 2.000000 177.925000
v 306.000000 2.000000 177.925000
v 306.000000 2.000000 178.075000
v 290.000000 2.000000 178.075000
v 34.000000 0.000000 193.925000
v 66.000000 0.000000 193.925000
v 66.000000 0.000000 194.075000
v 34.000000 0.000000 194.075000
v 34.000000 2.000000 193.925000
v 66.000000 2.000000 193.925000
v 66.000000 2.000000 194.075000
v 34.000000 2.000000 194.075000
v 98.000000 0.000000 193.925000
v 130.000000 0.000000 193.925000
v 130.000000 0.000000 194.075000
v 98.000000 0.000000 194.075000
v 98.000000 2.000000 193.925000
v 130.000000 2.000000 193.925000
v 130.000000 2.000000 194.075000
v 98.000000 2.000000 194.075000
v 146.000000 0.000000 193.925000
v 162.000000 0.000000 193.925000
v 162.000000 0.000000 194.075000
v 146.000000 0.000000 194.075000
v 146.000000 2.000000 193.925000
v 162.000000 2.000000 193.925000
v 162.000000 2.000000 194.075000
v 146.000000 2.000000 194.075000
v 178.000000 0.000000 193.925000
v 194.000000 0.000000 193.925000
v 194.000000 0.000000 194.075000
v 178.000000 0.000000 194.075000
v 178.000000 2.000000 193.925000
v 194.000000 2.000000 193.925000
v 194.000000 2.000000 194.075000
v 178.000000 2.000000 194.075000
v 210.000000 0.000000 193.925000
v 226.000000 0.000000 193.925000
v 226.000000 0.000000 194.075000
v 210.000000 0.000000 194.075000
v 210.000000 2.000000 193.925000
v 226.000000 2.000000 193.925000
v 226.000000 2.000000 194.075000
v 210.000000 2.000000 194.075000
v 274.000000 0.000000 193.925000
v 322.000000 0.000000 193.925000
v 322.000000 0.000000 194.075000
v 274.000000 0.000000 194.075000
v 274.000000 2.000000 193.925000
v 322.000000 2.000000 193.925000
v 322.000000 2.000000 194.075000
v 274.000000 2.000000 194.075000
v 2.000000 0.000000 209.925000
v 18.000000 0.000000 209.925000
v 18.000000 0.000000 210.075000
v 2.000000 0.000000 210.075000
v 2.000000 2.000000 209.925000
v 18.000000 2.000000 209.925000
v 18.000000 2.000000 210.075000
v 2.000000 2.000000 210.075000
v 34.000000 0.000000 209.925000
v 50.000000 0.000000 209.925000
v 50.000000 0.000000 210.075000
v 34.000000 0.000000 210.075000
v 34.000000 2.000000 209.925000
v 50.000000 2.000000 209.925000
v 50.000000 2.000000 210.075000
v 34.000000 2.000000 210.075000
v 66.000000 0.000000 209.925000
v 114.000000 0.000000 209.925000
v 114.000000 0.000000 210.075000
v 66.000000 0.000000 210.075000
v 66.000000 2.000000 209.925000
v 114.000000 2.000000 209.925000
v 114.000000 2.000000 210.075000
v 66.000000 2.000000 210.075000
v 162.000000 0.000000 209.925000
v 178.000000 0.000000 209.925000
v 178.000000 0.000000 210.075000
v 162.000000 0.000000 210.075000
v 162.000000 2.000000 209.925000
v 178.000000 2.000000 209.925000
v 178.000000 2.000000 210.075000
v 162.000000 2.000000 210.075000
v 258.000000 0.000000 209.925000
v 306.000000 0.000000 209.925000
v 306.000000 0.000000 210.075000
v 258.000000 0.000000 210.075000
v 258.000000 2.000000 209.925000
v 306.000000 2.000000 209.925000
v 306.000000 2.000000 210.075000
v 258.000000 2.000000 210.075000
v 18.000000 0.000000 225.925000
v 34.000000 0.000000 225.925000
v 34.000000 0.000000 226.075000
v 18.000000 0.000000 226.075000
v 18.000000 2.000000 225.925000
v 34.000000 2.000000 225.925000
v 34.000000 2.000000 226.075000
v 18.000000 2.000000 226.075000
v 50.000000 0.000000 225.925000
v 114.000000 0.000000 225.925000
v 114.000000 0.000000 226.075000
v 50.000000 0.000000 226.075000
v 50.000000 2.000000 225.925000
v 114.000000 2.000000 225.925000
v 114.000000 2.000000 226.075000
v 50.000000 2.000000 226.075000
v 130.000000 0.000000 225.925000
v 162.000000 0.000000 225.925000
v 162.000000 0.000000 226.075000
v 130.000000 0.000000 226.075000
v 130.000000 2.000000 225.925000
v 162.000000 2.000000 225.925000
v 162.000000 2.000000 226.075000
v 130.000000 2.000000 226.075000
v 210.000000 0.000000 225.925000
v 258.000000 0.000000 225.925000
v 258.000000 0.000000 226.075000
v 210.000000 0.000000 226.075000
v 210.000000 2.000000 225.925000
v 258.000000 2.000000 225.925000
v 258.000000 2.000000 226.075000
v 210.000000 2.000000 226.075000
v 290.000000 0.000000 225.925000
v 322.000000 0.000000 225.925000
v 322.000000 0.000000 226.075000
v 290.000000 0.000000 226.075000
v 290.000000 2.000000 225.925000
v 322.000000 2.000000 225.925000
v 322.000000 2.000000 226.075000
v 290.000000 2.000000 226.075000
v 34.000000 0.000000 241.925000
v 98.000000 0.000000 241.925000
v 98.000000 0.000000 242.075000
v 34.000000 0.000000 242.075000
v 34.000000 2.000000 241.925000
v 98.000000 2.000000 241.925000
v 98.000000 2.000000 242.075000
v 34.000000 2.000000 242.075000
v 114.000000 0.000000 241.925000
v 146.000000 0.000000 241.925000
v 146.000000 0.000000 242.075000
v 114.000000 0.000000 242.075000
v 114.000000 2.000000 241.925000
v 146.000000 2.000000 241.925000
v 146.000000 2.000000 242.075000
v 114.000000 2.000000 242.075000
v 194.000000 0.000000 241.925000
v 210.000000 0.000000 241.925000
v 210.000000 0.000000 242.075000
v 194.000000 0.000000 242.075000
v 194.000000 2.000000 241.925000
v 210.000000 2.000000 241.925000
v 210.000000 2.000000 242.075000
v 194.000000 2.000000 242.075000
v 242.000000 0.000000 241.925000
v 274.000000 0.000000 241.925000
v 274.000000 0.000000 242.075000
v 242.000000 0.000000 242.075000
v 242.000000 2.000000 241.925000
v 274.000000 2.000000 241.925000
v 274.000000 2.000000 242.075000
v 242.000000 2.000000 242.075000
v 50.000000 0.000000 257.925000
v 82.000000 0.000000 257.925000
v 82.000000 0.000000 258.075000
v 50.000000 0.000000 258.075000
v 50.000000 2.000000 257.925000
v 82.000000 2.000000 257.925000
v 82.000000 2.000000 258.075000
v 50.000000 2.000000 258.075000
v 98.000000 0.000000 257.925000
v 130.000000 0.000000 257.925000
v 130.000000 0.000000 258.075000
v 98.000000 0.000000 258.075000
v 98.000000 2.000000 257.925000
v 130.000000 2.000000 257.925000
v 130.000000 2.000000 258.075000
v 98.000000 2.000000 258.075000
v 146.000000 0.000000 257.925000
v 194.000000 0.000000 257.925000
v 194.000000 0.000000 258.075000
v 146.000000 0.000000 258.075000
v 146.000000 2.000000 257.925000
v 194.000000 2.000000 257.925000
v 194.000000 2.000000 258.075000
v 146.000000 2.000000 258.075000
v 258.000000 0.000000 257.925000
v 274.000000 0.000000 257.925000
v 274.000000 0.000000 258.075000
v 258.000000 0.000000 258.075000
v 258.000000 2.000000 257.925000
v 274.000000 2.000000 257.925000
v 274.000000 2.000000 258.075000
v 258.000000 2.000000 258.075000
v 306.000000 0.000000 257.925000
v 322.000000 0.000000 257.925000
v 322.000000 0.000000 258.075000
v 306.000000 0.000000 258.075000
v 306.000000 2.000000 257.925000
v 322.000000 2.000000 257.925000
v 322.000000 2.000000 258.075000
v 306.000000 2.000000 258.075000
v 2.000000 0.000000 273.925000
v 34.000000 0.000000 273.925000
v 34.000000 0.000000 274.075000
v 2.000000 0.000000 274.075000
v 2.000000 2.000000 273.925000
v 34.000000 2.000000 273.925000
v 34.000000 2.000000 274.075000
v 2.000000 2.000000 274.075000
v 66.000000 0.000000 273.925000
v 98.000000 0.000000 273.925000
v 98.000000 0.000000 274.075000
v 66.000000 0.000000 274.075000
v 66.000000 2.000000 273.925000
v 98.000000 2.000000 273.925000
v 98.000000 2.000000 274.075000
v 66.000000 2.000000 274.075000
v 130.000000 0.000000 273.925000
v 146.000000 0.000000 273.925000
v 146.000000 0.000000 274.075000
v 130.000000 0.000000 274.075000
v 130.000000 2.000000 273.925000
v 146.000000 2.000000 273.925000
v 146.000000 2.000000 274.075000
v 130.000000 2.000000 274.075000
v 194.000000 0.000000 273.925000
v 210.000000 0.000000 273.925000
v 210.000000 0.000000 274.075000
v 194.000000 0.000000 274.075000
v 194.000000 2.000000 273.925000
v 210.000000 2.000000 273.925000
v 210.000000 2.000000 274.075000
v 194.000000 2.000000 274.075000
v 290.000000 0.000000 273.925000
v 306.000000 0.000000 273.925000
v 306.000000 0.000000 274.075000
v 290.000000 0.000000 274.075000
v 290.000000 2.000000 273.925000
v 306.000000 2.000000 273.925000
v 306.000000 2.000000 274.075000
v 290.000000 2.000000 274.075000
v 34.000000 0.000000 289.925000
v 50.000000 0.000000 289.925000
v 50.000000 0.000000 290.075000
v 34.000000 0.000000 290.075000
v 34.000000 2.000000 289.925000
v 50.000000 2.000000 289.925000
v 50.000000 2.000000 290.075000
v 34.000000 2.000000 290.075000
v 66.000000 0.000000 289.925000
v 130.000000 0.000000 289.925000
v 130.000000 0.000000 290.075000
v 66.000000 0.000000 290.075000
v 66.000000 2.000000 289.925000
v 130.000000 2.000000 289.925000
v 130.000000 2.000000 290.075000
v 66.000000 2.000000 290.075000
v 210.000000 0.000000 289.925000
v 226.000000 0.000000 289.925000
v 226.000000 0.000000 290.075000
v 210.000000 0.000000 290.075000
v 210.000000 2.000000 289.925000
v 226.000000 2.000000 289.925000
v 226.000000 2.000000 290.075000
v 210.000000 2.000000 290.075000
v 306.000000 0.000000 289.925000
v 322.000000 0.000000 289.925000
v 322.000000 0.000000 290.075000
v 306.000000 0.000000 290.075000
v 306.000000 2.000000 289.925000
v 322.000000 2.000000 289.925000
v 322.000000 2.000000 290.075000
v 306.000000 2.000000 290.075000
v 50.000000 0.000000 305.925000
v 162.000000 0.000000 305.925000
v 162.000000 0.000000 306.075000
v 50.000000 0.000000 306.075000
v 50.000000 2.000000 305.925000
v 162.000000 2.000000 305.925000
v 162.000000 2.000000 306.075000
v 50.000000 2.000000 306.075000
v 178.000000 0.000000 305.925000
v 242.000000 0.000000 305.925000
v 242.000000 0.000000 306.075000
v 178.000000 0.000000 306.075000
v 178.000000 2.000000 305.925000
v 242.000000 2.000000 305.925000
v 242.000000 2.000000 306.075000
v 178.000000 2.000000 306.075000
v 274.000000 0.000000 305.925000
v 306.000000 0.000000 305.925000
v 306.000000 0.000000 306.075000
v 274.000000 0.000000 306.075000
v 274.000000 2.000000 305.925000
v 306.000000 2.000000 305.925000
v 306.000000 2.000000 306.075000
v 274.000000 2.000000 306.075000
v 2.000000 0.000000 321.925000
v 162.000000 0.000000 321.925000
v 162.000000 0.000000 322.075000
v 2.000000 0.000000 322.075000
v 2.000000 2.000000 321.925000
v 162.000000 2.000000 321.925000
v 162.000000 2.000000 322.075000
v 2.000000 2.000000 322.075000
v 178.000000 0.000000 321.925000
v 322.000000 0.000000 321.925000
v 322.000000 0.000000 322.075000
v 178.000000 0.000000 322.075000
v 178.000000 2.000000 321.925000
v 322.000000 2.000000 321.925000
v 322.000000 2.000000 322.075000
v 178.000000 2.000000 322.075000
v 2.075000 0.000000 2.000000
v 2.075000 0.000000 322.000000
v 1.925000 0.000000 322.000000
v 1.925000 0.000000 2.000000
v 2.075000 2.000000 2.000000
v 2.075000 2.000000 322.000000
v 1.925000 2.000000 322.000000
v 1.925000 2.000000 2.000000
v 18.075000 0.000000 18.000000
v 18.075000 0.000000 34.000000
v 17.925000 0.000000 34.000000
v 17.925000 0.000000 18.000000
v 18.075000 2.000000 18.000000
v 18.075000 2.000000 34.000000
v 17.925000 2.000000 34.000000
v 17.925000 2.000000 18.000000
v 18.075000 0.000000 130.000000
v 18.075000 0.000000 146.000000
v 17.925000 0.000000 146.000000
v 17.925000 0.000000 130.000000
v 18.075000 2.000000 130.000000
v 18.075000 2.000000 146.000000
v 17.925000 2.000000 146.000000
v 17.925000 2.000000 130.000000
v 18.075000 0.000000 162.000000
v 18.075000 0.000000 178.000000
v 17.925000 0.000000 178.000000
v 17.925000 0.000000 162.000000
v 18.075000 2.000000 162.000000
v 18.075000 2.000000 178.000000
v 17.925000 2.000000 178.000000
v 17.925000 2.000000 162.000000
v 18.075000 0.000000 194.000000
v 18.075000 0.000000 210.000000
v 17.925000 0.000000 210.000000
v 17.925000 0.000000 194.000000
v 18.075000 2.000000 194.000000
v 18.075000 2.000000 210.000000
v 17.925000 2.000000 210.000000
v 17.925000 2.000000 194.000000
v 18.075000 0.000000 226.000000
v 18.075000 0.000000 258.000000
v 17.925000 0.000000 258.000000
v 17.925000 0.000000 226.000000
v 18.075000 2.000000 226.000000
v 18.075000 2.000000 258.000000
v 17.925000 2.000000 258.000000
v 17.925000 2.000000 226.000000
v 18.075000 0.000000 274.000000
v 18.075000 0.000000 306.000000
v 17.925000 0.000000 306.000000
v 17.925000 0.000000 274.000000
v 18.075000 2.000000 274.000000
v 18.075000 2.000000 306.000000
v 17.925000 2.000000 306.000000
v 17.925000 2.000000 274.000000
v 34.075000 0.000000 34.000000
v 34.075000 0.000000 82.000000
v 33.925000 0.000000 82.000000
v 33.925000 0.000000 34.000000
v 34.075000 2.000000 34.000000
v 34.075000 2.000000 82.000000
v 33.925000 2.000000 82.000000
v 33.925000 2.000000 34.000000
v 34.075000 0.000000 114.000000
v 34.075000 0.000000 130.000000
v 33.925000 0.000000 130.000000
v 33.925000 0.000000 114.000000
v 34.075000 2.000000 114.000000
v 34.075000 2.000000 130.000000
v 33.925000 2.000000 130.000000
v 33.925000 2.000000 114.000000
v 34.075000 0.000000 178.000000
v 34.075000 0.000000 226.000000
v 33.925000 0.000000 226.000000
v 33.925000 0.000000 178.000000
v 34.075000 2.000000 178.000000
v 34.075000 2.000000 226.000000
v 33.925000 2.000000 226.000000
v 33.925000 2.000000 178.000000
v 34.075000 0.000000 242.000000
v 34.075000 0.000000 274.000000
v 33.925000 0.000000 274.000000
v 33.925000 0.000000 242.000000
v 34.075000 2.000000 242.000000
v 34.075000 2.000000 274.000000
v 33.925000 2.000000 274.000000
v 33.925000 2.000000 242.000000
v 34.075000 0.000000 290.000000
v 34.075000 0.000000 322.000000
v 33.925000 0.000000 322.000000
v 33.925000 0.000000 290.000000
v 34.075000 2.000000 290.000000
v 34.075000 2.000000 322.000000
v 33.925000 2.000000 322.000000
v 33.925000 2.000000 290.000000
v 50.075000 0.000000 18.000000
v 50.075000 0.000000 114.000000
v 49.925000 0.000000 114.000000
v 49.925000 0.000000 18.000000
v 50.075000 2.000000 18.000000
v 50.075000 2.000000 114.000000
v 49.925000 2.000000 114.000000
v 49.925000 2.000000 18.000000
v 50.075000 0.000000 130.000000
v 50.075000 0.000000 178.000000
v 49.925000 0.000000 178.000000
v 49.925000 0.000000 130.000000
v 50.075000 2.000000 130.000000
v 50.075000 2.000000 178.000000
v 49.925000 2.000000 178.000000
v 49.925000 2.000000 130.000000
v 50.075000 0.000000 226.000000
v 50.075000 0.000000 242.000000
v 49.925000 0.000000 242.000000
v 49.925000 0.000000 226.000000
v 50.075000 2.000000 226.000000
v 50.075000 2.000000 242.000000
v 49.925000 2.000000 242.000000
v 49.925000 2.000000 226.000000
v 50.075000 0.000000 258.000000
v 50.075000 0.000000 290.000000
v 49.925000 0.000000 290.000000
v 49.925000 0.000000 258.000000
v 50.075000 2.000000 258.000000
v 50.075000 2.000000 290.000000
v 49.925000 2.000000 290.000000
v 49.925000 2.000000 258.000000
v 66.075000 0.000000 34.000000
v 66.075000 0.000000 50.000000
v 65.925000 0.000000 50.000000
v 65.925000 0.000000 34.000000
v 66.075000 2.000000 34.000000
v 66.075000 2.000000 50.000000
v 65.925000 2.000000 50.000000
v 65.925000 2.000000 34.000000
v 66.075000 0.000000 162.000000
v 66.075000 0.000000 210.000000
v 65.925000 0.000000 210.000000
v 65.925000 0.000000 162.000000
v 66.075000 2.000000 162.000000
v 66.075000 2.000000 210.000000
v 65.925000 2.000000 210.000000
v 65.925000 2.000000 162.000000
v 82.075000 0.000000 18.000000
v 82.075000 0.000000 34.000000
v 81.925000 0.000000 34.000000
v 81.925000 0.000000 18.000000
v 82.075000 2.000000 18.000000
v 82.075000 2.000000 34.000000
v 81.925000 2.000000 34.000000
v 81.925000 2.000000 18.000000
v 82.075000 0.000000 50.000000
v 82.075000 0.000000 66.000000
v 81.925000 0.000000 66.000000
v 81.925000 0.000000 50.000000
v 82.075000 2.000000 50.000000
v 82.075000 2.000000 66.000000
v 81.925000 2.000000 66.000000
v 81.925000 2.000000 50.000000
v 82.075000 0.000000 82.000000
v 82.075000 0.000000 98.000000
v 81.925000 0.000000 98.000000
v 81.925000 0.000000 82.000000
v 82.075000 2.000000 82.000000
v 82.075000 2.000000 98.000000
v 81.925000 2.000000 98.000000
v 81.925000 2.000000 82.000000
v 82.075000 0.000000 114.000000
v 82.075000 0.000000 130.000000
v 81.925000 0.000000 130.000000
v 81.925000 0.000000 114.000000
v 82.075000 2.000000 114.000000
v 82.075000 2.000000 130.000000
v 81.925000 2.000000 130.000000
v 81.925000 2.000000 114.000000
v 82.075000 0.000000 146.000000
v 82.075000 0.000000 162.000000
v 81.925000 0.000000 162.000000
v 81.925000 0.000000 146.000000
v 82.075000 2.000000 146.000000
v 82.075000 2.000000 162.000000
v 81.925000 2.000000 162.000000
v 81.925000 2.000000 146.000000
v 82.075000 0.000000 178.000000
v 82.075000 0.000000 194.000000
v 81.925000 0.000000 194.000000
v 81.925000 0.000000 178.000000
v 82.075000 2.000000 178.000000
v 82.075000 2.000000 194.000000
v 81.925000 2.000000 194.000000
v 81.925000 2.000000 178.000000
v 98.075000 0.000000 18.000000
v 98.075000 0.000000 50.000000
v 97.925000 0.000000 50.000000
v 97.925000 0.000000 18.000000
v 98.075000 2.000000 18.000000
v 98.075000 2.000000 50.000000
v 97.925000 2.000000 50.000000
v 97.925000 2.000000 18.000000
v 98.075000 0.000000 66.000000
v 98.075000 0.000000 82.000000
v 97.925000 0.000000 82.000000
v 97.925000 0.000000 66.000000
v 98.075000 2.000000 66.000000
v 98.075000 2.000000 82.000000
v 97.925000 2.000000 82.000000
v 97.925000 2.000000 66.000000
v 98.075000 0.000000 98.000000
v 98.075000 0.000000 114.000000
v 97.925000 0.000000 114.000000
v 97.925000 0.000000 98.000000
v 98.075000 2.000000 98.000000
v 98.075000 2.000000 114.000000
v 97.925000 2.000000 114.000000
v 97.925000 2.000000 98.000000
v 98.075000 0.000000 162.000000
v 98.075000 0.000000 178.000000
v 97.925000 0.000000 178.000000
v 97.925000 0.000000 162.000000
v 98.075000 2.000000 162.000000
v 98.075000 2.000000 178.000000
v 97.925000 2.000000 178.000000
v 97.925000 2.000000 162.000000
v 98.075000 0.000000 194.000000
v 98.075000 0.000000 210.000000
v 97.925000 0.000000 210.000000
v 97.925000 0.000000 194.000000
v 98.075000 2.000000 194.000000
v 98.075000 2.000000 210.000000
v 97.925000 2.000000 210.000000
v 97.925000 2.000000 194.000000
v 98.075000 0.000000 242.000000
v 98.075000 0.000000 258.000000
v 97.925000 0.000000 258.000000
v 97.925000 0.000000 242.000000
v 98.075000 2.000000 242.000000
v 98.075000 2.000000 258.000000
v 97.925000 2.000000 258.000000
v 97.925000 2.000000 242.000000
v 98.075000 0.000000 274.000000
v 98.075000 0.000000 290.000000
v 97.925000 0.000000 290.000000
v 97.925000 0.000000 274.000000
v 98.075000 2.000000 274.000000
v 98.075000 2.000000 290.000000
v 97.925000 2.000000 290.000000
v 97.925000 2.000000 274.000000
v 114.075000 0.000000 50.000000
v 114.075000 0.000000 66.000000
v 113.925000 0.000000 66.000000
v 113.925000 0.000000 50.000000
v 114.075000 2.000000 50.000000
v 114.075000 2.000000 66.000000
v 113.925000 2.000000 66.000000
v 113.925000 2.000000 50.000000
v 114.075000 0.000000 82.000000
v 114.075000 0.000000 146.000000
v 113.925000 0.000000 146.000000
v 113.925000 0.000000 82.000000
v 114.075000 2.000000 82.000000
v 114.075000 2.000000 146.000000
v 113.925000 2.000000 146.000000
v 113.925000 2.000000 82.000000
v 114.075000 0.000000 162.000000
v 114.075000 0.000000 178.000000
v 113.925000 0.000000 178.000000
v 113.925000 0.000000 162.000000
v 114.075000 2.000000 162.000000
v 114.075000 2.000000 178.000000
v 113.925000 2.000000 178.000000
v 113.925000 2.000000 162.000000
v 114.075000 0.000000 258.000000
v 114.075000 0.000000 274.000000
v 113.925000 0.000000 274.000000
v 113.925000 0.000000 258.000000
v 114.075000 2.000000 258.000000
v 114.075000 2.000000 274.000000
v 113.925000 2.000000 274.000000
v 113.925000 2.000000 258.000000
v 130.075000 0.000000 66.000000
v 130.075000 0.000000 82.000000
v 129.925000 0.000000 82.000000
v 129.925000 0.000000 66.000000
v 130.075000 2.000000 66.000000
v 130.075000 2.000000 82.000000
v 129.925000 2.000000 82.000000
v 129.925000 2.000000 66.000000
v 130.075000 0.000000 130.000000
v 130.075000 0.000000 162.000000
v 129.925000 0.000000 162.000000
v 129.925000 0.000000 130.000000
v 130.075000 2.000000 130.000000
v 130.075000 2.000000 162.000000
v 129.925000 2.000000 162.000000
v 129.925000 2.000000 130.000000
v 130.075000 0.000000 178.000000
v 130.075000 0.000000 226.000000
v 129.925000 0.000000 226.000000
v 129.925000 0.000000 178.000000
v 130.075000 2.000000 178.000000
v 130.075000 2.000000 226.000000
v 129.925000 2.000000 226.000000
v 129.925000 2.000000 178.000000
v 130.075000 0.000000 258.000000
v 130.075000 0.000000 290.000000
v 129.925000 0.000000 290.000000
v 129.925000 0.000000 258.000000
v 130.075000 2.000000 258.000000
v 130.075000 2.000000 290.000000
v 129.925000 2.000000 290.000000
v 129.925000 2.000000 258.000000
v 146.075000 0.000000 34.000000
v 146.075000 0.000000 66.000000
v 145.925000 0.000000 66.000000
v 145.925000 0.000000 34.000000
v 146.075000 2.000000 34.000000
v 146.075000 2.000000 66.000000
v 145.925000 2.000000 66.000000
v 145.925000 2.000000 34.000000
v 146.075000 0.000000 82.000000
v 146.075000 0.000000 98.000000
v 145.925000 0.000000 98.000000
v 145.925000 0.000000 82.000000
v 146.075000 2.000000 82.000000
v 146.075000 2.000000 98.000000
v 145.925000 2.000000 98.000000
v 145.925000 2.000000 82.000000
v 146.075000 0.000000 146.000000
v 146.075000 0.000000 210.000000
v 145.925000 0.000000 210.000000
v 145.925000 0.000000 146.000000
v 146.075000 2.000000 146.000000
v 146.075000 2.000000 210.000000
v 145.925000 2.000000 210.000000
v 145.925000 2.000000 146.000000
v 146.075000 0.000000 242.000000
v 146.075000 0.000000 258.000000
v 145.925000 0.000000 258.000000
v 145.925000 0.000000 242.000000
v 146.075000 2.000000 242.000000
v 146.075000 2.000000 258.000000
v 145.925000 2.000000 258.000000
v 145.925000 2.000000 242.000000
v 146.075000 0.000000 274.000000
v 146.075000 0.000000 290.000000
v 145.925000 0.000000 290.000000
v 145.925000 0.000000 274.000000
v 146.075000 2.000000 274.000000
v 146.075000 2.000000 290.000000
v 145.925000 2.000000 290.000000
v 145.925000 2.000000 274.000000
v 162.075000 0.000000 66.000000
v 162.075000 0.000000 130.000000
v 161.925000 0.000000 130.000000
v 161.925000 0.000000 66.000000
v 162.075000 2.000000 66.000000
v 162.075000 2.000000 130.000000
v 161.925000 2.000000 130.000000
v 161.925000 2.000000 66.000000
v 162.075000 0.000000 146.000000
v 162.075000 0.000000 178.000000
v 161.925000 0.000000 178.000000
v 161.925000 0.000000 146.000000
v 162.075000 2.000000 146.000000
v 162.075000 2.000000 178.000000
v 161.925000 2.000000 178.000000
v 161.925000 2.000000 146.000000
v 162.075000 0.000000 226.000000
v 162.075000 0.000000 322.000000
v 161.925000 0.000000 322.000000
v 161.925000 0.000000 226.000000
v 162.075000 2.000000 226.000000
v 162.075000 2.000000 322.000000
v 161.925000 2.000000 322.000000
v 161.925000 2.000000 226.000000
v 178.075000 0.000000 34.000000
v 178.075000 0.000000 50.000000
v 177.925000 0.000000 50.000000
v 177.925000 0.000000 34.000000
v 178.075000 2.000000 34.000000
v 178.075000 2.000000 50.000000
v 177.925000 2.000000 50.000000
v 177.925000 2.000000 34.000000
v 178.075000 0.000000 82.000000
v 178.075000 0.000000 98.000000
v 177.925000 0.000000 98.000000
v 177.925000 0.000000 82.000000
v 178.075000 2.000000 82.000000
v 178.075000 2.000000 98.000000
v 177.925000 2.000000 98.000000
v 177.925000 2.000000 82.000000
v 178.075000 0.000000 114.000000
v 178.075000 0.000000 130.000000
v 177.925000 0.000000 130.000000
v 177.925000 0.000000 114.000000
v 178.075000 2.000000 114.000000
v 178.075000 2.000000 130.000000
v 177.925000 2.000000 130.000000
v 177.925000 2.000000 114.000000
v 178.075000 0.000000 178.000000
v 178.075000 0.000000 242.000000
v 177.925000 0.000000 242.000000
v 177.925000 0.000000 178.000000
v 178.075000 2.000000 178.000000
v 178.075000 2.000000 242.000000
v 177.925000 2.000000 242.000000
v 177.925000 2.000000 178.000000
v 178.075000 0.000000 274.000000
v 178.075000 0.000000 322.000000
v 177.925000 0.000000 322.000000
v 177.925000 0.000000 274.000000
v 178.075000 2.000000 274.000000
v 178.075000 2.000000 322.000000
v 177.925000 2.000000 322.000000
v 177.925000 2.000000 274.000000
v 194.075000 0.000000 18.000000
v 194.075000 0.000000 34.000000
v 193.925000 0.000000 34.000000
v 193.925000 0.000000 18.000000
v 194.075000 2.000000 18.000000
v 194.075000 2.000000 34.000000
v 193.925000 2.000000 34.000000
v 193.925000 2.000000 18.000000
v 194.075000 0.000000 50.000000
v 194.075000 0.000000 82.000000
v 193.925000 0.000000 82.000000
v 193.925000 0.000000 50.000000
v 194.075000 2.000000 50.000000
v 194.075000 2.000000 82.000000
v 193.925000 2.000000 82.000000
v 193.925000 2.000000 50.000000
v 194.075000 0.000000 98.000000
v 194.075000 0.000000 114.000000
v 193.925000 0.000000 114.000000
v 193.925000 0.000000 98.000000
v 194.075000 2.000000 98.000000
v 194.075000 2.000000 114.000000
v 193.925000 2.000000 114.000000
v 193.925000 2.000000 98.000000
v 194.075000 0.000000 130.000000
v 194.075000 0.000000 146.000000
v 193.925000 0.000000 146.000000
v 193.925000 0.000000 130.000000
v 194.075000 2.000000 130.000000
v 194.075000 2.000000 146.000000
v 193.925000 2.000000 146.000000
v 193.925000 2.000000 130.000000
v 194.075000 0.000000 210.000000
v 194.075000 0.000000 242.000000
v 193.925000 0.000000 242.000000
v 193.925000 0.000000 210.000000
v 194.075000 2.000000 210.000000
v 194.075000 2.000000 242.000000
v 193.925000 2.000000 242.000000
v 193.925000 2.000000 210.000000
v 194.075000 0.000000 258.000000
v 194.075000 0.000000 290.000000
v 193.925000 0.000000 290.000000
v 193.925000 0.000000 258.000000
v 194.075000 2.000000 258.000000
v 194.075000 2.000000 290.000000
v 193.925000 2.000000 290.000000
v 193.925000 2.000000 258.000000
v 210.075000 0.000000 34.000000
v 210.075000 0.000000 66.000000
v 209.925000 0.000000 66.000000
v 209.925000 0.000000 34.000000
v 210.075000 2.000000 34.000000
v 210.075000 2.000000 66.000000
v 209.925000 2.000000 66.000000
v 209.925000 2.000000 34.000000
v 210.075000 0.000000 162.000000
v 210.075000 0.000000 274.000000
v 209.925000 0.000000 274.000000
v 209.925000 0.000000 162.000000
v 210.075000 2.000000 162.000000
v 210.075000 2.000000 274.000000
v 209.925000 2.000000 274.000000
v 209.925000 2.000000 162.000000
v 210.075000 0.000000 290.000000
v 210.075000 0.000000 306.000000
v 209.925000 0.000000 306.000000
v 209.925000 0.000000 290.000000
v 210.075000 2.000000 290.000000
v 210.075000 2.000000 306.000000
v 209.925000 2.000000 306.000000
v 209.925000 2.000000 290.000000
v 226.075000 0.000000 2.000000
v 226.075000 0.000000 34.000000
v 225.925000 0.000000 34.000000
v 225.925000 0.000000 2.000000
v 226.075000 2.000000 2.000000
v 226.075000 2.000000 34.000000
v 225.925000 2.000000 34.000000
v 225.925000 2.000000 2.000000
v 226.075000 0.000000 82.000000
v 226.075000 0.000000 114.000000
v 225.925000 0.000000 114.000000
v 225.925000 0.000000 82.000000
v 226.075000 2.000000 82.000000
v 226.075000 2.000000 114.000000
v 225.925000 2.000000 114.000000
v 225.925000 2.000000 82.000000
v 226.075000 0.000000 146.000000
v 226.075000 0.000000 178.000000
v 225.925000 0.000000 178.000000
v 225.925000 0.000000 146.000000
v 226.075000 2.000000 146.000000
v 226.075000 2.000000 178.000000
v 225.925000 2.000000 178.000000
v 225.925000 2.000000 146.000000
v 226.075000 0.000000 194.000000
v 226.075000 0.000000 210.000000
v 225.925000 0.000000 210.000000
v 225.925000 0.000000 194.000000
v 226.075000 2.000000 194.000000
v 226.075000 2.000000 210.000000
v 225.925000 2.000000 210.000000
v 225.925000 2.000000 194.000000
v 226.075000 0.000000 242.000000
v 226.075000 0.000000 290.000000
v 225.925000 0.000000 290.000000
v 225.925000 0.000000 242.000000
v 226.075000 2.000000 242.000000
v 226.075000 2.000000 290.000000
v 225.925000 2.000000 290.000000
v 225.925000 2.000000 242.000000
v 242.075000 0.000000 18.000000
v 242.075000 0.000000 34.000000
v 241.925000 0.000000 34.000000
v 241.925000 0.000000 18.000000
v 242.075000 2.000000 18.000000
v 242.075000 2.000000 34.000000
v 241.925000 2.000000 34.000000
v 241.925000 2.000000 18.000000
v 242.075000 0.000000 66.000000
v 242.075000 0.000000 98.000000
v 241.925000 0.000000 98.000000
v 241.925000 0.000000 66.000000
v 242.075000 2.000000 66.000000
v 242.075000 2.000000 98.000000
v 241.925000 2.000000 98.000000
v 241.925000 2.000000 66.000000
v 242.075000 0.000000 114.000000
v 242.075000 0.000000 162.000000
v 241.925000 0.000000 162.000000
v 241.925000 0.000000 114.000000
v 242.075000 2.000000 114.000000
v 242.075000 2.000000 162.000000
v 241.925000 2.000000 162.000000
v 241.925000 2.000000 114.000000
v 242.075000 0.000000 194.000000
v 242.075000 0.000000 290.000000
v 241.925000 0.000000 290.000000
v 241.925000 0.000000 194.000000
v 242.075000 2.000000 194.000000
v 242.075000 2.000000 290.000000
v 241.925000 2.000000 290.000000
v 241.925000 2.000000 194.000000
v 258.075000 0.000000 34.000000
v 258.075000 0.000000 50.000000
v 257.925000 0.000000 50.000000
v 257.925000 0.000000 34.000000
v 258.075000 2.000000 34.000000
v 258.075000 2.000000 50.000000
v 257.925000 2.000000 50.000000
v 257.925000 2.000000 34.000000
v 258.075000 0.000000 66.000000
v 258.075000 0.000000 82.000000
v 257.925000 0.000000 82.000000
v 257.925000 0.000000 66.000000
v 258.075000 2.000000 66.000000
v 258.075000 2.000000 82.000000
v 257.925000 2.000000 82.000000
v 257.925000 2.000000 66.000000
v 258.075000 0.000000 98.000000
v 258.075000 0.000000 146.000000
v 257.925000 0.000000 146.000000
v 257.925000 0.000000 98.000000
v 258.075000 2.000000 98.000000
v 258.075000 2.000000 146.000000
v 257.925000 2.000000 146.000000
v 257.925000 2.000000 98.000000
v 258.075000 0.000000 162.000000
v 258.075000 0.000000 210.000000
v 257.925000 0.000000 210.000000
v 257.925000 0.000000 162.000000
v 258.075000 2.000000 162.000000
v 258.075000 2.000000 210.000000
v 257.925000 2.000000 210.000000
v 257.925000 2.000000 162.000000
v 258.075000 0.000000 258.000000
v 258.075000 0.000000 322.000000
v 257.925000 0.000000 322.000000
v 257.925000 0.000000 258.000000
v 258.075000 2.000000 258.000000
v 258.075000 2.000000 322.000000
v 257.925000 2.000000 322.000000
v 257.925000 2.000000 258.000000
v 274.075000 0.000000 50.000000
v 274.075000 0.000000 66.000000
v 273.925000 0.000000 66.000000
v 273.925000 0.000000 50.000000
v 274.075000 2.000000 50.000000
v 274.075000 2.000000 66.000000
v 273.925000 2.000000 66.000000
v 273.925000 2.000000 50.000000
v 274.075000 0.000000 82.000000
v 274.075000 0.000000 98.000000
v 273.925000 0.000000 98.000000
v 273.925000 0.000000 82.000000
v 274.075000 2.000000 82.000000
v 274.075000 2.000000 98.000000
v 273.925000 2.000000 98.000000
v 273.925000 2.000000 82.000000
v 274.075000 0.000000 114.000000
v 274.075000 0.000000 130.000000
v 273.925000 0.000000 130.000000
v 273.925000 0.000000 114.000000
v 274.075000 2.000000 114.000000
v 274.075000 2.000000 130.000000
v 273.925000 2.000000 130.000000
v 273.925000 2.000000 114.000000
v 274.075000 0.000000 146.000000
v 274.075000 0.000000 162.000000
v 273.925000 0.000000 162.000000
v 273.925000 0.000000 146.000000
v 274.075000 2.000000 146.000000
v 274.075000 2.000000 162.000000
v 273.925000 2.000000 162.000000
v 273.925000 2.000000 146.000000
v 274.075000 0.000000 178.000000
v 274.075000 0.000000 194.000000
v 273.925000 0.000000 194.000000
v 273.925000 0.000000 178.000000
v 274.075000 2.000000 178.000000
v 274.075000 2.000000 194.000000
v 273.925000 2.000000 194.000000
v 273.925000 2.000000 178.000000
v 274.075000 0.000000 210.000000
v 274.075000 0.000000 242.000000
v 273.925000 0.000000 242.000000
v 273.925000 0.000000 210.000000
v 274.075000 2.000000 210.000000
v 274.075000 2.000000 242.000000
v 273.925000 2.000000 242.000000
v 273.925000 2.000000 210.000000
v 274.075000 0.000000 258.000000
v 274.075000 0.000000 306.000000
v 273.925000 0.000000 306.000000
v 273.925000 0.000000 258.000000
v 274.075000 2.000000 258.000000
v 274.075000 2.000000 306.000000
v 273.925000 2.000000 306.000000
v 273.925000 2.000000 258.000000
v 290.075000 0.000000 82.000000
v 290.075000 0.000000 114.000000
v 289.925000 0.000000 114.000000
v 289.925000 0.000000 82.000000
v 290.075000 2.000000 82.000000
v 290.075000 2.000000 114.000000
v 289.925000 2.000000 114.000000
v 289.925000 2.000000 82.000000
v 290.075000 0.000000 130.000000
v 290.075000 0.000000 162.000000
v 289.925000 0.000000 162.000000
v 289.925000 0.000000 130.000000
v 290.075000 2.000000 130.000000
v 290.075000 2.000000 162.000000
v 289.925000 2.000000 162.000000
v 289.925000 2.000000 130.000000
v 290.075000 0.000000 226.000000
v 290.075000 0.000000 290.000000
v 289.925000 0.000000 290.000000
v 289.925000 0.000000 226.000000
v 290.075000 2.000000 226.000000
v 290.075000 2.000000 290.000000
v 289.925000 2.000000 290.000000
v 289.925000 2.000000 226.000000
v 306.075000 0.000000 2.000000
v 306.075000 0.000000 34.000000
v 305.925000 0.000000 34.000000
v 305.925000 0.000000 2.000000
v 306.075000 2.000000 2.000000
v 306.075000 2.000000 34.000000
v 305.925000 2.000000 34.000000
v 305.925000 2.000000 2.000000
v 306.075000 0.000000 66.000000
v 306.075000 0.000000 82.000000
v 305.925000 0.000000 82.000000
v 305.925000 0.000000 66.000000
v 306.075000 2.000000 66.000000
v 306.075000 2.000000 82.000000
v 305.925000 2.000000 82.000000
v 305.925000 2.000000 66.000000
v 306.075000 0.000000 98.000000
v 306.075000 0.000000 130.000000
v 305.925000 0.000000 130.000000
v 305.925000 0.000000 98.000000
v 306.075000 2.000000 98.000000
v 306.075000 2.000000 130.000000
v 305.925000 2.000000 130.000000
v 305.925000 2.000000 98.000000
v 306.075000 0.000000 162.000000
v 306.075000 0.000000 178.000000
v 305.925000 0.000000 178.000000
v 305.925000 0.000000 162.000000
v 306.075000 2.000000 162.000000
v 306.075000 2.000000 178.000000
v 305.925000 2.000000 178.000000
v 305.925000 2.000000 162.000000
v 306.075000 0.000000 242.000000
v 306.075000 0.000000 258.000000
v 305.925000 0.000000 258.000000
v 305.925000 0.000000 242.000000
v 306.075000 2.000000 242.000000
v 306.075000 2.000000 258.000000
v 305.925000 2.000000 258.000000
v 305.925000 2.000000 242.000000
v 322.075000 0.000000 2.000000
v 322.075000 0.000000 322.000000
v 321.925000 0.000000 322.000000
v 321.925000 0.000000 2.000000
v 322.075000 2.000000 2.000000
v 322.075000 2.000000 322.000000
v 321.925000 2.000000 322.000000
v 321.925000 2.000000 2.000000

f 1 4 3 2
f 5 6 7 8
f 9 12 11 10
f 5 9 10 6
f 6 10 11 7
f 7 11 12 8
f 8 12 9 5
f 13 14 15 16
f 17 20 19 18
f 13 17 18 14
f 14 18 19 15
f 15 19 20 16
f 16 20 17 13
f 21 22 23 24
f 25 28 27 26
f 21 25 26 22
f 22 26 27 23
f 23 27 28 24
f 24 28 25 21
f 29 30 31 32
f 33 36 35 34
f 29 33 34 30
f 30 34 35 31
f 31 35 36 32
f 32 36 33 29
f 37 38 39 40
f 41 44 43 42
f 37 41 42 38
f 38 42 43 39
f 39 43 44 40
f 40 44 41 37
f 45 46 47 48
f 49 52 51 50
f 45 49 50 46
f 46 50 51 47
f 47 51 52 48
f 48 52 49 45
f 53 54 55 56
f 57 60 59 58
f 53 57 58 54
f 54 58 59 55
f 55 59 60 56
f 56 60 57 53
f 61 62 63 64
f 65 68 67 66
f 61 65 66 62
f 62 66 67 63
f 63 67 68 64
f 64 68 65 61
f 69 70 71 72
f 73 76 75 74
f 69 73 74 70
f 70 74 75 71
f 71 75 76 72
f 72 76 73 69
f 77 78 79 80
f 81 84 83 82
f 77 81 82 78
f 78 82 83 79
f 79 83 84 80
f 80 84 81 77
f 85 86 87 88
f 89 92 91 90
f 85 89 90 86
f 86 90 91 87
f 87 91 92 88
f 88 92 89 85
f 93 94 95 96
f 97 100 99 98
f 93 97 98 94
f 94 98 99 95
f 95 99 100 96
f 96 100 97 93
f 101 102 103 104
f 105 108 107 106
f 101 105 106 102
f 102 106 107 103
f 103 107 108 104
f 104 108 105 101
f 109 110 111 112
f 113 116 115 114
f 109 113 114 110
f 110 114 115 111
f 111 115 116 112
f 112 116 113 109
f 117 118 119 120
f 121 124 123 122
f 117 121 122 118
f 118 122 123 119
f 119 123 124 120
f 120 124 121 117
f 125 126 127 128
f 129 132 131 130
f 125 129 130 126
f 126 130 131 127
f 127 131 132 128
f 128 132 129 125
f 133 134 135 136
f 137 140 139 138
f 133 137 138 134
f 134 138 139 135
f 135 139 140 136
f 136 140 137 133
f 141 142 143 144
f 145 148 147 146
f 141 145 146 142
f 142 146 147 143
f 143 147 148 144
f 144 148 145 141
f 149 150 151 152
f 153 156 155 154
f 149 153 154 150
f 150 154 155 151
f 151 155 156 152
f 152 156 153 149
f 157 158 159 160
f 161 164 163 162
f 157 161 162 158
f 158 162 163 159
f 159 163 164 160
f 160 164 161 157
f 165 166 167 168
f 169 172 171 170
f 165 169 170 166
f 166 170 171 167
f 167 171 172 168
f 168 172 169 165
f 173 174 175 176
f 177 180 179 178
f 173 177 178 174
f 174 178 179 175
f 175 179 180 176
f 176 180 177 173
f 181 182 183 184
f 185 188 187 186
f 181 185 186 182
f 182 186 187 183
f 183 187 188 184
f 184 188 185 181
f 189 190 191 192
f 193 196 195 194
f 189 193 194 190
f 190 194 195 191
f 191 195 196 192
f 192 196 193 189
f 197 198 199 200
f 201 204 203 202
f 197 201 202 198
f 198 202 203 199
f 199 203 204 200
f 200 204 201 197
f 205 206 207 208
f 209 212 211 210
f 205 209 210 206
f 206 210 211 207
f 207 211 212 208
f 208 212 209 205
f 213 214 215 216
f 217 220 219 218
f 213 217 218 214
f 214 218 219 215
f 215 219 220 216
f 216 220 217 213
f 221 222 223 224
f 225 228 227 226
f 221 225 226 222
f 222 226 227 223
f 223 227 228 224
f 224 228 225 221
f 229 230 231 232
f 233 236 235 234
f 229 233 234 230
f 230 234 235 231
f 231 235 236 232
f 232 236 233 229
f 237 238 239 240
f 241 244 243 242
f 237 241 242 238
f 238 242 243 239
f 239 243 244 240
f 240 244 241 237
f 245 246 247 248
f 249 252 251 250
f 245 249 250 246
f 246 250 251 247
f 247 251 252 248
f 248 252 249 245
f 253 254 255 256
f 257 260 259 258
f 253 257 258 254
f 254 258 259 255
f 255 259 260 256
f 256 260 257 253
f 261 262 263 264
f 265 268 267 266
f 261 265 266 262
f 262 266 267 263
f 263 267 268 264
f 264 268 265 261
f 269 270 271 272
f 273 276 275 274
f 269 273 274 270
f 270 274 275 271
f 271 275 276 272
f 272 276 273 269
f 277 278 279 280
f 281 284 283 282
f 277 281 282 278
f 278 282 283 279
f 279 283 284 280
f 280 284 281 277
f 285 286 287 288
f 289 292 291 290
f 285 289 290 286
f 286 290 291 287
f 287 291 292 288
f 288 292 289 285
f 293 294 295 296
f 297 300 299 298
f 293 297 298 294
f 294 298 299 295
f 295 299 300 296
f 296 300 297 293
f 301 302 303 304
f 305 308 307 306
f 301 305 306 302
f 302 306 307 303
f 303 307 308 304
f 304 308 305 301
f 309 310 311 312
f 313 316 315 314
f 309 313 314 310
f 310 314 315 311
f 311 315 316 312
f 312 316 313 309
f 317 318 319 320
f 321 324 323 322
f 317 321 322 318
f 318 322 323 319
f 319 323 324 320
f 320 324 321 317
f 325 326 327 328
f 329 332 331 330
f 325 329 330 326
f 326 330 331 327
f 327 331 332 328
f 328 332 329 325
f 333 334 335 336
f 337 340 339 338
f 333 337 338 334
f 334 338 339 335
f 335 339 340 336
f 336 340 337 333
f 341 342 343 344
f 345 348 347 346
f 341 345 346 342
f 342 346 347 343
f 343 347 348 344
f 344 348 345 341
f 349 350 351 352
f 353 356 355 354
f 349 353 354 350
f 350 354 355 351
f 351 355 356 352
f 352 356 353 349
f 357 358 359 360
f 361 364 363 362
f 357 361 362 358
f 358 362 363 359
f 359 363 364 360
f 360 364 361 357
f 365 366 367 368
f 369 372 371 370
f 365 369 370 366
f 366 370 371 367
f 367 371 372 368
f 368 372 369 365
f 373 374 375 376
f 377 380 379 378
f 373 377 378 374
f 374 378 379 375
f 375 379 380 376
f 376 380 377 373
f 381 382 383 384
f 385 388 387 386
f 381 385 386 382
f 382 386 387 383
f 383 387 388 384
f 384 388 385 381
f 389 390 391 392
f 393 396 395 394
f 389 393 394 390
f 390 394 395 391
f 391 395 396 392
f 392 396 393 389
f 397 398 399 400
f 401 404 403 402
f 397 401 402 398
f 398 402 403 399
f 399 403 404 400
f 400 404 401 397
f 405 406 407 408
f 409 412 411 410
f 405 409 410 406
f 406 410 411 407
f 407 411 412 408
f 408 412 409 405
f 413 414 415 416
f 417 420 419 418
f 413 417 418 414
f 414 418 419 415
f 415 419 420 416
f 416 420 417 413
f 421 422 423 424
f 425 428 427 426
f 421 425 426 422
f 422 426 427 423
f 423 427 428 424
f 424 428 425 421
f 429 430 431 432
f 433 436 435 434
f 429 433 434 430
f 430 434 435 431
f 431 435 436 432
f 432 436 433 429
f 437 438 439 440
f 441 444 443 442
f 437 441 442 438
f 438 442 443 439
f 439 443 444 440
f 440 444 441 437
f 445 446 447 448
f 449 452 451 450
f 445 449 450 446
f 446 450 451 447
f 447 451 452 448
f 448 452 449 445
f 453 454 455 456
f 457 460 459 458
f 453 457 458 454
f 454 458 459 455
f 455 459 460 456
f 456 460 457 453
f 461 462 463 464
f 465 468 467 466
f 461 465 466 462
f 462 466 467 463
f 463 467 468 464
f 464 468 465 461
f 469 470 471 472
f 473 476 475 474
f 469 473 474 470
f 470 474 475 471
f 471 475 476 472
f 472 476 473 469
f 477 478 479 480
f 481 484 483 482
f 477 481 482 478
f 478 482 483 479
f 479 483 484 480
f 480 484 481 477
f 485 486 487 488
f 489 492 491 490
f 485 489 490 486
f 486 490 491 487
f 487 491 492 488
f 488 492 489 485
f 493 494 495 496
f 497 500 499 498
f 493 497 498 494
f 494 498 499 495
f 495 499 500 496
f 496 500 497 493
f 501 502 503 504
f 505 508 507 506
f 501 505 506 502
f 502 506 507 503
f 503 507 508 504
f 504 508 505 501
f 509 510 511 512
f 513 516 515 514
f 509 513 514 510
f 510 514 515 511
f 511 515 516 512
f 512 516 513 509
f 517 518 519 520
f 521 524 523 522
f 517 521 522 518
f 518 522 523 519
f 519 523 524 520
f 520 524 521 517
f 525 526 527 528
f 529 532 531 530
f 525 529 530 526
f 526 530 531 527
f 527 531 532 528
f 528 532 529 525
f 533 534 535 536
f 537 540 539 538
f 533 537 538 534
f 534 538 539 535
f 535 539 540 536
f 536 540 537 533
f 541 542 543 544
f 545 548 547 546
f 541 545 546 542
f 542 546 547 543
f 543 547 548 544
f 544 548 545 541
f 549 550 551 552
f 553 556 555 554
f 549 553 554 550
f 550 554 555 551
f 551 555 556 552
f 552 556 553 549
f 557 558 559 560
f 561 564 563 562
f 557 561 562 558
f 558 562 563 559
f 559 563 564 560
f 560 564 561 557
f 565 566 567 568
f 569 572 571 570
f 565 569 570 566
f 566 570 571 567
f 567 571 572 568
f 568 572 569 565
f 573 574 575 576
f 577 580 579 578
f 573 577 578 574
f 574 578 579 575
f 575 579 580 576
f 576 580 577 573
f 581 582 583 584
f 585 588 587 586
f 581 585 586 582
f 582 586 587 583
f 583 587 588 584
f 584 588 585 581
f 589 590 591 592
f 593 596 595 594
f 589 593 594 590
f 590 594 595 591
f 591 595 596 592
f 592 596 593 589
f 597 598 599 600
f 601 604 603 602
f 597 601 602 598
f 598 602 603 599
f 599 603 604 600
f 600 604 601 597
f 605 606 607 608
f 609 612 611 610
f 605 609 610 606
f 606 610 611 607
f 607 611 612 608
f 608 612 609 605
f 613 614 615 616
f 617 620 619 618
f 613 617 618 614
f 614 618 619 615
f 615 619 620 616
f 616 620 617 613
f 621 622 623 624
f 625 628 627 626
f 621 625 626 622
f 622 626 627 623
f 623 627 628 624
f 624 628 625 621
f 629 630 631 632
f 633 636 635 634
f 629 633 634 630
f 630 634 635 631
f 631 635 636 632
f 632 636 633 629
f 637 638 639 640
f 641 644 643 642
f 637 641 642 638
f 638 642 643 639
f 639 643 644 640
f 640 644 641 637
f 645 646 647 648
f 649 652 651 650
f 645 649 650 646
f 646 650 651 647
f 647 651 652 648
f 648 652 649 645
f 653 654 655 656
f 657 660 659 658
f 653 657 658 654
f 654 658 659 655
f 655 659 660 656
f 656 660 657 653
f 661 662 663 664
f 665 668 667 666
f 661 665 666 662
f 662 666 667 663
f 663 667 668 664
f 664 668 665 661
f 669 670 671 672
f 673 676 675 674
f 669 673 674 670
f 670 674 675 671
f 671 675 676 672
f 672 676 673 669
f 677 678 679 680
f 681 684 683 682
f 677 681 682 678
f 678 682 683 679
f 679 683 684 680
f 680 684 681 677
f 685 686 687 688
f 689 692 691 690
f 685 689 690 686
f 686 690 691 687
f 687 691 692 688
f 688 692 689 685
f 693 694 695 696
f 697 700 699 698
f 693 697 698 694
f 694 698 699 695
f 695 699 700 696
f 696 700 697 693
f 701 702 703 704
f 705 708 707 706
f 701 705 706 702
f 702 706 707 703
f 703 707 708 704
f 704 708 705 701
f 709 710 711 712
f 713 716 715 714
f 709 713 714 710
f 710 714 715 711
f 711 715 716 712
f 712 716 713 709
f 717 718 719 720
f 721 724 723 722
f 717 721 722 718
f 718 722 723 719
f 719 723 724 720
f 720 724 721 717
f 725 726 727 728
f 729 732 731 730
f 725 729 730 726
f 726 730 731 727
f 727 731 732 728
f 728 732 729 725
f 733 734 735 736
f 737 740 739 738
f 733 737 738 734
f 734 738 739 735
f 735 739 740 736
f 736 740 737 733
f 741 742 743 744
f 745 748 747 746
f 741 745 746 742
f 742 746 747 743
f 743 747 748 744
f 744 748 745 741
f 749 750 751 752
f 753 756 755 754
f 749 753 754 750
f 750 754 755 751
f 751 755 756 752
f 752 756 753 749
f 757 758 759 760
f 761 764 763 762
f 757 761 762 758
f 758 762 763 759
f 759 763 764 760
f 760 764 761 757
f 765 766 767 768
f 769 772 771 770
f 765 769 770 766
f 766 770 771 767
f 767 771 772 768
f 768 772 769 765
f 773 774 775 776
f 777 780 779 778
f 773 777 778 774
f 774 778 779 775
f 775 779 780 776
f 776 780 777 773
f 781 782 783 784
f 785 788 787 786
f 781 785 786 782
f 782 786 787 783
f 783 787 788 784
f 784 788 785 781
f 789 790 791 792
f 793 796 795 794
f 789 793 794 790
f 790 794 795 791
f 791 795 796 792
f 792 796 793 789
f 797 798 799 800
f 801 804 803 802
f 797 801 802 798
f 798 802 803 799
f 799 803 804 800
f 800 804 801 797
f 805 806 807 808
f 809 812 811 810
f 805 809 810 806
f 806 810 811 807
f 807 811 812 808
f 808 812 809 805
f 813 814 815 816
f 817 820 819 818
f 813 817 818 814
f 814 818 819 815
f 815 819 820 816
f 816 820 817 813
f 821 822 823 824
f 825 828 827 826
f 821 825 826 822
f 822 826 827 823
f 823 827 828 824
f 824 828 825 821
f 829 830 831 832
f 833 836 835 834
f 829 833 834 830
f 830 834 835 831
f 831 835 836 832
f 832 836 833 829
f 837 838 839 840
f 841 844 843 842
f 837 841 842 838
f 838 842 843 839
f 839 843 844 840
f 840 844 841 837
f 845 846 847 848
f 849 852 851 850
f 845 849 850 846
f 846 850 851 847
f 847 851 852 848
f 848 852 849 845
f 853 854 855 856
f 857 860 859 858
f 853 857 858 854
f 854 858 859 855
f 855 859 860 856
f 856 860 857 853
f 861 862 863 864
f 865 868 867 866
f 861 865 866 862
f 862 866 867 863
f 863 867 868 864
f 864 868 865 861
f 869 870 871 872
f 873 876 875 874
f 869 873 874 870
f 870 874 875 871
f 871 875 876 872
f 872 876 873 869
f 877 878 879 880
f 881 884 883 882
f 877 881 882 878
f 878 882 883 879
f 879 883 884 880
f 880 884 881 877
f 885 886 887 888
f 889 892 891 890
f 885 889 890 886
f 886 890 891 887
f 887 891 892 888
f 888 892 889 885
f 893 894 895 896
f 897 900 899 898
f 893 897 898 894
f 894 898 899 895
f 895 899 900 896
f 896 900 897 893
f 901 902 903 904
f 905 908 907 906
f 901 905 906 902
f 902 906 907 903
f 903 907 908 904
f 904 908 905 901
f 909 910 911 912
f 913 916 915 914
f 909 913 914 910
f 910 914 915 911
f 911 915 916 912
f 912 916 913 909
f 917 918 919 920
f 921 924 923 922
f 917 921 922 918
f 918 922 923 919
f 919 923 924 920
f 920 924 921 917
f 925 926 927 928
f 929 932 931 930
f 925 929 930 926
f 926 930 931 927
f 927 931 932 928
f 928 932 929 925
f 933 934 935 936
f 937 940 939 938
f 933 937 938 934
f 934 938 939 935
f 935 939 940 936
f 936 940 937 933
f 941 942 943 944
f 945 948 947 946
f 941 945 946 942
f 942 946 947 943
f 943 947 948 944
f 944 948 945 941
f 949 950 951 952
f 953 956 955 954
f 949 953 954 950
f 950 954 955 951
f 951 955 956 952
f 952 956 953 949
f 957 958 959 960
f 961 964 963 962
f 957 961 962 958
f 958 962 963 959
f 959 963 964 960
f 960 964 961 957
f 965 966 967 968
f 969 972 971 970
f 965 969 970 966
f 966 970 971 967
f 967 971 972 968
f 968 972 969 965
f 973 974 975 976
f 977 980 979 978
f 973 977 978 974
f 974 978 979 975
f 975 979 980 976
f 976 980 977 973
f 981 982 983 984
f 985 988 987 986
f 981 985 986 982
f 982 986 987 983
f 983 987 988 984
f 984 988 985 981
f 989 990 991 992
f 993 996 995 994
f 989 993 994 990
f 990 994 995 991
f 991 995 996 992
f 992 996 993 989
f 997 998 999 1000
f 1001 1004 1003 1002
f 997 1001 1002 998
f 998 1002 1003 999
f 999 1003 1004 1000
f 1000 1004 1001 997
f 1005 1006 1007 1008
f 1009 1012 1011 1010
f 1005 1009 1010 1006
f 1006 1010 1011 1007
f 1007 1011 1012 1008
f 1008 1012 1009 1005
f 1013 1014 1015 1016
f 1017 1020 1019 1018
f 1013 1017 1018 1014
f 1014 1018 1019 1015
f 1015 1019 1020 1016
f 1016 1020 1017 1013
f 1021 1022 1023 1024
f 1025 1028 1027 1026
f 1021 1025 1026 1022
f 1022 1026 1027 1023
f 1023 1027 1028 1024
f 1024 1028 1025 1021
f 1029 1030 1031 1032
f 1033 1036 1035 1034
f 1029 1033 1034 1030
f 1030 1034 1035 1031
f 1031 1035 1036 1032
f 1032 1036 1033 1029
f 1037 1038 1039 1040
f 1041 1044 1043 1042
f 1037 1041 1042 1038
f 1038 1042 1043 1039
f 1039 1043 1044 1040
f 1040 1044 1041 1037
f 1045 1046 1047 1048
f 1049 1052 1051 1050
f 1045 1049 1050 1046
f 1046 1050 1051 1047
f 1047 1051 1052 1048
f 1048 1052 1049 1045
f 1053 1054 1055 1056
f 1057 1060 1059 1058
f 1053 1057 1058 1054
f 1054 1058 1059 1055
f 1055 1059 1060 1056
f 1056 1060 1057 1053
f 1061 1062 1063 1064
f 1065 1068 1067 1066
f 1061 1065 1066 1062
f 1062 1066 1067 1063
f 1063 1067 1068 1064
f 1064 1068 1065 1061
f 1069 1070 1071 1072
f 1073 1076 1075 1074
f 1069 1073 1074 1070
f 1070 1074 1075 1071
f 1071 1075 1076 1072
f 1072 1076 1073 1069
f 1077 1078 1079 1080
f 1081 1084 1083 1082
f 1077 1081 1082 1078
f 1078 1082 1083 1079
f 1079 1083 1084 1080
f 1080 1084 1081 1077
f 1085 1086 1087 1088
f 1089 1092 1091 1090
f 1085 1089 1090 1086
f 1086 1090 1091 1087
f 1087 1091 1092 1088
f 1088 1092 1089 1085
f 1093 1094 1095 1096
f 1097 1100 1099 1098
f 1093 1097 1098 1094
f 1094 1098 1099 1095
f 1095 1099 1100 1096
f 1096 1100 1097 1093
f 1101 1102 1103 1104
f 1105 1108 1107 1106
f 1101 1105 1106 1102
f 1102 1106 1107 1103
f 1103 1107 1108 1104
f 1104 1108 1105 1101
f 1109 1110 1111 1112
f 1113 1116 1115 1114
f 1109 1113 1114 1110
f 1110 1114 1115 1111
f 1111 1115 1116 1112
f 1112 1116 1113 1109
f 1117 1118 1119 1120
f 1121 1124 1123 1122
f 1117 1121 1122 1118
f 1118 1122 1123 1119
f 1119 1123 1124 1120
f 1120 1124 1121 1117
f 1125 1126 1127 1128
f 1129 1132 1131 1130
f 1125 1129 1130 1126
f 1126 1130 1131 1127
f 1127 1131 1132 1128
f 1128 1132 1129 1125
f 1133 1134 1135 1136
f 1137 1140 1139 1138
f 1133 1137 1138 1134
f 1134 1138 1139 1135
f 1135 1139 1140 1136
f 1136 1140 1137 1133
f 1141 1142 1143 1144
f 1145 1148 1147 1146
f 1141 1145 1146 1142
f 1142 1146 1147 1143
f 1143 1147 1148 1144
f 1144 1148 1145 1141
f 1149 1150 1151 1152
f 1153 1156 1155 1154
f 1149 1153 1154 1150
f 1150 1154 1155 1151
f 1151 1155 1156 1152
f 1152 1156 1153 1149
f 1157 1158 1159 1160
f 1161 1164 1163 1162
f 1157 1161 1162 1158
f 1158 1162 1163 1159
f 1159 1163 1164 1160
f 1160 1164 1161 1157
f 1165 1166 1167 1168
f 1169 1172 1171 1170
f 1165 1169 1170 1166
f 1166 1170 1171 1167
f 1167 1171 1172 1168
f 1168 1172 1169 1165
f 1173 1174 1175 1176
f 1177 1180 1179 1178
f 1173 1177 1178 1174
f 1174 1178 1179 1175
f 1175 1179 1180 1176
f 1176 1180 1177 1173
f 1181 1182 1183 1184
f 1185 1188 1187 1186
f 1181 1185 1186 1182
f 1182 1186 1187 1183
f 1183 1187 1188 1184
f 1184 1188 1185 1181
f 1189 1190 1191 1192
f 1193 1196 1195 1194
f 1189 1193 1194 1190
f 1190 1194 1195 1191
f 1191 1195 1196 1192
f 1192 1196 1193 1189
f 1197 1198 1199 1200
f 1201 1204 1203 1202
f 1197 1201 1202 1198
f 1198 1202 1203 1199
f 1199 1203 1204 1200
f 1200 1204 1201 1197
f 1205 1206 1207 1208
f 1209 1212 1211 1210
f 1205 1209 1210 1206
f 1206 1210 1211 1207
f 1207 1211 1212 1208
f 1208 1212 1209 1205
f 1213 1214 1215 1216
f 1217 1220 1219 1218
f 1213 1217 1218 1214
f 1214 1218 1219 1215
f 1215 1219 1220 1216
f 1216 1220 1217 1213
f 1221 1222 1223 1224
f 1225 1228 1227 1226
f 1221 1225 1226 1222
f 1222 1226 1227 1223
f 1223 1227 1228 1224
f 1224 1228 1225 1221
f 1229 1230 1231 1232
f 1233 1236 1235 1234
f 1229 1233 1234 1230
f 1230 1234 1235 1231
f 1231 1235 1236 1232
f 1232 1236 1233 1229
f 1237 1238 1239 1240
f 1241 1244 1243 1242
f 1237 1241 1242 1238
f 1238 1242 1243 1239
f 1239 1243 1244 1240
f 1240 1244 1241 1237
f 1245 1246 1247 1248
f 1249 1252 1251 1250
f 1245 1249 1250 1246
f 1246 1250 1251 1247
f 1247 1251 1252 1248
f 1248 1252 1249 1245
f 1253 1254 1255 1256
f 1257 1260 1259 1258
f 1253 1257 1258 1254
f 1254 1258 1259 1255
f 1255 1259 1260 1256
f 1256 1260 1257 1253
f 1261 1262 1263 1264
f 1265 1268 1267 1266
f 1261 1265 1266 1262
f 1262 1266 1267 1263
f 1263 1267 1268 1264
f 1264 1268 1265 1261
f 1269 1270 1271 1272
f 1273 1276 1275 1274
f 1269 1273 1274 1270
f 1270 1274 1275 1271
f 1271 1275 1276 1272
f 1272 1276 1273 1269
f 1277 1278 1279 1280
f 1281 1284 1283 1282
f 1277 1281 1282 1278
f 1278 1282 1283 1279
f 1279 1283 1284 1280
f 1280 1284 1281 1277
f 1285 1286 1287 1288
f 1289 1292 1291 1290
f 1285 1289 1290 1286
f 1286 1290 1291 1287
f 1287 1291 1292 1288
f 1288 1292 1289 1285
f 1293 1294 1295 1296
f 1297 1300 1299 1298
f 1293 1297 1298 1294
f 1294 1298 1299 1295
f 1295 1299 1300 1296
f 1296 1300 1297 1293
f 1301 1302 1303 1304
f 1305 1308 1307 1306
f 1301 1305 1306 1302
f 1302 1306 1307 1303
f 1303 1307 1308 1304
f 1304 1308 1305 1301
f 1309 1310 1311 1312
f 1313 1316 1315 1314
f 1309 1313 1314 1310
f 1310 1314 1315 1311
f 1311 1315 1316 1312
f 1312 1316 1313 1309
f 1317 1318 1319 1320
f 1321 1324 1323 1322
f 1317 1321 1322 1318
f 1318 1322 1323 1319
f 1319 1323 1324 1320
f 1320 1324 1321 1317
f 1325 1326 1327 1328
f 1329 1332 1331 1330
f 1325 1329 1330 1326
f 1326 1330 1331 1327
f 1327 1331 1332 1328
f 1328 1332 1329 1325
f 1333 1334 1335 1336
f 1337 1340 1339 1338
f 1333 1337 1338 1334
f 1334 1338 1339 1335
f 1335 1339 1340 1336
f 1336 1340 1337 1333
f 1341 1342 1343 1344
f 1345 1348 1347 1346
f 1341 1345 1346 1342
f 1342 1346 1347 1343
f 1343 1347 1348 1344
f 1344 1348 1345 1341
f 1349 1350 1351 1352
f 1353 1356 1355 1354
f 1349 1353 1354 1350
f 1350 1354 1355 1351
f 1351 1355 1356 1352
f 1352 1356 1353 1349
f 1357 1358 1359 1360
f 1361 1364 1363 1362
f 1357 1361 1362 1358
f 1358 1362 1363 1359
f 1359 1363 1364 1360
f 1360 1364 1361 1357
f 1365 1366 1367 1368
f 1369 1372 1371 1370
f 1365 1369 1370 1366
f 1366 1370 1371 1367
f 1367 1371 1372 1368
f 1368 1372 1369 1365
f 1373 1374 1375 1376
f 1377 1380 1379 1378
f 1373 1377 1378 1374
f 1374 1378 1379 1375
f 1375 1379 1380 1376
f 1376 1380 1377 1373
f 1381 1382 1383 1384
f 1385 1388 1387 1386
f 1381 1385 1386 1382
f 1382 1386 1387 1383
f 1383 1387 1388 1384
f 1384 1388 1385 1381
f 1389 1390 1391 1392
f 1393 1396 1395 1394
f 1389 1393 1394 1390
f 1390 1394 1395 1391
f 1391 1395 1396 1392
f 1392 1396 1393 1389
f 1397 1398 1399 1400
f 1401 1404 1403 1402
f 1397 1401 1402 1398
f 1398 1402 1403 1399
f 1399 1403 1404 1400
f 1400 1404 1401 1397
f 1405 1406 1407 1408
f 1409 1412 1411 1410
f 1405 1409 1410 1406
f 1406 1410 1411 1407
f 1407 1411 1412 1408
f 1408 1412 1409 1405
f 1413 1414 1415 1416
f 1417 1420 1419 1418
f 1413 1417 1418 1414
f 1414 1418 1419 1415
f 1415 1419 1420 1416
f 1416 1420 1417 1413
f 1421 1422 1423 1424
f 1425 1428 1427 1426
f 1421 1425 1426 1422
f 1422 1426 1427 1423
f 1423 1427 1428 1424
f 1424 1428 1425 1421
f 1429 1430 1431 1432
f 1433 1436 1435 1434
f 1429 1433 1434 1430
f 1430 1434 1435 1431
f 1431 1435 1436 1432
f 1432 1436 1433 1429
f 1437 1438 1439 1440
f 1441 1444 1443 1442
f 1437 1441 1442 1438
f 1438 1442 1443 1439
f 1439 1443 1444 1440
f 1440 1444 1441 1437
f 1445 1446 1447 1448
f 1449 1452 1451 1450
f 1445 1449 1450 1446
f 1446 1450 1451 1447
f 1447 1451 1452 1448
f 1448 1452 1449 1445
f 1453 1454 1455 1456
f 1457 1460 1459 1458
f 1453 1457 1458 1454
f 1454 1458 1459 1455
f 1455 1459 1460 1456
f 1456 1460 1457 1453
f 1461 1462 1463 1464
f 1465 1468 1467 1466
f 1461 1465 1466 1462
f 1462 1466 1467 1463
f 1463 1467 1468 1464
f 1464 1468 1465 1461
f 1469 1470 1471 1472
f 1473 1476 1475 1474
f 1469 1473 1474 1470
f 1470 1474 1475 1471
f 1471 1475 1476 1472
f 1472 1476 1473 1469
f 1477 1478 1479 1480
f 1481 1484 1483 1482
f 1477 1481 1482 1478
f 1478 1482 1483 1479
f 1479 1483 1484 1480
f 1480 1484 1481 1477
f 1485 1486 1487 1488
f 1489 1492 1491 1490
f 1485 1489 1490 1486
f 1486 1490 1491 1487
f 1487 1491 1492 1488
f 1488 1492 1489 1485
f 1493 1494 1495 1496
f 1497 1500 1499 1498
f 1493 1497 1498 1494
f 1494 1498 1499 1495
f 1495 1499 1500 1496
f 1496 1500 1497 1493
f 1501 1502 1503 1504
f 1505 1508 1507 1506
f 1501 1505 1506 1502
f 1502 1506 1507 1503
f 1503 1507 1508 1504
f 1504 1508 1505 1501
f 1509 1510 1511 1512
f 1513 1516 1515 1514
f 1509 1513 1514 1510
f 1510 1514 1515 1511
f 1511 1515 1516 1512
f 1512 1516 1513 1509
f 1517 1518 1519 1520
f 1521 1524 1523 1522
f 1517 1521 1522 1518
f 1518 1522 1523 1519
f 1519 1523 1524 1520
f 1520 1524 1521 1517
f 1525 1526 1527 1528
f 1529 1532 1531 1530
f 1525 1529 1530 1526
f 1526 1530 1531 1527
f 1527 1531 1532 1528
f 1528 1532 1529 1525
f 1533 1534 1535 1536
f 1537 1540 1539 1538
f 1533 1537 1538 1534
f 1534 1538 1539 1535
f 1535 1539 1540 1536
f 1536 1540 1537 1533
f 1541 1542 1543 1544
f 1545 1548 1547 1546
f 1541 1545 1546 1542
f 1542 1546 1547 1543
f 1543 1547 1548 1544
f 1544 1548 1545 1541
f 1549 1550 1551 1552
f 1553 1556 1555 1554
f 1549 1553 1554 1550
f 1550 1554 1555 1551
f 1551 1555 1556 1552
f 1552 1556 1553 1549
