# Object Export From Tinkercad Server 2015

mtllib obj.mtl

o obj_0
v 8 		-3 		40
v 5.3895 		-3 		39.8289
v 5.4118 		-3.3407 		39.8289
v 5.4784 		-3.6757 		39.8289
v 5.5882 		-3.999 		39.8289
v 5.7392 		-4.3053 		39.8289
v 5.9289 		-4.5892 		39.8289
v 6.1541 		-4.8459 		39.8289
v 6.4108 		-5.0711 		39.8289
v 6.6947 		-5.2608 		39.8289
v 7.001 		-5.4118 		39.8289
v 7.3243 		-5.5216 		39.8289
v 7.6593 		-5.5882 		39.8289
v 8 		-5.6105 		39.8289
v 8.3407 		-5.5882 		39.8289
v 8.6757 		-5.5216 		39.8289
v 8.999 		-5.4118 		39.8289
v 9.3053 		-5.2608 		39.8289
v 9.5892 		-5.0711 		39.8289
v 9.8459 		-4.8459 		39.8289
v 10.0711 		-4.5892 		39.8289
v 10.2608 		-4.3053 		39.8289
v 10.4118 		-3.999 		39.8289
v 10.5216 		-3.6757 		39.8289
v 10.5882 		-3.3407 		39.8289
v 10.6105 		-3 		39.8289
v 10.5882 		-2.6593 		39.8289
v 10.5216 		-2.3243 		39.8289
v 10.4118 		-2.001 		39.8289
v 10.2608 		-1.6947 		39.8289
v 10.0711 		-1.4108 		39.8289
v 9.8459 		-1.1541 		39.8289
v 9.5892 		-0.9289 		39.8289
v 9.3053 		-0.7392 		39.8289
v 8.999 		-0.5882 		39.8289
v 8.6757 		-0.4784 		39.8289
v 8.3407 		-0.4118 		39.8289
v 8 		-0.3895 		39.8289
v 7.6593 		-0.4118 		39.8289
v 7.3243 		-0.4784 		39.8289
v 7.001 		-0.5882 		39.8289
v 6.6947 		-0.7392 		39.8289
v 6.4108 		-0.9289 		39.8289
v 6.1541 		-1.1541 		39.8289
v 5.9289 		-1.4108 		39.8289
v 5.7392 		-1.6947 		39.8289
v 5.5882 		-2.001 		39.8289
v 5.4784 		-2.3243 		39.8289
v 5.4118 		-2.6593 		39.8289
v 2.8236 		-3 		39.3185
v 2.8679 		-3.6757 		39.3185
v 3 		-4.3397 		39.3185
v 3.2176 		-4.9809 		39.3185
v 3.5171 		-5.5882 		39.3185
v 3.8933 		-6.1512 		39.3185
v 4.3397 		-6.6603 		39.3185
v 4.8488 		-7.1067 		39.3185
v 5.4118 		-7.4829 		39.3185
v 6.0191 		-7.7824 		39.3185
v 6.6603 		-8 		39.3185
v 7.3243 		-8.1321 		39.3185
v 8 		-8.1764 		39.3185
v 8.6757 		-8.1321 		39.3185
v 9.3397 		-8 		39.3185
v 9.9809 		-7.7824 		39.3185
v 10.5882 		-7.4829 		39.3185
v 11.1512 		-7.1067 		39.3185
v 11.6603 		-6.6603 		39.3185
v 12.1067 		-6.1512 		39.3185
v 12.4829 		-5.5882 		39.3185
v 12.7824 		-4.9809 		39.3185
v 13 		-4.3397 		39.3185
v 13.1321 		-3.6757 		39.3185
v 13.1764 		-3 		39.3185
v 13.1321 		-2.3243 		39.3185
v 13 		-1.6603 		39.3185
v 12.7824 		-1.0191 		39.3185
v 12.4829 		-0.4118 		39.3185
v 12.1067 		0.1512 		39.3185
v 11.6603 		0.6603 		39.3185
v 11.1512 		1.1067 		39.3185
v 10.5882 		1.4829 		39.3185
v 9.9809 		1.7824 		39.3185
v 9.3397 		2 		39.3185
v 8.6757 		2.1321 		39.3185
v 8 		2.1764 		39.3185
v 7.3243 		2.1321 		39.3185
v 6.6603 		2 		39.3185
v 6.0191 		1.7824 		39.3185
v 5.4118 		1.4829 		39.3185
v 4.8488 		1.1067 		39.3185
v 4.3397 		0.6603 		39.3185
v 3.8933 		0.1512 		39.3185
v 3.5171 		-0.4118 		39.3185
v 3.2176 		-1.0191 		39.3185
v 3 		-1.6603 		39.3185
v 2.8679 		-2.3243 		39.3185
v 0.3463 		-3 		38.4776
v 0.4118 		-3.999 		38.4776
v 0.6071 		-4.9809 		38.4776
v 0.9289 		-5.9289 		38.4776
v 1.3717 		-6.8268 		38.4776
v 1.9279 		-7.6593 		38.4776
v 2.588 		-8.412 		38.4776
v 3.3407 		-9.0721 		38.4776
v 4.1732 		-9.6283 		38.4776
v 5.0711 		-10.0711 		38.4776
v 6.0191 		-10.3929 		38.4776
v 7.001 		-10.5882 		38.4776
v 8 		-10.6537 		38.4776
v 8.999 		-10.5882 		38.4776
v 9.9809 		-10.3929 		38.4776
v 10.9289 		-10.0711 		38.4776
v 11.8268 		-9.6283 		38.4776
v 12.6593 		-9.0721 		38.4776
v 13.412 		-8.412 		38.4776
v 14.0721 		-7.6593 		38.4776
v 14.6283 		-6.8268 		38.4776
v 15.0711 		-5.9289 		38.4776
v 15.3929 		-4.9809 		38.4776
v 15.5882 		-3.999 		38.4776
v 15.6537 		-3 		38.4776
v 15.5882 		-2.001 		38.4776
v 15.3929 		-1.0191 		38.4776
v 15.0711 		-0.0711 		38.4776
v 14.6283 		0.8268 		38.4776
v 14.0721 		1.6593 		38.4776
v 13.412 		2.412 		38.4776
v 12.6593 		3.0721 		38.4776
v 11.8268 		3.6283 		38.4776
v 10.9289 		4.0711 		38.4776
v 9.9809 		4.3929 		38.4776
v 8.999 		4.5882 		38.4776
v 8 		4.6537 		38.4776
v 7.001 		4.5882 		38.4776
v 6.0191 		4.3929 		38.4776
v 5.0711 		4.0711 		38.4776
v 4.1732 		3.6283 		38.4776
v 3.3407 		3.0721 		38.4776
v 2.588 		2.412 		38.4776
v 1.9279 		1.6593 		38.4776
v 1.3717 		0.8268 		38.4776
v 0.9289 		-0.0711 		38.4776
v 0.6071 		-1.0191 		38.4776
v 0.4118 		-2.001 		38.4776
v -2 		-3 		37.3205
v -1.9144 		-4.3053 		37.3205
v -1.6593 		-5.5882 		37.3205
v -1.2388 		-6.8268 		37.3205
v -0.6603 		-8 		37.3205
v 0.0665 		-9.0876 		37.3205
v 0.9289 		-10.0711 		37.3205
v 1.9124 		-10.9335 		37.3205
v 3 		-11.6603 		37.3205
v 4.1732 		-12.2388 		37.3205
v 5.4118 		-12.6593 		37.3205
v 6.6947 		-12.9144 		37.3205
v 8 		-13 		37.3205
v 9.3053 		-12.9144 		37.3205
v 10.5882 		-12.6593 		37.3205
v 11.8268 		-12.2388 		37.3205
v 13 		-11.6603 		37.3205
v 14.0876 		-10.9335 		37.3205
v 15.0711 		-10.0711 		37.3205
v 15.9335 		-9.0876 		37.3205
v 16.6603 		-8 		37.3205
v 17.2388 		-6.8268 		37.3205
v 17.6593 		-5.5882 		37.3205
v 17.9144 		-4.3053 		37.3205
v 18 		-3 		37.3205
v 17.9144 		-1.6947 		37.3205
v 17.6593 		-0.4118 		37.3205
v 17.2388 		0.8268 		37.3205
v 16.6603 		2 		37.3205
v 15.9335 		3.0876 		37.3205
v 15.0711 		4.0711 		37.3205
v 14.0876 		4.9335 		37.3205
v 13 		5.6603 		37.3205
v 11.8268 		6.2388 		37.3205
v 10.5882 		6.6593 		37.3205
v 9.3053 		6.9144 		37.3205
v 8 		7 		37.3205
v 6.6947 		6.9144 		37.3205
v 5.4118 		6.6593 		37.3205
v 4.1732 		6.2388 		37.3205
v 3 		5.6603 		37.3205
v 1.9124 		4.9335 		37.3205
v 0.9289 		4.0711 		37.3205
v 0.0665 		3.0876 		37.3205
v -0.6603 		2 		37.3205
v -1.2388 		0.8268 		37.3205
v -1.6593 		-0.4118 		37.3205
v -1.9144 		-1.6947 		37.3205
v -4.1752 		-3 		35.8671
v -4.0711 		-4.5892 		35.8671
v -3.7604 		-6.1512 		35.8671
v -3.2484 		-7.6593 		35.8671
v -2.5441 		-9.0876 		35.8671
v -1.6593 		-10.4118 		35.8671
v -0.6092 		-11.6092 		35.8671
v 0.5882 		-12.6593 		35.8671
v 1.9124 		-13.5441 		35.8671
v 3.3407 		-14.2484 		35.8671
v 4.8488 		-14.7604 		35.8671
v 6.4108 		-15.0711 		35.8671
v 8 		-15.1752 		35.8671
v 9.5892 		-15.0711 		35.8671
v 11.1512 		-14.7604 		35.8671
v 12.6593 		-14.2484 		35.8671
v 14.0876 		-13.5441 		35.8671
v 15.4118 		-12.6593 		35.8671
v 16.6092 		-11.6092 		35.8671
v 17.6593 		-10.4118 		35.8671
v 18.5441 		-9.0876 		35.8671
v 19.2484 		-7.6593 		35.8671
v 19.7604 		-6.1512 		35.8671
v 20.0711 		-4.5892 		35.8671
v 20.1752 		-3 		35.8671
v 20.0711 		-1.4108 		35.8671
v 19.7604 		0.1512 		35.8671
v 19.2484 		1.6593 		35.8671
v 18.5441 		3.0876 		35.8671
v 17.6593 		4.4118 		35.8671
v 16.6092 		5.6092 		35.8671
v 15.4118 		6.6593 		35.8671
v 14.0876 		7.5441 		35.8671
v 12.6593 		8.2484 		35.8671
v 11.1512 		8.7604 		35.8671
v 9.5892 		9.0711 		35.8671
v 8 		9.1752 		35.8671
v 6.4108 		9.0711 		35.8671
v 4.8488 		8.7604 		35.8671
v 3.3407 		8.2484 		35.8671
v 1.9124 		7.5441 		35.8671
v 0.5882 		6.6593 		35.8671
v -0.6092 		5.6092 		35.8671
v -1.6593 		4.4118 		35.8671
v -2.5441 		3.0876 		35.8671
v -3.2484 		1.6593 		35.8671
v -3.7604 		0.1512 		35.8671
v -4.0711 		-1.4108 		35.8671
v -6.1421 		-3 		34.1421
v -6.0211 		-4.8459 		34.1421
v -5.6603 		-6.6603 		34.1421
v -5.0656 		-8.412 		34.1421
v -4.2474 		-10.0711 		34.1421
v -3.2197 		-11.6092 		34.1421
v -2 		-13 		34.1421
v -0.6092 		-14.2197 		34.1421
v 0.9289 		-15.2474 		34.1421
v 2.588 		-16.0656 		34.1421
v 4.3397 		-16.6603 		34.1421
v 6.1541 		-17.0211 		34.1421
v 8 		-17.1421 		34.1421
v 9.8459 		-17.0211 		34.1421
v 11.6603 		-16.6603 		34.1421
v 13.412 		-16.0656 		34.1421
v 15.0711 		-15.2474 		34.1421
v 16.6092 		-14.2197 		34.1421
v 18 		-13 		34.1421
v 19.2197 		-11.6092 		34.1421
v 20.2474 		-10.0711 		34.1421
v 21.0656 		-8.412 		34.1421
v 21.6603 		-6.6603 		34.1421
v 22.0211 		-4.8459 		34.1421
v 22.1421 		-3 		34.1421
v 22.0211 		-1.1541 		34.1421
v 21.6603 		0.6603 		34.1421
v 21.0656 		2.412 		34.1421
v 20.2474 		4.0711 		34.1421
v 19.2197 		5.6092 		34.1421
v 18 		7 		34.1421
v 16.6092 		8.2197 		34.1421
v 15.0711 		9.2474 		34.1421
v 13.412 		10.0656 		34.1421
v 11.6603 		10.6603 		34.1421
v 9.8459 		11.0211 		34.1421
v 8 		11.1421 		34.1421
v 6.1541 		11.0211 		34.1421
v 4.3397 		10.6603 		34.1421
v 2.588 		10.0656 		34.1421
v 0.9289 		9.2474 		34.1421
v -0.6092 		8.2197 		34.1421
v -2 		7 		34.1421
v -3.2197 		5.6092 		34.1421
v -4.2474 		4.0711 		34.1421
v -5.0656 		2.412 		34.1421
v -5.6603 		0.6603 		34.1421
v -6.0211 		-1.1541 		34.1421
v -7.8671 		-3 		32.1752
v -7.7313 		-5.0711 		32.1752
v -7.3264 		-7.1067 		32.1752
v -6.6593 		-9.0721 		32.1752
v -5.7413 		-10.9335 		32.1752
v -4.5882 		-12.6593 		32.1752
v -3.2197 		-14.2197 		32.1752
v -1.6593 		-15.5882 		32.1752
v 0.0665 		-16.7413 		32.1752
v 1.9279 		-17.6593 		32.1752
v 3.8933 		-18.3264 		32.1752
v 5.9289 		-18.7313 		32.1752
v 8 		-18.8671 		32.1752
v 10.0711 		-18.7313 		32.1752
v 12.1067 		-18.3264 		32.1752
v 14.0721 		-17.6593 		32.1752
v 15.9335 		-16.7413 		32.1752
v 17.6593 		-15.5882 		32.1752
v 19.2197 		-14.2197 		32.1752
v 20.5882 		-12.6593 		32.1752
v 21.7413 		-10.9335 		32.1752
v 22.6593 		-9.0721 		32.1752
v 23.3264 		-7.1067 		32.1752
v 23.7313 		-5.0711 		32.1752
v 23.8671 		-3 		32.1752
v 23.7313 		-0.9289 		32.1752
v 23.3264 		1.1067 		32.1752
v 22.6593 		3.0721 		32.1752
v 21.7413 		4.9335 		32.1752
v 20.5882 		6.6593 		32.1752
v 19.2197 		8.2197 		32.1752
v 17.6593 		9.5882 		32.1752
v 15.9335 		10.7413 		32.1752
v 14.0721 		11.6593 		32.1752
v 12.1067 		12.3264 		32.1752
v 10.0711 		12.7313 		32.1752
v 8 		12.8671 		32.1752
v 5.9289 		12.7313 		32.1752
v 3.8933 		12.3264 		32.1752
v 1.9279 		11.6593 		32.1752
v 0.0665 		10.7413 		32.1752
v -1.6593 		9.5882 		32.1752
v -3.2197 		8.2197 		32.1752
v -4.5882 		6.6593 		32.1752
v -5.7413 		4.9335 		32.1752
v -6.6593 		3.0721 		32.1752
v -7.3264 		1.1067 		32.1752
v -7.7313 		-0.9289 		32.1752
v -9.3205 		-3 		30
v -9.1723 		-5.2608 		30
v -8.7303 		-7.4829 		30
v -8.0021 		-9.6283 		30
v -7 		-11.6603 		30
v -5.7413 		-13.5441 		30
v -4.2474 		-15.2474 		30
v -2.5441 		-16.7413 		30
v -0.6603 		-18 		30
v 1.3717 		-19.0021 		30
v 3.5171 		-19.7303 		30
v 5.7392 		-20.1723 		30
v 8 		-20.3205 		30
v 10.2608 		-20.1723 		30
v 12.4829 		-19.7303 		30
v 14.6283 		-19.0021 		30
v 16.6603 		-18 		30
v 18.5441 		-16.7413 		30
v 20.2474 		-15.2474 		30
v 21.7413 		-13.5441 		30
v 23 		-11.6603 		30
v 24.0021 		-9.6283 		30
v 24.7303 		-7.4829 		30
v 25.1723 		-5.2608 		30
v 25.3205 		-3 		30
v 25.1723 		-0.7392 		30
v 24.7303 		1.4829 		30
v 24.0021 		3.6283 		30
v 23 		5.6603 		30
v 21.7413 		7.5441 		30
v 20.2474 		9.2474 		30
v 18.5441 		10.7413 		30
v 16.6603 		12 		30
v 14.6283 		13.0021 		30
v 12.4829 		13.7303 		30
v 10.2608 		14.1723 		30
v 8 		14.3205 		30
v 5.7392 		14.1723 		30
v 3.5171 		13.7303 		30
v 1.3717 		13.0021 		30
v -0.6603 		12 		30
v -2.5441 		10.7413 		30
v -4.2474 		9.2474 		30
v -5.7413 		7.5441 		30
v -7 		5.6603 		30
v -8.0021 		3.6283 		30
v -8.7303 		1.4829 		30
v -9.1723 		-0.7392 		30
v -10.4776 		-3 		27.6537
v -10.3195 		-5.4118 		27.6537
v -9.848 		-7.7824 		27.6537
v -9.0711 		-10.0711 		27.6537
v -8.0021 		-12.2388 		27.6537
v -6.6593 		-14.2484 		27.6537
v -5.0656 		-16.0656 		27.6537
v -3.2484 		-17.6593 		27.6537
v -1.2388 		-19.0021 		27.6537
v 0.9289 		-20.0711 		27.6537
v 3.2176 		-20.848 		27.6537
v 5.5882 		-21.3195 		27.6537
v 8 		-21.4776 		27.6537
v 10.4118 		-21.3195 		27.6537
v 12.7824 		-20.848 		27.6537
v 15.0711 		-20.0711 		27.6537
v 17.2388 		-19.0021 		27.6537
v 19.2484 		-17.6593 		27.6537
v 21.0656 		-16.0656 		27.6537
v 22.6593 		-14.2484 		27.6537
v 24.0021 		-12.2388 		27.6537
v 25.0711 		-10.0711 		27.6537
v 25.848 		-7.7824 		27.6537
v 26.3195 		-5.4118 		27.6537
v 26.4776 		-3 		27.6537
v 26.3195 		-0.5882 		27.6537
v 25.848 		1.7824 		27.6537
v 25.0711 		4.0711 		27.6537
v 24.0021 		6.2388 		27.6537
v 22.6593 		8.2484 		27.6537
v 21.0656 		10.0656 		27.6537
v 19.2484 		11.6593 		27.6537
v 17.2388 		13.0021 		27.6537
v 15.0711 		14.0711 		27.6537
v 12.7824 		14.848 		27.6537
v 10.4118 		15.3195 		27.6537
v 8 		15.4776 		27.6537
v 5.5882 		15.3195 		27.6537
v 3.2176 		14.848 		27.6537
v 0.9289 		14.0711 		27.6537
v -1.2388 		13.0021 		27.6537
v -3.2484 		11.6593 		27.6537
v -5.0656 		10.0656 		27.6537
v -6.6593 		8.2484 		27.6537
v -8.0021 		6.2388 		27.6537
v -9.0711 		4.0711 		27.6537
v -9.848 		1.7824 		27.6537
v -10.3195 		-0.5882 		27.6537
v -11.3185 		-3 		25.1764
v -11.1532 		-5.5216 		25.1764
v -10.6603 		-8 		25.1764
v -9.848 		-10.3929 		25.1764
v -8.7303 		-12.6593 		25.1764
v -7.3264 		-14.7604 		25.1764
v -5.6603 		-16.6603 		25.1764
v -3.7604 		-18.3264 		25.1764
v -1.6593 		-19.7303 		25.1764
v 0.6071 		-20.848 		25.1764
v 3 		-21.6603 		25.1764
v 5.4784 		-22.1532 		25.1764
v 8 		-22.3185 		25.1764
v 10.5216 		-22.1532 		25.1764
v 13 		-21.6603 		25.1764
v 15.3929 		-20.848 		25.1764
v 17.6593 		-19.7303 		25.1764
v 19.7604 		-18.3264 		25.1764
v 21.6603 		-16.6603 		25.1764
v 23.3264 		-14.7604 		25.1764
v 24.7303 		-12.6593 		25.1764
v 25.848 		-10.3929 		25.1764
v 26.6603 		-8 		25.1764
v 27.1532 		-5.5216 		25.1764
v 27.3185 		-3 		25.1764
v 27.1532 		-0.4784 		25.1764
v 26.6603 		2 		25.1764
v 25.848 		4.3929 		25.1764
v 24.7303 		6.6593 		25.1764
v 23.3264 		8.7604 		25.1764
v 21.6603 		10.6603 		25.1764
v 19.7604 		12.3264 		25.1764
v 17.6593 		13.7303 		25.1764
v 15.3929 		14.848 		25.1764
v 13 		15.6603 		25.1764
v 10.5216 		16.1532 		25.1764
v 8 		16.3185 		25.1764
v 5.4784 		16.1532 		25.1764
v 3 		15.6603 		25.1764
v 0.6071 		14.848 		25.1764
v -1.6593 		13.7303 		25.1764
v -3.7604 		12.3264 		25.1764
v -5.6603 		10.6603 		25.1764
v -7.3264 		8.7604 		25.1764
v -8.7303 		6.6593 		25.1764
v -9.848 		4.3929 		25.1764
v -10.6603 		2 		25.1764
v -11.1532 		-0.4784 		25.1764
v -11.8289 		-3 		22.6105
v -11.6593 		-5.5882 		22.6105
v -11.1532 		-8.1321 		22.6105
v -10.3195 		-10.5882 		22.6105
v -9.1723 		-12.9144 		22.6105
v -7.7313 		-15.0711 		22.6105
v -6.0211 		-17.0211 		22.6105
v -4.0711 		-18.7313 		22.6105
v -1.9144 		-20.1723 		22.6105
v 0.4118 		-21.3195 		22.6105
v 2.8679 		-22.1532 		22.6105
v 5.4118 		-22.6593 		22.6105
v 8 		-22.8289 		22.6105
v 10.5882 		-22.6593 		22.6105
v 13.1321 		-22.1532 		22.6105
v 15.5882 		-21.3195 		22.6105
v 17.9144 		-20.1723 		22.6105
v 20.0711 		-18.7313 		22.6105
v 22.0211 		-17.0211 		22.6105
v 23.7313 		-15.0711 		22.6105
v 25.1723 		-12.9144 		22.6105
v 26.3195 		-10.5882 		22.6105
v 27.1532 		-8.1321 		22.6105
v 27.6593 		-5.5882 		22.6105
v 27.8289 		-3 		22.6105
v 27.6593 		-0.4118 		22.6105
v 27.1532 		2.1321 		22.6105
v 26.3195 		4.5882 		22.6105
v 25.1723 		6.9144 		22.6105
v 23.7313 		9.0711 		22.6105
v 22.0211 		11.0211 		22.6105
v 20.0711 		12.7313 		22.6105
v 17.9144 		14.1723 		22.6105
v 15.5882 		15.3195 		22.6105
v 13.1321 		16.1532 		22.6105
v 10.5882 		16.6593 		22.6105
v 8 		16.8289 		22.6105
v 5.4118 		16.6593 		22.6105
v 2.8679 		16.1532 		22.6105
v 0.4118 		15.3195 		22.6105
v -1.9144 		14.1723 		22.6105
v -4.0711 		12.7313 		22.6105
v -6.0211 		11.0211 		22.6105
v -7.7313 		9.0711 		22.6105
v -9.1723 		6.9144 		22.6105
v -10.3195 		4.5882 		22.6105
v -11.1532 		2.1321 		22.6105
v -11.6593 		-0.4118 		22.6105
v -12 		-3 		20
v -11.8289 		-5.6105 		20
v -11.3185 		-8.1764 		20
v -10.4776 		-10.6537 		20
v -9.3205 		-13 		20
v -7.8671 		-15.1752 		20
v -6.1421 		-17.1421 		20
v -4.1752 		-18.8671 		20
v -2 		-20.3205 		20
v 0.3463 		-21.4776 		20
v 2.8236 		-22.3185 		20
v 5.3895 		-22.8289 		20
v 8 		-23 		20
v 10.6105 		-22.8289 		20
v 13.1764 		-22.3185 		20
v 15.6537 		-21.4776 		20
v 18 		-20.3205 		20
v 20.1752 		-18.8671 		20
v 22.1421 		-17.1421 		20
v 23.8671 		-15.1752 		20
v 25.3205 		-13 		20
v 26.4776 		-10.6537 		20
v 27.3185 		-8.1764 		20
v 27.8289 		-5.6105 		20
v 28 		-3 		20
v 27.8289 		-0.3895 		20
v 27.3185 		2.1764 		20
v 26.4776 		4.6537 		20
v 25.3205 		7 		20
v 23.8671 		9.1752 		20
v 22.1421 		11.1421 		20
v 20.1752 		12.8671 		20
v 18 		14.3205 		20
v 15.6537 		15.4776 		20
v 13.1764 		16.3185 		20
v 10.6105 		16.8289 		20
v 8 		17 		20
v 5.3895 		16.8289 		20
v 2.8236 		16.3185 		20
v 0.3463 		15.4776 		20
v -2 		14.3205 		20
v -4.1752 		12.8671 		20
v -6.1421 		11.1421 		20
v -7.8671 		9.1752 		20
v -9.3205 		7 		20
v -10.4776 		4.6537 		20
v -11.3185 		2.1764 		20
v -11.8289 		-0.3895 		20
v -11.8289 		-3 		17.3895
v -11.6593 		-5.5882 		17.3895
v -11.1532 		-8.1321 		17.3895
v -10.3195 		-10.5882 		17.3895
v -9.1723 		-12.9144 		17.3895
v -7.7313 		-15.0711 		17.3895
v -6.0211 		-17.0211 		17.3895
v -4.0711 		-18.7313 		17.3895
v -1.9144 		-20.1723 		17.3895
v 0.4118 		-21.3195 		17.3895
v 2.8679 		-22.1532 		17.3895
v 5.4118 		-22.6593 		17.3895
v 8 		-22.8289 		17.3895
v 10.5882 		-22.6593 		17.3895
v 13.1321 		-22.1532 		17.3895
v 15.5882 		-21.3195 		17.3895
v 17.9144 		-20.1723 		17.3895
v 20.0711 		-18.7313 		17.3895
v 22.0211 		-17.0211 		17.3895
v 23.7313 		-15.0711 		17.3895
v 25.1723 		-12.9144 		17.3895
v 26.3195 		-10.5882 		17.3895
v 27.1532 		-8.1321 		17.3895
v 27.6593 		-5.5882 		17.3895
v 27.8289 		-3 		17.3895
v 27.6593 		-0.4118 		17.3895
v 27.1532 		2.1321 		17.3895
v 26.3195 		4.5882 		17.3895
v 25.1723 		6.9144 		17.3895
v 23.7313 		9.0711 		17.3895
v 22.0211 		11.0211 		17.3895
v 20.0711 		12.7313 		17.3895
v 17.9144 		14.1723 		17.3895
v 15.5882 		15.3195 		17.3895
v 13.1321 		16.1532 		17.3895
v 10.5882 		16.6593 		17.3895
v 8 		16.8289 		17.3895
v 5.4118 		16.6593 		17.3895
v 2.8679 		16.1532 		17.3895
v 0.4118 		15.3195 		17.3895
v -1.9144 		14.1723 		17.3895
v -4.0711 		12.7313 		17.3895
v -6.0211 		11.0211 		17.3895
v -7.7313 		9.0711 		17.3895
v -9.1723 		6.9144 		17.3895
v -10.3195 		4.5882 		17.3895
v -11.1532 		2.1321 		17.3895
v -11.6593 		-0.4118 		17.3895
v -11.3185 		-3 		14.8236
v -11.1532 		-5.5216 		14.8236
v -10.6603 		-8 		14.8236
v -9.848 		-10.3929 		14.8236
v -8.7303 		-12.6593 		14.8236
v -7.3264 		-14.7604 		14.8236
v -5.6603 		-16.6603 		14.8236
v -3.7604 		-18.3264 		14.8236
v -1.6593 		-19.7303 		14.8236
v 0.6071 		-20.848 		14.8236
v 3 		-21.6603 		14.8236
v 5.4784 		-22.1532 		14.8236
v 8 		-22.3185 		14.8236
v 10.5216 		-22.1532 		14.8236
v 13 		-21.6603 		14.8236
v 15.3929 		-20.848 		14.8236
v 17.6593 		-19.7303 		14.8236
v 19.7604 		-18.3264 		14.8236
v 21.6603 		-16.6603 		14.8236
v 23.3264 		-14.7604 		14.8236
v 24.7303 		-12.6593 		14.8236
v 25.848 		-10.3929 		14.8236
v 26.6603 		-8 		14.8236
v 27.1532 		-5.5216 		14.8236
v 27.3185 		-3 		14.8236
v 27.1532 		-0.4784 		14.8236
v 26.6603 		2 		14.8236
v 25.848 		4.3929 		14.8236
v 24.7303 		6.6593 		14.8236
v 23.3264 		8.7604 		14.8236
v 21.6603 		10.6603 		14.8236
v 19.7604 		12.3264 		14.8236
v 17.6593 		13.7303 		14.8236
v 15.3929 		14.848 		14.8236
v 13 		15.6603 		14.8236
v 10.5216 		16.1532 		14.8236
v 8 		16.3185 		14.8236
v 5.4784 		16.1532 		14.8236
v 3 		15.6603 		14.8236
v 0.6071 		14.848 		14.8236
v -1.6593 		13.7303 		14.8236
v -3.7604 		12.3264 		14.8236
v -5.6603 		10.6603 		14.8236
v -7.3264 		8.7604 		14.8236
v -8.7303 		6.6593 		14.8236
v -9.848 		4.3929 		14.8236
v -10.6603 		2 		14.8236
v -11.1532 		-0.4784 		14.8236
v -10.4776 		-3 		12.3463
v -10.3195 		-5.4118 		12.3463
v -9.848 		-7.7824 		12.3463
v -9.0711 		-10.0711 		12.3463
v -8.0021 		-12.2388 		12.3463
v -6.6593 		-14.2484 		12.3463
v -5.0656 		-16.0656 		12.3463
v -3.2484 		-17.6593 		12.3463
v -1.2388 		-19.0021 		12.3463
v 0.9289 		-20.0711 		12.3463
v 3.2176 		-20.848 		12.3463
v 5.5882 		-21.3195 		12.3463
v 8 		-21.4776 		12.3463
v 10.4118 		-21.3195 		12.3463
v 12.7824 		-20.848 		12.3463
v 15.0711 		-20.0711 		12.3463
v 17.2388 		-19.0021 		12.3463
v 19.2484 		-17.6593 		12.3463
v 21.0656 		-16.0656 		12.3463
v 22.6593 		-14.2484 		12.3463
v 24.0021 		-12.2388 		12.3463
v 25.0711 		-10.0711 		12.3463
v 25.848 		-7.7824 		12.3463
v 26.3195 		-5.4118 		12.3463
v 26.4776 		-3 		12.3463
v 26.3195 		-0.5882 		12.3463
v 25.848 		1.7824 		12.3463
v 25.0711 		4.0711 		12.3463
v 24.0021 		6.2388 		12.3463
v 22.6593 		8.2484 		12.3463
v 21.0656 		10.0656 		12.3463
v 19.2484 		11.6593 		12.3463
v 17.2388 		13.0021 		12.3463
v 15.0711 		14.0711 		12.3463
v 12.7824 		14.848 		12.3463
v 10.4118 		15.3195 		12.3463
v 8 		15.4776 		12.3463
v 5.5882 		15.3195 		12.3463
v 3.2176 		14.848 		12.3463
v 0.9289 		14.0711 		12.3463
v -1.2388 		13.0021 		12.3463
v -3.2484 		11.6593 		12.3463
v -5.0656 		10.0656 		12.3463
v -6.6593 		8.2484 		12.3463
v -8.0021 		6.2388 		12.3463
v -9.0711 		4.0711 		12.3463
v -9.848 		1.7824 		12.3463
v -10.3195 		-0.5882 		12.3463
v -9.3205 		-3 		10
v -9.1723 		-5.2608 		10
v -8.7303 		-7.4829 		10
v -8.0021 		-9.6283 		10
v -7 		-11.6603 		10
v -5.7413 		-13.5441 		10
v -4.2474 		-15.2474 		10
v -2.5441 		-16.7413 		10
v -0.6603 		-18 		10
v 1.3717 		-19.0021 		10
v 3.5171 		-19.7303 		10
v 5.7392 		-20.1723 		10
v 8 		-20.3205 		10
v 10.2608 		-20.1723 		10
v 12.4829 		-19.7303 		10
v 14.6283 		-19.0021 		10
v 16.6603 		-18 		10
v 18.5441 		-16.7413 		10
v 20.2474 		-15.2474 		10
v 21.7413 		-13.5441 		10
v 23 		-11.6603 		10
v 24.0021 		-9.6283 		10
v 24.7303 		-7.4829 		10
v 25.1723 		-5.2608 		10
v 25.3205 		-3 		10
v 25.1723 		-0.7392 		10
v 24.7303 		1.4829 		10
v 24.0021 		3.6283 		10
v 23 		5.6603 		10
v 21.7413 		7.5441 		10
v 20.2474 		9.2474 		10
v 18.5441 		10.7413 		10
v 16.6603 		12 		10
v 14.6283 		13.0021 		10
v 12.4829 		13.7303 		10
v 10.2608 		14.1723 		10
v 8 		14.3205 		10
v 5.7392 		14.1723 		10
v 3.5171 		13.7303 		10
v 1.3717 		13.0021 		10
v -0.6603 		12 		10
v -2.5441 		10.7413 		10
v -4.2474 		9.2474 		10
v -5.7413 		7.5441 		10
v -7 		5.6603 		10
v -8.0021 		3.6283 		10
v -8.7303 		1.4829 		10
v -9.1723 		-0.7392 		10
v -7.8671 		-3 		7.8248
v -7.7313 		-5.0711 		7.8248
v -7.3264 		-7.1067 		7.8248
v -6.6593 		-9.0721 		7.8248
v -5.7413 		-10.9335 		7.8248
v -4.5882 		-12.6593 		7.8248
v -3.2197 		-14.2197 		7.8248
v -1.6593 		-15.5882 		7.8248
v 0.0665 		-16.7413 		7.8248
v 1.9279 		-17.6593 		7.8248
v 3.8933 		-18.3264 		7.8248
v 5.9289 		-18.7313 		7.8248
v 8 		-18.8671 		7.8248
v 10.0711 		-18.7313 		7.8248
v 12.1067 		-18.3264 		7.8248
v 14.0721 		-17.6593 		7.8248
v 15.9335 		-16.7413 		7.8248
v 17.6593 		-15.5882 		7.8248
v 19.2197 		-14.2197 		7.8248
v 20.5882 		-12.6593 		7.8248
v 21.7413 		-10.9335 		7.8248
v 22.6593 		-9.0721 		7.8248
v 23.3264 		-7.1067 		7.8248
v 23.7313 		-5.0711 		7.8248
v 23.8671 		-3 		7.8248
v 23.7313 		-0.9289 		7.8248
v 23.3264 		1.1067 		7.8248
v 22.6593 		3.0721 		7.8248
v 21.7413 		4.9335 		7.8248
v 20.5882 		6.6593 		7.8248
v 19.2197 		8.2197 		7.8248
v 17.6593 		9.5882 		7.8248
v 15.9335 		10.7413 		7.8248
v 14.0721 		11.6593 		7.8248
v 12.1067 		12.3264 		7.8248
v 10.0711 		12.7313 		7.8248
v 8 		12.8671 		7.8248
v 5.9289 		12.7313 		7.8248
v 3.8933 		12.3264 		7.8248
v 1.9279 		11.6593 		7.8248
v 0.0665 		10.7413 		7.8248
v -1.6593 		9.5882 		7.8248
v -3.2197 		8.2197 		7.8248
v -4.5882 		6.6593 		7.8248
v -5.7413 		4.9335 		7.8248
v -6.6593 		3.0721 		7.8248
v -7.3264 		1.1067 		7.8248
v -7.7313 		-0.9289 		7.8248
v -6.1421 		-3 		5.8579
v -6.0211 		-4.8459 		5.8579
v -5.6603 		-6.6603 		5.8579
v -5.0656 		-8.412 		5.8579
v -4.2474 		-10.0711 		5.8579
v -3.2197 		-11.6092 		5.8579
v -2 		-13 		5.8579
v -0.6092 		-14.2197 		5.8579
v 0.9289 		-15.2474 		5.8579
v 2.588 		-16.0656 		5.8579
v 4.3397 		-16.6603 		5.8579
v 6.1541 		-17.0211 		5.8579
v 8 		-17.1421 		5.8579
v 9.8459 		-17.0211 		5.8579
v 11.6603 		-16.6603 		5.8579
v 13.412 		-16.0656 		5.8579
v 15.0711 		-15.2474 		5.8579
v 16.6092 		-14.2197 		5.8579
v 18 		-13 		5.8579
v 19.2197 		-11.6092 		5.8579
v 20.2474 		-10.0711 		5.8579
v 21.0656 		-8.412 		5.8579
v 21.6603 		-6.6603 		5.8579
v 22.0211 		-4.8459 		5.8579
v 22.1421 		-3 		5.8579
v 22.0211 		-1.1541 		5.8579
v 21.6603 		0.6603 		5.8579
v 21.0656 		2.412 		5.8579
v 20.2474 		4.0711 		5.8579
v 19.2197 		5.6092 		5.8579
v 18 		7 		5.8579
v 16.6092 		8.2197 		5.8579
v 15.0711 		9.2474 		5.8579
v 13.412 		10.0656 		5.8579
v 11.6603 		10.6603 		5.8579
v 9.8459 		11.0211 		5.8579
v 8 		11.1421 		5.8579
v 6.1541 		11.0211 		5.8579
v 4.3397 		10.6603 		5.8579
v 2.588 		10.0656 		5.8579
v 0.9289 		9.2474 		5.8579
v -0.6092 		8.2197 		5.8579
v -2 		7 		5.8579
v -3.2197 		5.6092 		5.8579
v -4.2474 		4.0711 		5.8579
v -5.0656 		2.412 		5.8579
v -5.6603 		0.6603 		5.8579
v -6.0211 		-1.1541 		5.8579
v -4.1752 		-3 		4.1329
v -4.0711 		-4.5892 		4.1329
v -3.7604 		-6.1512 		4.1329
v -3.2484 		-7.6593 		4.1329
v -2.5441 		-9.0876 		4.1329
v -1.6593 		-10.4118 		4.1329
v -0.6092 		-11.6092 		4.1329
v 0.5882 		-12.6593 		4.1329
v 1.9124 		-13.5441 		4.1329
v 3.3407 		-14.2484 		4.1329
v 4.8488 		-14.7604 		4.1329
v 6.4108 		-15.0711 		4.1329
v 8 		-15.1752 		4.1329
v 9.5892 		-15.0711 		4.1329
v 11.1512 		-14.7604 		4.1329
v 12.6593 		-14.2484 		4.1329
v 14.0876 		-13.5441 		4.1329
v 15.4118 		-12.6593 		4.1329
v 16.6092 		-11.6092 		4.1329
v 17.6593 		-10.4118 		4.1329
v 18.5441 		-9.0876 		4.1329
v 19.2484 		-7.6593 		4.1329
v 19.7604 		-6.1512 		4.1329
v 20.0711 		-4.5892 		4.1329
v 20.1752 		-3 		4.1329
v 20.0711 		-1.4108 		4.1329
v 19.7604 		0.1512 		4.1329
v 19.2484 		1.6593 		4.1329
v 18.5441 		3.0876 		4.1329
v 17.6593 		4.4118 		4.1329
v 16.6092 		5.6092 		4.1329
v 15.4118 		6.6593 		4.1329
v 14.0876 		7.5441 		4.1329
v 12.6593 		8.2484 		4.1329
v 11.1512 		8.7604 		4.1329
v 9.5892 		9.0711 		4.1329
v 8 		9.1752 		4.1329
v 6.4108 		9.0711 		4.1329
v 4.8488 		8.7604 		4.1329
v 3.3407 		8.2484 		4.1329
v 1.9124 		7.5441 		4.1329
v 0.5882 		6.6593 		4.1329
v -0.6092 		5.6092 		4.1329
v -1.6593 		4.4118 		4.1329
v -2.5441 		3.0876 		4.1329
v -3.2484 		1.6593 		4.1329
v -3.7604 		0.1512 		4.1329
v -4.0711 		-1.4108 		4.1329
v -2 		-3 		2.6795
v -1.9144 		-4.3053 		2.6795
v -1.6593 		-5.5882 		2.6795
v -1.2388 		-6.8268 		2.6795
v -0.6603 		-8 		2.6795
v 0.0665 		-9.0876 		2.6795
v 0.9289 		-10.0711 		2.6795
v 1.9124 		-10.9335 		2.6795
v 3 		-11.6603 		2.6795
v 4.1732 		-12.2388 		2.6795
v 5.4118 		-12.6593 		2.6795
v 6.6947 		-12.9144 		2.6795
v 8 		-13 		2.6795
v 9.3053 		-12.9144 		2.6795
v 10.5882 		-12.6593 		2.6795
v 11.8268 		-12.2388 		2.6795
v 13 		-11.6603 		2.6795
v 14.0876 		-10.9335 		2.6795
v 15.0711 		-10.0711 		2.6795
v 15.9335 		-9.0876 		2.6795
v 16.6603 		-8 		2.6795
v 17.2388 		-6.8268 		2.6795
v 17.6593 		-5.5882 		2.6795
v 17.9144 		-4.3053 		2.6795
v 18 		-3 		2.6795
v 17.9144 		-1.6947 		2.6795
v 17.6593 		-0.4118 		2.6795
v 17.2388 		0.8268 		2.6795
v 16.6603 		2 		2.6795
v 15.9335 		3.0876 		2.6795
v 15.0711 		4.0711 		2.6795
v 14.0876 		4.9335 		2.6795
v 13 		5.6603 		2.6795
v 11.8268 		6.2388 		2.6795
v 10.5882 		6.6593 		2.6795
v 9.3053 		6.9144 		2.6795
v 8 		7 		2.6795
v 6.6947 		6.9144 		2.6795
v 5.4118 		6.6593 		2.6795
v 4.1732 		6.2388 		2.6795
v 3 		5.6603 		2.6795
v 1.9124 		4.9335 		2.6795
v 0.9289 		4.0711 		2.6795
v 0.0665 		3.0876 		2.6795
v -0.6603 		2 		2.6795
v -1.2388 		0.8268 		2.6795
v -1.6593 		-0.4118 		2.6795
v -1.9144 		-1.6947 		2.6795
v 0.3463 		-3 		1.5224
v 0.4118 		-3.999 		1.5224
v 0.6071 		-4.9809 		1.5224
v 0.9289 		-5.9289 		1.5224
v 1.3717 		-6.8268 		1.5224
v 1.9279 		-7.6593 		1.5224
v 2.588 		-8.412 		1.5224
v 3.3407 		-9.0721 		1.5224
v 4.1732 		-9.6283 		1.5224
v 5.0711 		-10.0711 		1.5224
v 6.0191 		-10.3929 		1.5224
v 7.001 		-10.5882 		1.5224
v 8 		-10.6537 		1.5224
v 8.999 		-10.5882 		1.5224
v 9.9809 		-10.3929 		1.5224
v 10.9289 		-10.0711 		1.5224
v 11.8268 		-9.6283 		1.5224
v 12.6593 		-9.0721 		1.5224
v 13.412 		-8.412 		1.5224
v 14.0721 		-7.6593 		1.5224
v 14.6283 		-6.8268 		1.5224
v 15.0711 		-5.9289 		1.5224
v 15.3929 		-4.9809 		1.5224
v 15.5882 		-3.999 		1.5224
v 15.6537 		-3 		1.5224
v 15.5882 		-2.001 		1.5224
v 15.3929 		-1.0191 		1.5224
v 15.0711 		-0.0711 		1.5224
v 14.6283 		0.8268 		1.5224
v 14.0721 		1.6593 		1.5224
v 13.412 		2.412 		1.5224
v 12.6593 		3.0721 		1.5224
v 11.8268 		3.6283 		1.5224
v 10.9289 		4.0711 		1.5224
v 9.9809 		4.3929 		1.5224
v 8.999 		4.5882 		1.5224
v 8 		4.6537 		1.5224
v 7.001 		4.5882 		1.5224
v 6.0191 		4.3929 		1.5224
v 5.0711 		4.0711 		1.5224
v 4.1732 		3.6283 		1.5224
v 3.3407 		3.0721 		1.5224
v 2.588 		2.412 		1.5224
v 1.9279 		1.6593 		1.5224
v 1.3717 		0.8268 		1.5224
v 0.9289 		-0.0711 		1.5224
v 0.6071 		-1.0191 		1.5224
v 0.4118 		-2.001 		1.5224
v 2.8236 		-3 		0.6815
v 2.8679 		-3.6757 		0.6815
v 3 		-4.3397 		0.6815
v 3.2176 		-4.9809 		0.6815
v 3.5171 		-5.5882 		0.6815
v 3.8933 		-6.1512 		0.6815
v 4.3397 		-6.6603 		0.6815
v 4.8488 		-7.1067 		0.6815
v 5.4118 		-7.4829 		0.6815
v 6.0191 		-7.7824 		0.6815
v 6.6603 		-8 		0.6815
v 7.3243 		-8.1321 		0.6815
v 8 		-8.1764 		0.6815
v 8.6757 		-8.1321 		0.6815
v 9.3397 		-8 		0.6815
v 9.9809 		-7.7824 		0.6815
v 10.5882 		-7.4829 		0.6815
v 11.1512 		-7.1067 		0.6815
v 11.6603 		-6.6603 		0.6815
v 12.1067 		-6.1512 		0.6815
v 12.4829 		-5.5882 		0.6815
v 12.7824 		-4.9809 		0.6815
v 13 		-4.3397 		0.6815
v 13.1321 		-3.6757 		0.6815
v 13.1764 		-3 		0.6815
v 13.1321 		-2.3243 		0.6815
v 13 		-1.6603 		0.6815
v 12.7824 		-1.0191 		0.6815
v 12.4829 		-0.4118 		0.6815
v 12.1067 		0.1512 		0.6815
v 11.6603 		0.6603 		0.6815
v 11.1512 		1.1067 		0.6815
v 10.5882 		1.4829 		0.6815
v 9.9809 		1.7824 		0.6815
v 9.3397 		2 		0.6815
v 8.6757 		2.1321 		0.6815
v 8 		2.1764 		0.6815
v 7.3243 		2.1321 		0.6815
v 6.6603 		2 		0.6815
v 6.0191 		1.7824 		0.6815
v 5.4118 		1.4829 		0.6815
v 4.8488 		1.1067 		0.6815
v 4.3397 		0.6603 		0.6815
v 3.8933 		0.1512 		0.6815
v 3.5171 		-0.4118 		0.6815
v 3.2176 		-1.0191 		0.6815
v 3 		-1.6603 		0.6815
v 2.8679 		-2.3243 		0.6815
v 5.3895 		-3 		0.1711
v 5.4118 		-3.3407 		0.1711
v 5.4784 		-3.6757 		0.1711
v 5.5882 		-3.999 		0.1711
v 5.7392 		-4.3053 		0.1711
v 5.9289 		-4.5892 		0.1711
v 6.1541 		-4.8459 		0.1711
v 6.4108 		-5.0711 		0.1711
v 6.6947 		-5.2608 		0.1711
v 7.001 		-5.4118 		0.1711
v 7.3243 		-5.5216 		0.1711
v 7.6593 		-5.5882 		0.1711
v 8 		-5.6105 		0.1711
v 8.3407 		-5.5882 		0.1711
v 8.6757 		-5.5216 		0.1711
v 8.999 		-5.4118 		0.1711
v 9.3053 		-5.2608 		0.1711
v 9.5892 		-5.0711 		0.1711
v 9.8459 		-4.8459 		0.1711
v 10.0711 		-4.5892 		0.1711
v 10.2608 		-4.3053 		0.1711
v 10.4118 		-3.999 		0.1711
v 10.5216 		-3.6757 		0.1711
v 10.5882 		-3.3407 		0.1711
v 10.6105 		-3 		0.1711
v 10.5882 		-2.6593 		0.1711
v 10.5216 		-2.3243 		0.1711
v 10.4118 		-2.001 		0.1711
v 10.2608 		-1.6947 		0.1711
v 10.0711 		-1.4108 		0.1711
v 9.8459 		-1.1541 		0.1711
v 9.5892 		-0.9289 		0.1711
v 9.3053 		-0.7392 		0.1711
v 8.999 		-0.5882 		0.1711
v 8.6757 		-0.4784 		0.1711
v 8.3407 		-0.4118 		0.1711
v 8 		-0.3895 		0.1711
v 7.6593 		-0.4118 		0.1711
v 7.3243 		-0.4784 		0.1711
v 7.001 		-0.5882 		0.1711
v 6.6947 		-0.7392 		0.1711
v 6.4108 		-0.9289 		0.1711
v 6.1541 		-1.1541 		0.1711
v 5.9289 		-1.4108 		0.1711
v 5.7392 		-1.6947 		0.1711
v 5.5882 		-2.001 		0.1711
v 5.4784 		-2.3243 		0.1711
v 5.4118 		-2.6593 		0.1711
v 8 		-3 		0
# 1106 vertices

g group_0_40919

usemtl color_40919
s 0

f 1 	2 	3
f 1 	3 	4
f 1 	4 	5
f 1 	5 	6
f 1 	6 	7
f 1 	7 	8
f 1 	8 	9
f 1 	9 	10
f 1 	10 	11
f 1 	11 	12
f 1 	12 	13
f 1 	13 	14
f 1 	14 	15
f 1 	15 	16
f 1 	16 	17
f 1 	17 	18
f 1 	18 	19
f 1 	19 	20
f 1 	20 	21
f 1 	21 	22
f 1 	22 	23
f 1 	23 	24
f 1 	24 	25
f 1 	25 	26
f 1 	26 	27
f 1 	27 	28
f 1 	28 	29
f 1 	29 	30
f 1 	30 	31
f 1 	31 	32
f 1 	32 	33
f 1 	33 	34
f 1 	34 	35
f 1 	35 	36
f 1 	36 	37
f 1 	37 	38
f 1 	38 	39
f 1 	39 	40
f 1 	40 	41
f 1 	41 	42
f 1 	42 	43
f 1 	43 	44
f 1 	44 	45
f 1 	45 	46
f 1 	46 	47
f 1 	47 	48
f 1 	48 	49
f 1 	49 	2
f 3 	2 	51
f 2 	50 	51
f 4 	3 	52
f 3 	51 	52
f 5 	4 	53
f 4 	52 	53
f 6 	5 	54
f 5 	53 	54
f 7 	6 	55
f 6 	54 	55
f 8 	7 	56
f 7 	55 	56
f 9 	8 	57
f 8 	56 	57
f 10 	9 	58
f 9 	57 	58
f 11 	10 	59
f 10 	58 	59
f 12 	11 	60
f 11 	59 	60
f 13 	12 	61
f 12 	60 	61
f 14 	13 	62
f 13 	61 	62
f 15 	14 	63
f 14 	62 	63
f 16 	15 	64
f 15 	63 	64
f 17 	16 	65
f 16 	64 	65
f 18 	17 	66
f 17 	65 	66
f 19 	18 	67
f 18 	66 	67
f 20 	19 	68
f 19 	67 	68
f 21 	20 	69
f 20 	68 	69
f 22 	21 	70
f 21 	69 	70
f 23 	22 	71
f 22 	70 	71
f 24 	23 	72
f 23 	71 	72
f 25 	24 	73
f 24 	72 	73
f 26 	25 	74
f 25 	73 	74
f 27 	26 	75
f 26 	74 	75
f 28 	27 	76
f 27 	75 	76
f 29 	28 	77
f 28 	76 	77
f 30 	29 	78
f 29 	77 	78
f 31 	30 	79
f 30 	78 	79
f 32 	31 	80
f 31 	79 	80
f 33 	32 	81
f 32 	80 	81
f 34 	33 	82
f 33 	81 	82
f 35 	34 	83
f 34 	82 	83
f 36 	35 	84
f 35 	83 	84
f 37 	36 	85
f 36 	84 	85
f 38 	37 	86
f 37 	85 	86
f 39 	38 	87
f 38 	86 	87
f 40 	39 	88
f 39 	87 	88
f 41 	40 	89
f 40 	88 	89
f 42 	41 	90
f 41 	89 	90
f 43 	42 	91
f 42 	90 	91
f 44 	43 	92
f 43 	91 	92
f 45 	44 	93
f 44 	92 	93
f 46 	45 	94
f 45 	93 	94
f 47 	46 	95
f 46 	94 	95
f 48 	47 	96
f 47 	95 	96
f 49 	48 	97
f 48 	96 	97
f 2 	49 	50
f 49 	97 	50
f 51 	50 	99
f 50 	98 	99
f 52 	51 	100
f 51 	99 	100
f 53 	52 	101
f 52 	100 	101
f 54 	53 	102
f 53 	101 	102
f 55 	54 	103
f 54 	102 	103
f 56 	55 	104
f 55 	103 	104
f 57 	56 	105
f 56 	104 	105
f 58 	57 	106
f 57 	105 	106
f 59 	58 	107
f 58 	106 	107
f 60 	59 	108
f 59 	107 	108
f 61 	60 	109
f 60 	108 	109
f 62 	61 	110
f 61 	109 	110
f 63 	62 	111
f 62 	110 	111
f 64 	63 	112
f 63 	111 	112
f 65 	64 	113
f 64 	112 	113
f 66 	65 	114
f 65 	113 	114
f 67 	66 	115
f 66 	114 	115
f 68 	67 	116
f 67 	115 	116
f 69 	68 	117
f 68 	116 	117
f 70 	69 	118
f 69 	117 	118
f 71 	70 	119
f 70 	118 	119
f 72 	71 	120
f 71 	119 	120
f 73 	72 	121
f 72 	120 	121
f 74 	73 	122
f 73 	121 	122
f 75 	74 	123
f 74 	122 	123
f 76 	75 	124
f 75 	123 	124
f 77 	76 	125
f 76 	124 	125
f 78 	77 	126
f 77 	125 	126
f 79 	78 	127
f 78 	126 	127
f 80 	79 	128
f 79 	127 	128
f 81 	80 	129
f 80 	128 	129
f 82 	81 	130
f 81 	129 	130
f 83 	82 	131
f 82 	130 	131
f 84 	83 	132
f 83 	131 	132
f 85 	84 	133
f 84 	132 	133
f 86 	85 	134
f 85 	133 	134
f 87 	86 	135
f 86 	134 	135
f 88 	87 	136
f 87 	135 	136
f 89 	88 	137
f 88 	136 	137
f 90 	89 	138
f 89 	137 	138
f 91 	90 	139
f 90 	138 	139
f 92 	91 	140
f 91 	139 	140
f 93 	92 	141
f 92 	140 	141
f 94 	93 	142
f 93 	141 	142
f 95 	94 	143
f 94 	142 	143
f 96 	95 	144
f 95 	143 	144
f 97 	96 	145
f 96 	144 	145
f 50 	97 	98
f 97 	145 	98
f 99 	98 	147
f 98 	146 	147
f 100 	99 	148
f 99 	147 	148
f 101 	100 	149
f 100 	148 	149
f 102 	101 	150
f 101 	149 	150
f 103 	102 	151
f 102 	150 	151
f 104 	103 	152
f 103 	151 	152
f 105 	104 	153
f 104 	152 	153
f 106 	105 	154
f 105 	153 	154
f 107 	106 	155
f 106 	154 	155
f 108 	107 	156
f 107 	155 	156
f 109 	108 	157
f 108 	156 	157
f 110 	109 	158
f 109 	157 	158
f 111 	110 	159
f 110 	158 	159
f 112 	111 	160
f 111 	159 	160
f 113 	112 	161
f 112 	160 	161
f 114 	113 	162
f 113 	161 	162
f 115 	114 	163
f 114 	162 	163
f 116 	115 	164
f 115 	163 	164
f 117 	116 	165
f 116 	164 	165
f 118 	117 	166
f 117 	165 	166
f 119 	118 	167
f 118 	166 	167
f 120 	119 	168
f 119 	167 	168
f 121 	120 	169
f 120 	168 	169
f 122 	121 	170
f 121 	169 	170
f 123 	122 	171
f 122 	170 	171
f 124 	123 	172
f 123 	171 	172
f 125 	124 	173
f 124 	172 	173
f 126 	125 	174
f 125 	173 	174
f 127 	126 	175
f 126 	174 	175
f 128 	127 	176
f 127 	175 	176
f 129 	128 	177
f 128 	176 	177
f 130 	129 	178
f 129 	177 	178
f 131 	130 	179
f 130 	178 	179
f 132 	131 	180
f 131 	179 	180
f 133 	132 	181
f 132 	180 	181
f 134 	133 	182
f 133 	181 	182
f 135 	134 	183
f 134 	182 	183
f 136 	135 	184
f 135 	183 	184
f 137 	136 	185
f 136 	184 	185
f 138 	137 	186
f 137 	185 	186
f 139 	138 	187
f 138 	186 	187
f 140 	139 	188
f 139 	187 	188
f 141 	140 	189
f 140 	188 	189
f 142 	141 	190
f 141 	189 	190
f 143 	142 	191
f 142 	190 	191
f 144 	143 	192
f 143 	191 	192
f 145 	144 	193
f 144 	192 	193
f 98 	145 	146
f 145 	193 	146
f 147 	146 	195
f 146 	194 	195
f 148 	147 	196
f 147 	195 	196
f 149 	148 	197
f 148 	196 	197
f 150 	149 	198
f 149 	197 	198
f 151 	150 	199
f 150 	198 	199
f 152 	151 	200
f 151 	199 	200
f 153 	152 	201
f 152 	200 	201
f 154 	153 	202
f 153 	201 	202
f 155 	154 	203
f 154 	202 	203
f 156 	155 	204
f 155 	203 	204
f 157 	156 	205
f 156 	204 	205
f 158 	157 	206
f 157 	205 	206
f 159 	158 	207
f 158 	206 	207
f 160 	159 	208
f 159 	207 	208
f 161 	160 	209
f 160 	208 	209
f 162 	161 	210
f 161 	209 	210
f 163 	162 	211
f 162 	210 	211
f 164 	163 	212
f 163 	211 	212
f 165 	164 	213
f 164 	212 	213
f 166 	165 	214
f 165 	213 	214
f 167 	166 	215
f 166 	214 	215
f 168 	167 	216
f 167 	215 	216
f 169 	168 	217
f 168 	216 	217
f 170 	169 	218
f 169 	217 	218
f 171 	170 	219
f 170 	218 	219
f 172 	171 	220
f 171 	219 	220
f 173 	172 	221
f 172 	220 	221
f 174 	173 	222
f 173 	221 	222
f 175 	174 	223
f 174 	222 	223
f 176 	175 	224
f 175 	223 	224
f 177 	176 	225
f 176 	224 	225
f 178 	177 	226
f 177 	225 	226
f 179 	178 	227
f 178 	226 	227
f 180 	179 	228
f 179 	227 	228
f 181 	180 	229
f 180 	228 	229
f 182 	181 	230
f 181 	229 	230
f 183 	182 	231
f 182 	230 	231
f 184 	183 	232
f 183 	231 	232
f 185 	184 	233
f 184 	232 	233
f 186 	185 	234
f 185 	233 	234
f 187 	186 	235
f 186 	234 	235
f 188 	187 	236
f 187 	235 	236
f 189 	188 	237
f 188 	236 	237
f 190 	189 	238
f 189 	237 	238
f 191 	190 	239
f 190 	238 	239
f 192 	191 	240
f 191 	239 	240
f 193 	192 	241
f 192 	240 	241
f 146 	193 	194
f 193 	241 	194
f 195 	194 	243
f 194 	242 	243
f 196 	195 	244
f 195 	243 	244
f 197 	196 	245
f 196 	244 	245
f 198 	197 	246
f 197 	245 	246
f 199 	198 	247
f 198 	246 	247
f 200 	199 	248
f 199 	247 	248
f 201 	200 	249
f 200 	248 	249
f 202 	201 	250
f 201 	249 	250
f 203 	202 	251
f 202 	250 	251
f 204 	203 	252
f 203 	251 	252
f 205 	204 	253
f 204 	252 	253
f 206 	205 	254
f 205 	253 	254
f 207 	206 	255
f 206 	254 	255
f 208 	207 	256
f 207 	255 	256
f 209 	208 	257
f 208 	256 	257
f 210 	209 	258
f 209 	257 	258
f 211 	210 	259
f 210 	258 	259
f 212 	211 	260
f 211 	259 	260
f 213 	212 	261
f 212 	260 	261
f 214 	213 	262
f 213 	261 	262
f 215 	214 	263
f 214 	262 	263
f 216 	215 	264
f 215 	263 	264
f 217 	216 	265
f 216 	264 	265
f 218 	217 	266
f 217 	265 	266
f 219 	218 	267
f 218 	266 	267
f 220 	219 	268
f 219 	267 	268
f 221 	220 	269
f 220 	268 	269
f 222 	221 	270
f 221 	269 	270
f 223 	222 	271
f 222 	270 	271
f 224 	223 	272
f 223 	271 	272
f 225 	224 	273
f 224 	272 	273
f 226 	225 	274
f 225 	273 	274
f 227 	226 	275
f 226 	274 	275
f 228 	227 	276
f 227 	275 	276
f 229 	228 	277
f 228 	276 	277
f 230 	229 	278
f 229 	277 	278
f 231 	230 	279
f 230 	278 	279
f 232 	231 	280
f 231 	279 	280
f 233 	232 	281
f 232 	280 	281
f 234 	233 	282
f 233 	281 	282
f 235 	234 	283
f 234 	282 	283
f 236 	235 	284
f 235 	283 	284
f 237 	236 	285
f 236 	284 	285
f 238 	237 	286
f 237 	285 	286
f 239 	238 	287
f 238 	286 	287
f 240 	239 	288
f 239 	287 	288
f 241 	240 	289
f 240 	288 	289
f 194 	241 	242
f 241 	289 	242
f 243 	242 	291
f 242 	290 	291
f 244 	243 	292
f 243 	291 	292
f 245 	244 	293
f 244 	292 	293
f 246 	245 	294
f 245 	293 	294
f 247 	246 	295
f 246 	294 	295
f 248 	247 	296
f 247 	295 	296
f 249 	248 	297
f 248 	296 	297
f 250 	249 	298
f 249 	297 	298
f 251 	250 	299
f 250 	298 	299
f 252 	251 	300
f 251 	299 	300
f 253 	252 	301
f 252 	300 	301
f 254 	253 	302
f 253 	301 	302
f 255 	254 	303
f 254 	302 	303
f 256 	255 	304
f 255 	303 	304
f 257 	256 	305
f 256 	304 	305
f 258 	257 	306
f 257 	305 	306
f 259 	258 	307
f 258 	306 	307
f 260 	259 	308
f 259 	307 	308
f 261 	260 	309
f 260 	308 	309
f 262 	261 	310
f 261 	309 	310
f 263 	262 	311
f 262 	310 	311
f 264 	263 	312
f 263 	311 	312
f 265 	264 	313
f 264 	312 	313
f 266 	265 	314
f 265 	313 	314
f 267 	266 	315
f 266 	314 	315
f 268 	267 	316
f 267 	315 	316
f 269 	268 	317
f 268 	316 	317
f 270 	269 	318
f 269 	317 	318
f 271 	270 	319
f 270 	318 	319
f 272 	271 	320
f 271 	319 	320
f 273 	272 	321
f 272 	320 	321
f 274 	273 	322
f 273 	321 	322
f 275 	274 	323
f 274 	322 	323
f 276 	275 	324
f 275 	323 	324
f 277 	276 	325
f 276 	324 	325
f 278 	277 	326
f 277 	325 	326
f 279 	278 	327
f 278 	326 	327
f 280 	279 	328
f 279 	327 	328
f 281 	280 	329
f 280 	328 	329
f 282 	281 	330
f 281 	329 	330
f 283 	282 	331
f 282 	330 	331
f 284 	283 	332
f 283 	331 	332
f 285 	284 	333
f 284 	332 	333
f 286 	285 	334
f 285 	333 	334
f 287 	286 	335
f 286 	334 	335
f 288 	287 	336
f 287 	335 	336
f 289 	288 	337
f 288 	336 	337
f 242 	289 	290
f 289 	337 	290
f 291 	290 	339
f 290 	338 	339
f 292 	291 	340
f 291 	339 	340
f 293 	292 	341
f 292 	340 	341
f 294 	293 	342
f 293 	341 	342
f 295 	294 	343
f 294 	342 	343
f 296 	295 	344
f 295 	343 	344
f 297 	296 	345
f 296 	344 	345
f 298 	297 	346
f 297 	345 	346
f 299 	298 	347
f 298 	346 	347
f 300 	299 	348
f 299 	347 	348
f 301 	300 	349
f 300 	348 	349
f 302 	301 	350
f 301 	349 	350
f 303 	302 	351
f 302 	350 	351
f 304 	303 	352
f 303 	351 	352
f 305 	304 	353
f 304 	352 	353
f 306 	305 	354
f 305 	353 	354
f 307 	306 	355
f 306 	354 	355
f 308 	307 	356
f 307 	355 	356
f 309 	308 	357
f 308 	356 	357
f 310 	309 	358
f 309 	357 	358
f 311 	310 	359
f 310 	358 	359
f 312 	311 	360
f 311 	359 	360
f 313 	312 	361
f 312 	360 	361
f 314 	313 	362
f 313 	361 	362
f 315 	314 	363
f 314 	362 	363
f 316 	315 	364
f 315 	363 	364
f 317 	316 	365
f 316 	364 	365
f 318 	317 	366
f 317 	365 	366
f 319 	318 	367
f 318 	366 	367
f 320 	319 	368
f 319 	367 	368
f 321 	320 	369
f 320 	368 	369
f 322 	321 	370
f 321 	369 	370
f 323 	322 	371
f 322 	370 	371
f 324 	323 	372
f 323 	371 	372
f 325 	324 	373
f 324 	372 	373
f 326 	325 	374
f 325 	373 	374
f 327 	326 	375
f 326 	374 	375
f 328 	327 	376
f 327 	375 	376
f 329 	328 	377
f 328 	376 	377
f 330 	329 	378
f 329 	377 	378
f 331 	330 	379
f 330 	378 	379
f 332 	331 	380
f 331 	379 	380
f 333 	332 	381
f 332 	380 	381
f 334 	333 	382
f 333 	381 	382
f 335 	334 	383
f 334 	382 	383
f 336 	335 	384
f 335 	383 	384
f 337 	336 	385
f 336 	384 	385
f 290 	337 	338
f 337 	385 	338
f 339 	338 	387
f 338 	386 	387
f 340 	339 	388
f 339 	387 	388
f 341 	340 	389
f 340 	388 	389
f 342 	341 	390
f 341 	389 	390
f 343 	342 	391
f 342 	390 	391
f 344 	343 	392
f 343 	391 	392
f 345 	344 	393
f 344 	392 	393
f 346 	345 	394
f 345 	393 	394
f 347 	346 	395
f 346 	394 	395
f 348 	347 	396
f 347 	395 	396
f 349 	348 	397
f 348 	396 	397
f 350 	349 	398
f 349 	397 	398
f 351 	350 	399
f 350 	398 	399
f 352 	351 	400
f 351 	399 	400
f 353 	352 	401
f 352 	400 	401
f 354 	353 	402
f 353 	401 	402
f 355 	354 	403
f 354 	402 	403
f 356 	355 	404
f 355 	403 	404
f 357 	356 	405
f 356 	404 	405
f 358 	357 	406
f 357 	405 	406
f 359 	358 	407
f 358 	406 	407
f 360 	359 	408
f 359 	407 	408
f 361 	360 	409
f 360 	408 	409
f 362 	361 	410
f 361 	409 	410
f 363 	362 	411
f 362 	410 	411
f 364 	363 	412
f 363 	411 	412
f 365 	364 	413
f 364 	412 	413
f 366 	365 	414
f 365 	413 	414
f 367 	366 	415
f 366 	414 	415
f 368 	367 	416
f 367 	415 	416
f 369 	368 	417
f 368 	416 	417
f 370 	369 	418
f 369 	417 	418
f 371 	370 	419
f 370 	418 	419
f 372 	371 	420
f 371 	419 	420
f 373 	372 	421
f 372 	420 	421
f 374 	373 	422
f 373 	421 	422
f 375 	374 	423
f 374 	422 	423
f 376 	375 	424
f 375 	423 	424
f 377 	376 	425
f 376 	424 	425
f 378 	377 	426
f 377 	425 	426
f 379 	378 	427
f 378 	426 	427
f 380 	379 	428
f 379 	427 	428
f 381 	380 	429
f 380 	428 	429
f 382 	381 	430
f 381 	429 	430
f 383 	382 	431
f 382 	430 	431
f 384 	383 	432
f 383 	431 	432
f 385 	384 	433
f 384 	432 	433
f 338 	385 	386
f 385 	433 	386
f 387 	386 	435
f 386 	434 	435
f 388 	387 	436
f 387 	435 	436
f 389 	388 	437
f 388 	436 	437
f 390 	389 	438
f 389 	437 	438
f 391 	390 	439
f 390 	438 	439
f 392 	391 	440
f 391 	439 	440
f 393 	392 	441
f 392 	440 	441
f 394 	393 	442
f 393 	441 	442
f 395 	394 	443
f 394 	442 	443
f 396 	395 	444
f 395 	443 	444
f 397 	396 	445
f 396 	444 	445
f 398 	397 	446
f 397 	445 	446
f 399 	398 	447
f 398 	446 	447
f 400 	399 	448
f 399 	447 	448
f 401 	400 	449
f 400 	448 	449
f 402 	401 	450
f 401 	449 	450
f 403 	402 	451
f 402 	450 	451
f 404 	403 	452
f 403 	451 	452
f 405 	404 	453
f 404 	452 	453
f 406 	405 	454
f 405 	453 	454
f 407 	406 	455
f 406 	454 	455
f 408 	407 	456
f 407 	455 	456
f 409 	408 	457
f 408 	456 	457
f 410 	409 	458
f 409 	457 	458
f 411 	410 	459
f 410 	458 	459
f 412 	411 	460
f 411 	459 	460
f 413 	412 	461
f 412 	460 	461
f 414 	413 	462
f 413 	461 	462
f 415 	414 	463
f 414 	462 	463
f 416 	415 	464
f 415 	463 	464
f 417 	416 	465
f 416 	464 	465
f 418 	417 	466
f 417 	465 	466
f 419 	418 	467
f 418 	466 	467
f 420 	419 	468
f 419 	467 	468
f 421 	420 	469
f 420 	468 	469
f 422 	421 	470
f 421 	469 	470
f 423 	422 	471
f 422 	470 	471
f 424 	423 	472
f 423 	471 	472
f 425 	424 	473
f 424 	472 	473
f 426 	425 	474
f 425 	473 	474
f 427 	426 	475
f 426 	474 	475
f 428 	427 	476
f 427 	475 	476
f 429 	428 	477
f 428 	476 	477
f 430 	429 	478
f 429 	477 	478
f 431 	430 	479
f 430 	478 	479
f 432 	431 	480
f 431 	479 	480
f 433 	432 	481
f 432 	480 	481
f 386 	433 	434
f 433 	481 	434
f 435 	434 	483
f 434 	482 	483
f 436 	435 	484
f 435 	483 	484
f 437 	436 	485
f 436 	484 	485
f 438 	437 	486
f 437 	485 	486
f 439 	438 	487
f 438 	486 	487
f 440 	439 	488
f 439 	487 	488
f 441 	440 	489
f 440 	488 	489
f 442 	441 	490
f 441 	489 	490
f 443 	442 	491
f 442 	490 	491
f 444 	443 	492
f 443 	491 	492
f 445 	444 	493
f 444 	492 	493
f 446 	445 	494
f 445 	493 	494
f 447 	446 	495
f 446 	494 	495
f 448 	447 	496
f 447 	495 	496
f 449 	448 	497
f 448 	496 	497
f 450 	449 	498
f 449 	497 	498
f 451 	450 	499
f 450 	498 	499
f 452 	451 	500
f 451 	499 	500
f 453 	452 	501
f 452 	500 	501
f 454 	453 	502
f 453 	501 	502
f 455 	454 	503
f 454 	502 	503
f 456 	455 	504
f 455 	503 	504
f 457 	456 	505
f 456 	504 	505
f 458 	457 	506
f 457 	505 	506
f 459 	458 	507
f 458 	506 	507
f 460 	459 	508
f 459 	507 	508
f 461 	460 	509
f 460 	508 	509
f 462 	461 	510
f 461 	509 	510
f 463 	462 	511
f 462 	510 	511
f 464 	463 	512
f 463 	511 	512
f 465 	464 	513
f 464 	512 	513
f 466 	465 	514
f 465 	513 	514
f 467 	466 	515
f 466 	514 	515
f 468 	467 	516
f 467 	515 	516
f 469 	468 	517
f 468 	516 	517
f 470 	469 	518
f 469 	517 	518
f 471 	470 	519
f 470 	518 	519
f 472 	471 	520
f 471 	519 	520
f 473 	472 	521
f 472 	520 	521
f 474 	473 	522
f 473 	521 	522
f 475 	474 	523
f 474 	522 	523
f 476 	475 	524
f 475 	523 	524
f 477 	476 	525
f 476 	524 	525
f 478 	477 	526
f 477 	525 	526
f 479 	478 	527
f 478 	526 	527
f 480 	479 	528
f 479 	527 	528
f 481 	480 	529
f 480 	528 	529
f 434 	481 	482
f 481 	529 	482
f 483 	482 	531
f 482 	530 	531
f 484 	483 	532
f 483 	531 	532
f 485 	484 	533
f 484 	532 	533
f 486 	485 	534
f 485 	533 	534
f 487 	486 	535
f 486 	534 	535
f 488 	487 	536
f 487 	535 	536
f 489 	488 	537
f 488 	536 	537
f 490 	489 	538
f 489 	537 	538
f 491 	490 	539
f 490 	538 	539
f 492 	491 	540
f 491 	539 	540
f 493 	492 	541
f 492 	540 	541
f 494 	493 	542
f 493 	541 	542
f 495 	494 	543
f 494 	542 	543
f 496 	495 	544
f 495 	543 	544
f 497 	496 	545
f 496 	544 	545
f 498 	497 	546
f 497 	545 	546
f 499 	498 	547
f 498 	546 	547
f 500 	499 	548
f 499 	547 	548
f 501 	500 	549
f 500 	548 	549
f 502 	501 	550
f 501 	549 	550
f 503 	502 	551
f 502 	550 	551
f 504 	503 	552
f 503 	551 	552
f 505 	504 	553
f 504 	552 	553
f 506 	505 	554
f 505 	553 	554
f 507 	506 	555
f 506 	554 	555
f 508 	507 	556
f 507 	555 	556
f 509 	508 	557
f 508 	556 	557
f 510 	509 	558
f 509 	557 	558
f 511 	510 	559
f 510 	558 	559
f 512 	511 	560
f 511 	559 	560
f 513 	512 	561
f 512 	560 	561
f 514 	513 	562
f 513 	561 	562
f 515 	514 	563
f 514 	562 	563
f 516 	515 	564
f 515 	563 	564
f 517 	516 	565
f 516 	564 	565
f 518 	517 	566
f 517 	565 	566
f 519 	518 	567
f 518 	566 	567
f 520 	519 	568
f 519 	567 	568
f 521 	520 	569
f 520 	568 	569
f 522 	521 	570
f 521 	569 	570
f 523 	522 	571
f 522 	570 	571
f 524 	523 	572
f 523 	571 	572
f 525 	524 	573
f 524 	572 	573
f 526 	525 	574
f 525 	573 	574
f 527 	526 	575
f 526 	574 	575
f 528 	527 	576
f 527 	575 	576
f 529 	528 	577
f 528 	576 	577
f 482 	529 	530
f 529 	577 	530
f 531 	530 	579
f 530 	578 	579
f 532 	531 	580
f 531 	579 	580
f 533 	532 	581
f 532 	580 	581
f 534 	533 	582
f 533 	581 	582
f 535 	534 	583
f 534 	582 	583
f 536 	535 	584
f 535 	583 	584
f 537 	536 	585
f 536 	584 	585
f 538 	537 	586
f 537 	585 	586
f 539 	538 	587
f 538 	586 	587
f 540 	539 	588
f 539 	587 	588
f 541 	540 	589
f 540 	588 	589
f 542 	541 	590
f 541 	589 	590
f 543 	542 	591
f 542 	590 	591
f 544 	543 	592
f 543 	591 	592
f 545 	544 	593
f 544 	592 	593
f 546 	545 	594
f 545 	593 	594
f 547 	546 	595
f 546 	594 	595
f 548 	547 	596
f 547 	595 	596
f 549 	548 	597
f 548 	596 	597
f 550 	549 	598
f 549 	597 	598
f 551 	550 	599
f 550 	598 	599
f 552 	551 	600
f 551 	599 	600
f 553 	552 	601
f 552 	600 	601
f 554 	553 	602
f 553 	601 	602
f 555 	554 	603
f 554 	602 	603
f 556 	555 	604
f 555 	603 	604
f 557 	556 	605
f 556 	604 	605
f 558 	557 	606
f 557 	605 	606
f 559 	558 	607
f 558 	606 	607
f 560 	559 	608
f 559 	607 	608
f 561 	560 	609
f 560 	608 	609
f 562 	561 	610
f 561 	609 	610
f 563 	562 	611
f 562 	610 	611
f 564 	563 	612
f 563 	611 	612
f 565 	564 	613
f 564 	612 	613
f 566 	565 	614
f 565 	613 	614
f 567 	566 	615
f 566 	614 	615
f 568 	567 	616
f 567 	615 	616
f 569 	568 	617
f 568 	616 	617
f 570 	569 	618
f 569 	617 	618
f 571 	570 	619
f 570 	618 	619
f 572 	571 	620
f 571 	619 	620
f 573 	572 	621
f 572 	620 	621
f 574 	573 	622
f 573 	621 	622
f 575 	574 	623
f 574 	622 	623
f 576 	575 	624
f 575 	623 	624
f 577 	576 	625
f 576 	624 	625
f 530 	577 	578
f 577 	625 	578
f 579 	578 	627
f 578 	626 	627
f 580 	579 	628
f 579 	627 	628
f 581 	580 	629
f 580 	628 	629
f 582 	581 	630
f 581 	629 	630
f 583 	582 	631
f 582 	630 	631
f 584 	583 	632
f 583 	631 	632
f 585 	584 	633
f 584 	632 	633
f 586 	585 	634
f 585 	633 	634
f 587 	586 	635
f 586 	634 	635
f 588 	587 	636
f 587 	635 	636
f 589 	588 	637
f 588 	636 	637
f 590 	589 	638
f 589 	637 	638
f 591 	590 	639
f 590 	638 	639
f 592 	591 	640
f 591 	639 	640
f 593 	592 	641
f 592 	640 	641
f 594 	593 	642
f 593 	641 	642
f 595 	594 	643
f 594 	642 	643
f 596 	595 	644
f 595 	643 	644
f 597 	596 	645
f 596 	644 	645
f 598 	597 	646
f 597 	645 	646
f 599 	598 	647
f 598 	646 	647
f 600 	599 	648
f 599 	647 	648
f 601 	600 	649
f 600 	648 	649
f 602 	601 	650
f 601 	649 	650
f 603 	602 	651
f 602 	650 	651
f 604 	603 	652
f 603 	651 	652
f 605 	604 	653
f 604 	652 	653
f 606 	605 	654
f 605 	653 	654
f 607 	606 	655
f 606 	654 	655
f 608 	607 	656
f 607 	655 	656
f 609 	608 	657
f 608 	656 	657
f 610 	609 	658
f 609 	657 	658
f 611 	610 	659
f 610 	658 	659
f 612 	611 	660
f 611 	659 	660
f 613 	612 	661
f 612 	660 	661
f 614 	613 	662
f 613 	661 	662
f 615 	614 	663
f 614 	662 	663
f 616 	615 	664
f 615 	663 	664
f 617 	616 	665
f 616 	664 	665
f 618 	617 	666
f 617 	665 	666
f 619 	618 	667
f 618 	666 	667
f 620 	619 	668
f 619 	667 	668
f 621 	620 	669
f 620 	668 	669
f 622 	621 	670
f 621 	669 	670
f 623 	622 	671
f 622 	670 	671
f 624 	623 	672
f 623 	671 	672
f 625 	624 	673
f 624 	672 	673
f 578 	625 	626
f 625 	673 	626
f 627 	626 	675
f 626 	674 	675
f 628 	627 	676
f 627 	675 	676
f 629 	628 	677
f 628 	676 	677
f 630 	629 	678
f 629 	677 	678
f 631 	630 	679
f 630 	678 	679
f 632 	631 	680
f 631 	679 	680
f 633 	632 	681
f 632 	680 	681
f 634 	633 	682
f 633 	681 	682
f 635 	634 	683
f 634 	682 	683
f 636 	635 	684
f 635 	683 	684
f 637 	636 	685
f 636 	684 	685
f 638 	637 	686
f 637 	685 	686
f 639 	638 	687
f 638 	686 	687
f 640 	639 	688
f 639 	687 	688
f 641 	640 	689
f 640 	688 	689
f 642 	641 	690
f 641 	689 	690
f 643 	642 	691
f 642 	690 	691
f 644 	643 	692
f 643 	691 	692
f 645 	644 	693
f 644 	692 	693
f 646 	645 	694
f 645 	693 	694
f 647 	646 	695
f 646 	694 	695
f 648 	647 	696
f 647 	695 	696
f 649 	648 	697
f 648 	696 	697
f 650 	649 	698
f 649 	697 	698
f 651 	650 	699
f 650 	698 	699
f 652 	651 	700
f 651 	699 	700
f 653 	652 	701
f 652 	700 	701
f 654 	653 	702
f 653 	701 	702
f 655 	654 	703
f 654 	702 	703
f 656 	655 	704
f 655 	703 	704
f 657 	656 	705
f 656 	704 	705
f 658 	657 	706
f 657 	705 	706
f 659 	658 	707
f 658 	706 	707
f 660 	659 	708
f 659 	707 	708
f 661 	660 	709
f 660 	708 	709
f 662 	661 	710
f 661 	709 	710
f 663 	662 	711
f 662 	710 	711
f 664 	663 	712
f 663 	711 	712
f 665 	664 	713
f 664 	712 	713
f 666 	665 	714
f 665 	713 	714
f 667 	666 	715
f 666 	714 	715
f 668 	667 	716
f 667 	715 	716
f 669 	668 	717
f 668 	716 	717
f 670 	669 	718
f 669 	717 	718
f 671 	670 	719
f 670 	718 	719
f 672 	671 	720
f 671 	719 	720
f 673 	672 	721
f 672 	720 	721
f 626 	673 	674
f 673 	721 	674
f 675 	674 	723
f 674 	722 	723
f 676 	675 	724
f 675 	723 	724
f 677 	676 	725
f 676 	724 	725
f 678 	677 	726
f 677 	725 	726
f 679 	678 	727
f 678 	726 	727
f 680 	679 	728
f 679 	727 	728
f 681 	680 	729
f 680 	728 	729
f 682 	681 	730
f 681 	729 	730
f 683 	682 	731
f 682 	730 	731
f 684 	683 	732
f 683 	731 	732
f 685 	684 	733
f 684 	732 	733
f 686 	685 	734
f 685 	733 	734
f 687 	686 	735
f 686 	734 	735
f 688 	687 	736
f 687 	735 	736
f 689 	688 	737
f 688 	736 	737
f 690 	689 	738
f 689 	737 	738
f 691 	690 	739
f 690 	738 	739
f 692 	691 	740
f 691 	739 	740
f 693 	692 	741
f 692 	740 	741
f 694 	693 	742
f 693 	741 	742
f 695 	694 	743
f 694 	742 	743
f 696 	695 	744
f 695 	743 	744
f 697 	696 	745
f 696 	744 	745
f 698 	697 	746
f 697 	745 	746
f 699 	698 	747
f 698 	746 	747
f 700 	699 	748
f 699 	747 	748
f 701 	700 	749
f 700 	748 	749
f 702 	701 	750
f 701 	749 	750
f 703 	702 	751
f 702 	750 	751
f 704 	703 	752
f 703 	751 	752
f 705 	704 	753
f 704 	752 	753
f 706 	705 	754
f 705 	753 	754
f 707 	706 	755
f 706 	754 	755
f 708 	707 	756
f 707 	755 	756
f 709 	708 	757
f 708 	756 	757
f 710 	709 	758
f 709 	757 	758
f 711 	710 	759
f 710 	758 	759
f 712 	711 	760
f 711 	759 	760
f 713 	712 	761
f 712 	760 	761
f 714 	713 	762
f 713 	761 	762
f 715 	714 	763
f 714 	762 	763
f 716 	715 	764
f 715 	763 	764
f 717 	716 	765
f 716 	764 	765
f 718 	717 	766
f 717 	765 	766
f 719 	718 	767
f 718 	766 	767
f 720 	719 	768
f 719 	767 	768
f 721 	720 	769
f 720 	768 	769
f 674 	721 	722
f 721 	769 	722
f 723 	722 	771
f 722 	770 	771
f 724 	723 	772
f 723 	771 	772
f 725 	724 	773
f 724 	772 	773
f 726 	725 	774
f 725 	773 	774
f 727 	726 	775
f 726 	774 	775
f 728 	727 	776
f 727 	775 	776
f 729 	728 	777
f 728 	776 	777
f 730 	729 	778
f 729 	777 	778
f 731 	730 	779
f 730 	778 	779
f 732 	731 	780
f 731 	779 	780
f 733 	732 	781
f 732 	780 	781
f 734 	733 	782
f 733 	781 	782
f 735 	734 	783
f 734 	782 	783
f 736 	735 	784
f 735 	783 	784
f 737 	736 	785
f 736 	784 	785
f 738 	737 	786
f 737 	785 	786
f 739 	738 	787
f 738 	786 	787
f 740 	739 	788
f 739 	787 	788
f 741 	740 	789
f 740 	788 	789
f 742 	741 	790
f 741 	789 	790
f 743 	742 	791
f 742 	790 	791
f 744 	743 	792
f 743 	791 	792
f 745 	744 	793
f 744 	792 	793
f 746 	745 	794
f 745 	793 	794
f 747 	746 	795
f 746 	794 	795
f 748 	747 	796
f 747 	795 	796
f 749 	748 	797
f 748 	796 	797
f 750 	749 	798
f 749 	797 	798
f 751 	750 	799
f 750 	798 	799
f 752 	751 	800
f 751 	799 	800
f 753 	752 	801
f 752 	800 	801
f 754 	753 	802
f 753 	801 	802
f 755 	754 	803
f 754 	802 	803
f 756 	755 	804
f 755 	803 	804
f 757 	756 	805
f 756 	804 	805
f 758 	757 	806
f 757 	805 	806
f 759 	758 	807
f 758 	806 	807
f 760 	759 	808
f 759 	807 	808
f 761 	760 	809
f 760 	808 	809
f 762 	761 	810
f 761 	809 	810
f 763 	762 	811
f 762 	810 	811
f 764 	763 	812
f 763 	811 	812
f 765 	764 	813
f 764 	812 	813
f 766 	765 	814
f 765 	813 	814
f 767 	766 	815
f 766 	814 	815
f 768 	767 	816
f 767 	815 	816
f 769 	768 	817
f 768 	816 	817
f 722 	769 	770
f 769 	817 	770
f 771 	770 	819
f 770 	818 	819
f 772 	771 	820
f 771 	819 	820
f 773 	772 	821
f 772 	820 	821
f 774 	773 	822
f 773 	821 	822
f 775 	774 	823
f 774 	822 	823
f 776 	775 	824
f 775 	823 	824
f 777 	776 	825
f 776 	824 	825
f 778 	777 	826
f 777 	825 	826
f 779 	778 	827
f 778 	826 	827
f 780 	779 	828
f 779 	827 	828
f 781 	780 	829
f 780 	828 	829
f 782 	781 	830
f 781 	829 	830
f 783 	782 	831
f 782 	830 	831
f 784 	783 	832
f 783 	831 	832
f 785 	784 	833
f 784 	832 	833
f 786 	785 	834
f 785 	833 	834
f 787 	786 	835
f 786 	834 	835
f 788 	787 	836
f 787 	835 	836
f 789 	788 	837
f 788 	836 	837
f 790 	789 	838
f 789 	837 	838
f 791 	790 	839
f 790 	838 	839
f 792 	791 	840
f 791 	839 	840
f 793 	792 	841
f 792 	840 	841
f 794 	793 	842
f 793 	841 	842
f 795 	794 	843
f 794 	842 	843
f 796 	795 	844
f 795 	843 	844
f 797 	796 	845
f 796 	844 	845
f 798 	797 	846
f 797 	845 	846
f 799 	798 	847
f 798 	846 	847
f 800 	799 	848
f 799 	847 	848
f 801 	800 	849
f 800 	848 	849
f 802 	801 	850
f 801 	849 	850
f 803 	802 	851
f 802 	850 	851
f 804 	803 	852
f 803 	851 	852
f 805 	804 	853
f 804 	852 	853
f 806 	805 	854
f 805 	853 	854
f 807 	806 	855
f 806 	854 	855
f 808 	807 	856
f 807 	855 	856
f 809 	808 	857
f 808 	856 	857
f 810 	809 	858
f 809 	857 	858
f 811 	810 	859
f 810 	858 	859
f 812 	811 	860
f 811 	859 	860
f 813 	812 	861
f 812 	860 	861
f 814 	813 	862
f 813 	861 	862
f 815 	814 	863
f 814 	862 	863
f 816 	815 	864
f 815 	863 	864
f 817 	816 	865
f 816 	864 	865
f 770 	817 	818
f 817 	865 	818
f 819 	818 	867
f 818 	866 	867
f 820 	819 	868
f 819 	867 	868
f 821 	820 	869
f 820 	868 	869
f 822 	821 	870
f 821 	869 	870
f 823 	822 	871
f 822 	870 	871
f 824 	823 	872
f 823 	871 	872
f 825 	824 	873
f 824 	872 	873
f 826 	825 	874
f 825 	873 	874
f 827 	826 	875
f 826 	874 	875
f 828 	827 	876
f 827 	875 	876
f 829 	828 	877
f 828 	876 	877
f 830 	829 	878
f 829 	877 	878
f 831 	830 	879
f 830 	878 	879
f 832 	831 	880
f 831 	879 	880
f 833 	832 	881
f 832 	880 	881
f 834 	833 	882
f 833 	881 	882
f 835 	834 	883
f 834 	882 	883
f 836 	835 	884
f 835 	883 	884
f 837 	836 	885
f 836 	884 	885
f 838 	837 	886
f 837 	885 	886
f 839 	838 	887
f 838 	886 	887
f 840 	839 	888
f 839 	887 	888
f 841 	840 	889
f 840 	888 	889
f 842 	841 	890
f 841 	889 	890
f 843 	842 	891
f 842 	890 	891
f 844 	843 	892
f 843 	891 	892
f 845 	844 	893
f 844 	892 	893
f 846 	845 	894
f 845 	893 	894
f 847 	846 	895
f 846 	894 	895
f 848 	847 	896
f 847 	895 	896
f 849 	848 	897
f 848 	896 	897
f 850 	849 	898
f 849 	897 	898
f 851 	850 	899
f 850 	898 	899
f 852 	851 	900
f 851 	899 	900
f 853 	852 	901
f 852 	900 	901
f 854 	853 	902
f 853 	901 	902
f 855 	854 	903
f 854 	902 	903
f 856 	855 	904
f 855 	903 	904
f 857 	856 	905
f 856 	904 	905
f 858 	857 	906
f 857 	905 	906
f 859 	858 	907
f 858 	906 	907
f 860 	859 	908
f 859 	907 	908
f 861 	860 	909
f 860 	908 	909
f 862 	861 	910
f 861 	909 	910
f 863 	862 	911
f 862 	910 	911
f 864 	863 	912
f 863 	911 	912
f 865 	864 	913
f 864 	912 	913
f 818 	865 	866
f 865 	913 	866
f 867 	866 	915
f 866 	914 	915
f 868 	867 	916
f 867 	915 	916
f 869 	868 	917
f 868 	916 	917
f 870 	869 	918
f 869 	917 	918
f 871 	870 	919
f 870 	918 	919
f 872 	871 	920
f 871 	919 	920
f 873 	872 	921
f 872 	920 	921
f 874 	873 	922
f 873 	921 	922
f 875 	874 	923
f 874 	922 	923
f 876 	875 	924
f 875 	923 	924
f 877 	876 	925
f 876 	924 	925
f 878 	877 	926
f 877 	925 	926
f 879 	878 	927
f 878 	926 	927
f 880 	879 	928
f 879 	927 	928
f 881 	880 	929
f 880 	928 	929
f 882 	881 	930
f 881 	929 	930
f 883 	882 	931
f 882 	930 	931
f 884 	883 	932
f 883 	931 	932
f 885 	884 	933
f 884 	932 	933
f 886 	885 	934
f 885 	933 	934
f 887 	886 	935
f 886 	934 	935
f 888 	887 	936
f 887 	935 	936
f 889 	888 	937
f 888 	936 	937
f 890 	889 	938
f 889 	937 	938
f 891 	890 	939
f 890 	938 	939
f 892 	891 	940
f 891 	939 	940
f 893 	892 	941
f 892 	940 	941
f 894 	893 	942
f 893 	941 	942
f 895 	894 	943
f 894 	942 	943
f 896 	895 	944
f 895 	943 	944
f 897 	896 	945
f 896 	944 	945
f 898 	897 	946
f 897 	945 	946
f 899 	898 	947
f 898 	946 	947
f 900 	899 	948
f 899 	947 	948
f 901 	900 	949
f 900 	948 	949
f 902 	901 	950
f 901 	949 	950
f 903 	902 	951
f 902 	950 	951
f 904 	903 	952
f 903 	951 	952
f 905 	904 	953
f 904 	952 	953
f 906 	905 	954
f 905 	953 	954
f 907 	906 	955
f 906 	954 	955
f 908 	907 	956
f 907 	955 	956
f 909 	908 	957
f 908 	956 	957
f 910 	909 	958
f 909 	957 	958
f 911 	910 	959
f 910 	958 	959
f 912 	911 	960
f 911 	959 	960
f 913 	912 	961
f 912 	960 	961
f 866 	913 	914
f 913 	961 	914
f 915 	914 	963
f 914 	962 	963
f 916 	915 	964
f 915 	963 	964
f 917 	916 	965
f 916 	964 	965
f 918 	917 	966
f 917 	965 	966
f 919 	918 	967
f 918 	966 	967
f 920 	919 	968
f 919 	967 	968
f 921 	920 	969
f 920 	968 	969
f 922 	921 	970
f 921 	969 	970
f 923 	922 	971
f 922 	970 	971
f 924 	923 	972
f 923 	971 	972
f 925 	924 	973
f 924 	972 	973
f 926 	925 	974
f 925 	973 	974
f 927 	926 	975
f 926 	974 	975
f 928 	927 	976
f 927 	975 	976
f 929 	928 	977
f 928 	976 	977
f 930 	929 	978
f 929 	977 	978
f 931 	930 	979
f 930 	978 	979
f 932 	931 	980
f 931 	979 	980
f 933 	932 	981
f 932 	980 	981
f 934 	933 	982
f 933 	981 	982
f 935 	934 	983
f 934 	982 	983
f 936 	935 	984
f 935 	983 	984
f 937 	936 	985
f 936 	984 	985
f 938 	937 	986
f 937 	985 	986
f 939 	938 	987
f 938 	986 	987
f 940 	939 	988
f 939 	987 	988
f 941 	940 	989
f 940 	988 	989
f 942 	941 	990
f 941 	989 	990
f 943 	942 	991
f 942 	990 	991
f 944 	943 	992
f 943 	991 	992
f 945 	944 	993
f 944 	992 	993
f 946 	945 	994
f 945 	993 	994
f 947 	946 	995
f 946 	994 	995
f 948 	947 	996
f 947 	995 	996
f 949 	948 	997
f 948 	996 	997
f 950 	949 	998
f 949 	997 	998
f 951 	950 	999
f 950 	998 	999
f 952 	951 	1000
f 951 	999 	1000
f 953 	952 	1001
f 952 	1000 	1001
f 954 	953 	1002
f 953 	1001 	1002
f 955 	954 	1003
f 954 	1002 	1003
f 956 	955 	1004
f 955 	1003 	1004
f 957 	956 	1005
f 956 	1004 	1005
f 958 	957 	1006
f 957 	1005 	1006
f 959 	958 	1007
f 958 	1006 	1007
f 960 	959 	1008
f 959 	1007 	1008
f 961 	960 	1009
f 960 	1008 	1009
f 914 	961 	962
f 961 	1009 	962
f 963 	962 	1011
f 962 	1010 	1011
f 964 	963 	1012
f 963 	1011 	1012
f 965 	964 	1013
f 964 	1012 	1013
f 966 	965 	1014
f 965 	1013 	1014
f 967 	966 	1015
f 966 	1014 	1015
f 968 	967 	1016
f 967 	1015 	1016
f 969 	968 	1017
f 968 	1016 	1017
f 970 	969 	1018
f 969 	1017 	1018
f 971 	970 	1019
f 970 	1018 	1019
f 972 	971 	1020
f 971 	1019 	1020
f 973 	972 	1021
f 972 	1020 	1021
f 974 	973 	1022
f 973 	1021 	1022
f 975 	974 	1023
f 974 	1022 	1023
f 976 	975 	1024
f 975 	1023 	1024
f 977 	976 	1025
f 976 	1024 	1025
f 978 	977 	1026
f 977 	1025 	1026
f 979 	978 	1027
f 978 	1026 	1027
f 980 	979 	1028
f 979 	1027 	1028
f 981 	980 	1029
f 980 	1028 	1029
f 982 	981 	1030
f 981 	1029 	1030
f 983 	982 	1031
f 982 	1030 	1031
f 984 	983 	1032
f 983 	1031 	1032
f 985 	984 	1033
f 984 	1032 	1033
f 986 	985 	1034
f 985 	1033 	1034
f 987 	986 	1035
f 986 	1034 	1035
f 988 	987 	1036
f 987 	1035 	1036
f 989 	988 	1037
f 988 	1036 	1037
f 990 	989 	1038
f 989 	1037 	1038
f 991 	990 	1039
f 990 	1038 	1039
f 992 	991 	1040
f 991 	1039 	1040
f 993 	992 	1041
f 992 	1040 	1041
f 994 	993 	1042
f 993 	1041 	1042
f 995 	994 	1043
f 994 	1042 	1043
f 996 	995 	1044
f 995 	1043 	1044
f 997 	996 	1045
f 996 	1044 	1045
f 998 	997 	1046
f 997 	1045 	1046
f 999 	998 	1047
f 998 	1046 	1047
f 1000 	999 	1048
f 999 	1047 	1048
f 1001 	1000 	1049
f 1000 	1048 	1049
f 1002 	1001 	1050
f 1001 	1049 	1050
f 1003 	1002 	1051
f 1002 	1050 	1051
f 1004 	1003 	1052
f 1003 	1051 	1052
f 1005 	1004 	1053
f 1004 	1052 	1053
f 1006 	1005 	1054
f 1005 	1053 	1054
f 1007 	1006 	1055
f 1006 	1054 	1055
f 1008 	1007 	1056
f 1007 	1055 	1056
f 1009 	1008 	1057
f 1008 	1056 	1057
f 962 	1009 	1010
f 1009 	1057 	1010
f 1011 	1010 	1059
f 1010 	1058 	1059
f 1012 	1011 	1060
f 1011 	1059 	1060
f 1013 	1012 	1061
f 1012 	1060 	1061
f 1014 	1013 	1062
f 1013 	1061 	1062
f 1015 	1014 	1063
f 1014 	1062 	1063
f 1016 	1015 	1064
f 1015 	1063 	1064
f 1017 	1016 	1065
f 1016 	1064 	1065
f 1018 	1017 	1066
f 1017 	1065 	1066
f 1019 	1018 	1067
f 1018 	1066 	1067
f 1020 	1019 	1068
f 1019 	1067 	1068
f 1021 	1020 	1069
f 1020 	1068 	1069
f 1022 	1021 	1070
f 1021 	1069 	1070
f 1023 	1022 	1071
f 1022 	1070 	1071
f 1024 	1023 	1072
f 1023 	1071 	1072
f 1025 	1024 	1073
f 1024 	1072 	1073
f 1026 	1025 	1074
f 1025 	1073 	1074
f 1027 	1026 	1075
f 1026 	1074 	1075
f 1028 	1027 	1076
f 1027 	1075 	1076
f 1029 	1028 	1077
f 1028 	1076 	1077
f 1030 	1029 	1078
f 1029 	1077 	1078
f 1031 	1030 	1079
f 1030 	1078 	1079
f 1032 	1031 	1080
f 1031 	1079 	1080
f 1033 	1032 	1081
f 1032 	1080 	1081
f 1034 	1033 	1082
f 1033 	1081 	1082
f 1035 	1034 	1083
f 1034 	1082 	1083
f 1036 	1035 	1084
f 1035 	1083 	1084
f 1037 	1036 	1085
f 1036 	1084 	1085
f 1038 	1037 	1086
f 1037 	1085 	1086
f 1039 	1038 	1087
f 1038 	1086 	1087
f 1040 	1039 	1088
f 1039 	1087 	1088
f 1041 	1040 	1089
f 1040 	1088 	1089
f 1042 	1041 	1090
f 1041 	1089 	1090
f 1043 	1042 	1091
f 1042 	1090 	1091
f 1044 	1043 	1092
f 1043 	1091 	1092
f 1045 	1044 	1093
f 1044 	1092 	1093
f 1046 	1045 	1094
f 1045 	1093 	1094
f 1047 	1046 	1095
f 1046 	1094 	1095
f 1048 	1047 	1096
f 1047 	1095 	1096
f 1049 	1048 	1097
f 1048 	1096 	1097
f 1050 	1049 	1098
f 1049 	1097 	1098
f 1051 	1050 	1099
f 1050 	1098 	1099
f 1052 	1051 	1100
f 1051 	1099 	1100
f 1053 	1052 	1101
f 1052 	1100 	1101
f 1054 	1053 	1102
f 1053 	1101 	1102
f 1055 	1054 	1103
f 1054 	1102 	1103
f 1056 	1055 	1104
f 1055 	1103 	1104
f 1057 	1056 	1105
f 1056 	1104 	1105
f 1010 	1057 	1058
f 1057 	1105 	1058
f 1059 	1058 	1106
f 1060 	1059 	1106
f 1061 	1060 	1106
f 1062 	1061 	1106
f 1063 	1062 	1106
f 1064 	1063 	1106
f 1065 	1064 	1106
f 1066 	1065 	1106
f 1067 	1066 	1106
f 1068 	1067 	1106
f 1069 	1068 	1106
f 1070 	1069 	1106
f 1071 	1070 	1106
f 1072 	1071 	1106
f 1073 	1072 	1106
f 1074 	1073 	1106
f 1075 	1074 	1106
f 1076 	1075 	1106
f 1077 	1076 	1106
f 1078 	1077 	1106
f 1079 	1078 	1106
f 1080 	1079 	1106
f 1081 	1080 	1106
f 1082 	1081 	1106
f 1083 	1082 	1106
f 1084 	1083 	1106
f 1085 	1084 	1106
f 1086 	1085 	1106
f 1087 	1086 	1106
f 1088 	1087 	1106
f 1089 	1088 	1106
f 1090 	1089 	1106
f 1091 	1090 	1106
f 1092 	1091 	1106
f 1093 	1092 	1106
f 1094 	1093 	1106
f 1095 	1094 	1106
f 1096 	1095 	1106
f 1097 	1096 	1106
f 1098 	1097 	1106
f 1099 	1098 	1106
f 1100 	1099 	1106
f 1101 	1100 	1106
f 1102 	1101 	1106
f 1103 	1102 	1106
f 1104 	1103 	1106
f 1105 	1104 	1106
f 1058 	1105 	1106
# 2208 faces

 #end of obj_0

o obj_1
v 8.1958 		-4.4872 		0
v 8 		-4.5 		0
v 8 		-3 		0
v 8.3882 		-4.4489 		0
v 8.574 		-4.3858 		0
v 8.75 		-4.299 		0
v 8.9131 		-4.19 		0
v 9.0607 		-4.0607 		0
v 9.19 		-3.9131 		0
v 9.299 		-3.75 		0
v 9.3858 		-3.574 		0
v 9.4489 		-3.3882 		0
v 9.4872 		-3.1958 		0
v 9.5 		-3 		0
v 9.4872 		-2.8042 		0
v 9.4489 		-2.6118 		0
v 9.3858 		-2.426 		0
v 9.299 		-2.25 		0
v 9.19 		-2.0869 		0
v 9.0607 		-1.9393 		0
v 8.9131 		-1.81 		0
v 8.75 		-1.701 		0
v 8.574 		-1.6142 		0
v 8.3882 		-1.5511 		0
v 8.1958 		-1.5128 		0
v 8 		-1.5 		0
v 7.8042 		-1.5128 		0
v 7.6118 		-1.5511 		0
v 7.426 		-1.6142 		0
v 7.25 		-1.701 		0
v 7.0869 		-1.81 		0
v 6.9393 		-1.9393 		0
v 6.81 		-2.0869 		0
v 6.701 		-2.25 		0
v 6.6142 		-2.426 		0
v 6.5511 		-2.6118 		0
v 6.5128 		-2.8042 		0
v 6.5 		-3 		0
v 6.5128 		-3.1958 		0
v 6.5511 		-3.3882 		0
v 6.6142 		-3.574 		0
v 6.701 		-3.75 		0
v 6.81 		-3.9131 		0
v 6.9393 		-4.0607 		0
v 7.0869 		-4.19 		0
v 7.25 		-4.299 		0
v 7.426 		-4.3858 		0
v 7.6118 		-4.4489 		0
v 7.8042 		-4.4872 		0
v 8 		-4.5 		240
v 8.1958 		-4.4872 		240
v 8 		-3 		240
v 8.3882 		-4.4489 		240
v 8.574 		-4.3858 		240
v 8.75 		-4.299 		240
v 8.9131 		-4.19 		240
v 9.0607 		-4.0607 		240
v 9.19 		-3.9131 		240
v 9.299 		-3.75 		240
v 9.3858 		-3.574 		240
v 9.4489 		-3.3882 		240
v 9.4872 		-3.1958 		240
v 9.5 		-3 		240
v 9.4872 		-2.8042 		240
v 9.4489 		-2.6118 		240
v 9.3858 		-2.426 		240
v 9.299 		-2.25 		240
v 9.19 		-2.0869 		240
v 9.0607 		-1.9393 		240
v 8.9131 		-1.81 		240
v 8.75 		-1.701 		240
v 8.574 		-1.6142 		240
v 8.3882 		-1.5511 		240
v 8.1958 		-1.5128 		240
v 8 		-1.5 		240
v 7.8042 		-1.5128 		240
v 7.6118 		-1.5511 		240
v 7.426 		-1.6142 		240
v 7.25 		-1.701 		240
v 7.0869 		-1.81 		240
v 6.9393 		-1.9393 		240
v 6.81 		-2.0869 		240
v 6.701 		-2.25 		240
v 6.6142 		-2.426 		240
v 6.5511 		-2.6118 		240
v 6.5128 		-2.8042 		240
v 6.5 		-3 		240
v 6.5128 		-3.1958 		240
v 6.5511 		-3.3882 		240
v 6.6142 		-3.574 		240
v 6.701 		-3.75 		240
v 6.81 		-3.9131 		240
v 6.9393 		-4.0607 		240
v 7.0869 		-4.19 		240
v 7.25 		-4.299 		240
v 7.426 		-4.3858 		240
v 7.6118 		-4.4489 		240
v 7.8042 		-4.4872 		240
# 98 vertices

g group_1_16089887

usemtl color_16089887
s 0

f 1107 	1108 	1109
f 1110 	1107 	1109
f 1111 	1110 	1109
f 1112 	1111 	1109
f 1113 	1112 	1109
f 1114 	1113 	1109
f 1115 	1114 	1109
f 1116 	1115 	1109
f 1117 	1116 	1109
f 1118 	1117 	1109
f 1119 	1118 	1109
f 1120 	1119 	1109
f 1121 	1120 	1109
f 1122 	1121 	1109
f 1123 	1122 	1109
f 1124 	1123 	1109
f 1125 	1124 	1109
f 1126 	1125 	1109
f 1127 	1126 	1109
f 1128 	1127 	1109
f 1129 	1128 	1109
f 1130 	1129 	1109
f 1131 	1130 	1109
f 1132 	1131 	1109
f 1133 	1132 	1109
f 1134 	1133 	1109
f 1135 	1134 	1109
f 1136 	1135 	1109
f 1137 	1136 	1109
f 1138 	1137 	1109
f 1139 	1138 	1109
f 1140 	1139 	1109
f 1141 	1140 	1109
f 1142 	1141 	1109
f 1143 	1142 	1109
f 1144 	1143 	1109
f 1145 	1144 	1109
f 1146 	1145 	1109
f 1147 	1146 	1109
f 1148 	1147 	1109
f 1149 	1148 	1109
f 1150 	1149 	1109
f 1151 	1150 	1109
f 1152 	1151 	1109
f 1153 	1152 	1109
f 1154 	1153 	1109
f 1155 	1154 	1109
f 1108 	1155 	1109
f 1156 	1157 	1158
f 1157 	1159 	1158
f 1159 	1160 	1158
f 1160 	1161 	1158
f 1161 	1162 	1158
f 1162 	1163 	1158
f 1163 	1164 	1158
f 1164 	1165 	1158
f 1165 	1166 	1158
f 1166 	1167 	1158
f 1167 	1168 	1158
f 1168 	1169 	1158
f 1169 	1170 	1158
f 1170 	1171 	1158
f 1171 	1172 	1158
f 1172 	1173 	1158
f 1173 	1174 	1158
f 1174 	1175 	1158
f 1175 	1176 	1158
f 1176 	1177 	1158
f 1177 	1178 	1158
f 1178 	1179 	1158
f 1179 	1180 	1158
f 1180 	1181 	1158
f 1181 	1182 	1158
f 1182 	1183 	1158
f 1183 	1184 	1158
f 1184 	1185 	1158
f 1185 	1186 	1158
f 1186 	1187 	1158
f 1187 	1188 	1158
f 1188 	1189 	1158
f 1189 	1190 	1158
f 1190 	1191 	1158
f 1191 	1192 	1158
f 1192 	1193 	1158
f 1193 	1194 	1158
f 1194 	1195 	1158
f 1195 	1196 	1158
f 1196 	1197 	1158
f 1197 	1198 	1158
f 1198 	1199 	1158
f 1199 	1200 	1158
f 1200 	1201 	1158
f 1201 	1202 	1158
f 1202 	1203 	1158
f 1203 	1204 	1158
f 1204 	1156 	1158
f 1108 	1107 	1107
f 1107 	1110 	1110
f 1110 	1111 	1111
f 1111 	1112 	1112
f 1112 	1113 	1113
f 1113 	1114 	1114
f 1114 	1115 	1115
f 1115 	1116 	1116
f 1116 	1117 	1117
f 1117 	1118 	1118
f 1118 	1119 	1119
f 1119 	1120 	1120
f 1120 	1121 	1121
f 1121 	1122 	1122
f 1122 	1123 	1123
f 1123 	1124 	1124
f 1124 	1125 	1125
f 1125 	1126 	1126
f 1126 	1127 	1127
f 1127 	1128 	1128
f 1128 	1129 	1129
f 1129 	1130 	1130
f 1130 	1131 	1131
f 1131 	1132 	1132
f 1132 	1133 	1133
f 1133 	1134 	1134
f 1134 	1135 	1135
f 1135 	1136 	1136
f 1136 	1137 	1137
f 1137 	1138 	1138
f 1138 	1139 	1139
f 1139 	1140 	1140
f 1140 	1141 	1141
f 1141 	1142 	1142
f 1142 	1143 	1143
f 1143 	1144 	1144
f 1144 	1145 	1145
f 1145 	1146 	1146
f 1146 	1147 	1147
f 1147 	1148 	1148
f 1148 	1149 	1149
f 1149 	1150 	1150
f 1150 	1151 	1151
f 1151 	1152 	1152
f 1152 	1153 	1153
f 1153 	1154 	1154
f 1154 	1155 	1155
f 1155 	1108 	1108
f 1108 	1107 	1157
f 1108 	1157 	1156
f 1107 	1110 	1159
f 1107 	1159 	1157
f 1110 	1111 	1160
f 1110 	1160 	1159
f 1111 	1112 	1161
f 1111 	1161 	1160
f 1112 	1113 	1162
f 1112 	1162 	1161
f 1113 	1114 	1163
f 1113 	1163 	1162
f 1114 	1115 	1164
f 1114 	1164 	1163
f 1115 	1116 	1165
f 1115 	1165 	1164
f 1116 	1117 	1166
f 1116 	1166 	1165
f 1117 	1118 	1167
f 1117 	1167 	1166
f 1118 	1119 	1168
f 1118 	1168 	1167
f 1119 	1120 	1169
f 1119 	1169 	1168
f 1120 	1121 	1170
f 1120 	1170 	1169
f 1121 	1122 	1171
f 1121 	1171 	1170
f 1122 	1123 	1172
f 1122 	1172 	1171
f 1123 	1124 	1173
f 1123 	1173 	1172
f 1124 	1125 	1174
f 1124 	1174 	1173
f 1125 	1126 	1175
f 1125 	1175 	1174
f 1126 	1127 	1176
f 1126 	1176 	1175
f 1127 	1128 	1177
f 1127 	1177 	1176
f 1128 	1129 	1178
f 1128 	1178 	1177
f 1129 	1130 	1179
f 1129 	1179 	1178
f 1130 	1131 	1180
f 1130 	1180 	1179
f 1131 	1132 	1181
f 1131 	1181 	1180
f 1132 	1133 	1182
f 1132 	1182 	1181
f 1133 	1134 	1183
f 1133 	1183 	1182
f 1134 	1135 	1184
f 1134 	1184 	1183
f 1135 	1136 	1185
f 1135 	1185 	1184
f 1136 	1137 	1186
f 1136 	1186 	1185
f 1137 	1138 	1187
f 1137 	1187 	1186
f 1138 	1139 	1188
f 1138 	1188 	1187
f 1139 	1140 	1189
f 1139 	1189 	1188
f 1140 	1141 	1190
f 1140 	1190 	1189
f 1141 	1142 	1191
f 1141 	1191 	1190
f 1142 	1143 	1192
f 1142 	1192 	1191
f 1143 	1144 	1193
f 1143 	1193 	1192
f 1144 	1145 	1194
f 1144 	1194 	1193
f 1145 	1146 	1195
f 1145 	1195 	1194
f 1146 	1147 	1196
f 1146 	1196 	1195
f 1147 	1148 	1197
f 1147 	1197 	1196
f 1148 	1149 	1198
f 1148 	1198 	1197
f 1149 	1150 	1199
f 1149 	1199 	1198
f 1150 	1151 	1200
f 1150 	1200 	1199
f 1151 	1152 	1201
f 1151 	1201 	1200
f 1152 	1153 	1202
f 1152 	1202 	1201
f 1153 	1154 	1203
f 1153 	1203 	1202
f 1154 	1155 	1204
f 1154 	1204 	1203
f 1155 	1108 	1156
f 1155 	1156 	1204
f 1156 	1157 	1157
f 1157 	1159 	1159
f 1159 	1160 	1160
f 1160 	1161 	1161
f 1161 	1162 	1162
f 1162 	1163 	1163
f 1163 	1164 	1164
f 1164 	1165 	1165
f 1165 	1166 	1166
f 1166 	1167 	1167
f 1167 	1168 	1168
f 1168 	1169 	1169
f 1169 	1170 	1170
f 1170 	1171 	1171
f 1171 	1172 	1172
f 1172 	1173 	1173
f 1173 	1174 	1174
f 1174 	1175 	1175
f 1175 	1176 	1176
f 1176 	1177 	1177
f 1177 	1178 	1178
f 1178 	1179 	1179
f 1179 	1180 	1180
f 1180 	1181 	1181
f 1181 	1182 	1182
f 1182 	1183 	1183
f 1183 	1184 	1184
f 1184 	1185 	1185
f 1185 	1186 	1186
f 1186 	1187 	1187
f 1187 	1188 	1188
f 1188 	1189 	1189
f 1189 	1190 	1190
f 1190 	1191 	1191
f 1191 	1192 	1192
f 1192 	1193 	1193
f 1193 	1194 	1194
f 1194 	1195 	1195
f 1195 	1196 	1196
f 1196 	1197 	1197
f 1197 	1198 	1198
f 1198 	1199 	1199
f 1199 	1200 	1200
f 1200 	1201 	1201
f 1201 	1202 	1202
f 1202 	1203 	1203
f 1203 	1204 	1204
f 1204 	1156 	1156
# 288 faces

 #end of obj_1

