# Object Export From Tinkercad Server 2015

mtllib obj.mtl

o obj_0
v 4.303 		-14.66 		71.144
v 5.629 		-12.363 		71.144
v 1.326 		-4.911 		71.144
v 10.994 		-15.461 		28.847
v 9.668 		-17.758 		28.847
v -1.326 		1.284 		28.847
v -1.326 		-4.911 		71.144
v -5.629 		-12.363 		71.144
v -4.303 		-14.66 		71.144
v -10.994 		-4.167 		13.014
v 4.303 		36.083 		0
v -1.326 		39.258 		9.219
v -11.106 		-4.362 		13.014
v 43.93 		-29.508 		2.172
v 38.301 		-39.258 		2.172
v -5.629 		36.831 		2.172
v 38.316 		-37.735 		0
v -9.667 		-4.915 		10.842
v 42.554 		-36.744 		9.219
v 43.88 		-34.447 		9.219
v -4.303 		36.083 		0
v 0.113 		-23.404 		13.014
v -10.994 		-15.461 		28.847
v 9.796 		-5.137 		10.842
v 5.629 		36.831 		2.172
v 1.326 		39.258 		9.219
v 0.128 		-21.882 		10.842
v 42.619 		-30.283 		0
v 1.326 		1.284 		28.847
v 9.668 		-4.915 		10.842
v -38.301 		-39.258 		2.172
v -42.554 		-36.744 		9.219
v -43.93 		-29.508 		2.172
v -42.619 		-30.283 		0
v -38.316 		-37.735 		0
v 11.106 		-4.362 		13.014
v -0.113 		-23.404 		13.014
v -9.667 		-17.758 		28.847
v 10.994 		-4.167 		13.014
v -0.128 		-21.882 		10.842
v -9.796 		-5.137 		10.842
v -43.88 		-34.447 		9.219
# 42 vertices

g group_0_11909273

usemtl color_11909273
s 0

f 1 	2 	3
f 1 	3 	7
f 9 	1 	8
f 7 	8 	1
f 14 	15 	17
f 14 	19 	15
f 10 	12 	16
f 14 	20 	19
f 4 	36 	29
f 12 	25 	16
f 11 	21 	25
f 16 	25 	21
f 17 	28 	14
f 36 	39 	29
f 10 	13 	6
f 6 	12 	10
f 30 	18 	11
f 10 	18 	13
f 31 	32 	33
f 6 	3 	29
f 16 	21 	18
f 29 	39 	26
f 33 	34 	35
f 18 	10 	16
f 13 	23 	6
f 8 	6 	23
f 25 	39 	11
f 28 	24 	14
f 8 	7 	6
f 26 	12 	6
f 26 	6 	29
f 20 	14 	36
f 38 	9 	8
f 12 	26 	25
f 17 	24 	28
f 30 	11 	39
f 19 	20 	5
f 4 	5 	20
f 30 	24 	18
f 39 	25 	26
f 4 	1 	5
f 8 	23 	38
f 27 	22 	40
f 37 	40 	22
f 5 	22 	19
f 5 	1 	38
f 32 	38 	23
f 29 	3 	2
f 14 	24 	36
f 22 	5 	38
f 38 	37 	22
f 9 	38 	1
f 39 	36 	30
f 20 	36 	4
f 15 	19 	22
f 37 	38 	32
f 17 	22 	27
f 36 	24 	30
f 17 	27 	24
f 15 	22 	17
f 33 	35 	31
f 4 	2 	1
f 32 	42 	33
f 4 	29 	2
f 41 	34 	33
f 6 	7 	3
f 18 	41 	13
f 13 	41 	33
f 40 	18 	27
f 41 	18 	40
f 27 	18 	24
f 37 	32 	31
f 21 	11 	18
f 32 	23 	42
f 23 	13 	42
f 42 	13 	33
f 35 	40 	31
f 40 	37 	31
f 35 	34 	41
f 41 	40 	35
# 80 faces

 #end of obj_0

